<svg xmlns="http://www.w3.org/2000/svg" width="24" height="24" fill="none"><path fill="#2f3557" fill-opacity=".55" fill-rule="evenodd" d="m1.413 15.657-.034.034L1 18.084q.103.73.517 1.421.448.659 1.102 1.144.655.45 1.55.659.896.173 1.93-.035.31 0 1.24-.346a23 23 0 0 0 1.998-.832 13 13 0 0 0 1.479-.863q.467 1.605 1.578 2.18 1.24.59 3.066.589.585 0 1.413-.139a14 14 0 0 0 1.791-.416q.93-.277 1.86-.693a9 9 0 0 0 1.689-.936q.758-.555 1.205-1.213.483-.693.483-1.456 0-.277-.07-.554-.068-.278-.413-.278-.344 0-.654.278a3.5 3.5 0 0 0-.586.589l-.551.693a5 5 0 0 1-.413.485 8 8 0 0 1-2.722 1.456q-1.482.45-3.1.45-.552.001-1.034-.034a2.5 2.5 0 0 1-.827-.277 1.8 1.8 0 0 1-.551-.624q-.207-.382-.207-1.005v-.07q0-.103.069-.346.069-.242.103-.347a42 42 0 0 0 1.964-1.767 9.8 9.8 0 0 0 1.447-1.838 6.9 6.9 0 0 0 .896-2.114q.31-1.143.31-2.634a6 6 0 0 0-.035-.486v-.52a3.2 3.2 0 0 0-.344-.693q-.173-.345-.62-.346-1.206 0-2.033.554a4.3 4.3 0 0 0-1.309 1.352 8 8 0 0 0-.827 1.803 57 57 0 0 0-.482 1.802q-.069.208-.207.797-.103.555-.275 1.179a15 15 0 0 1-.31 1.178q-.138.52-.207.728l-.05.685a5 5 0 0 0-.492.216q-.621.311-1.275.728a17 17 0 0 1-1.24.693q-.586.312-.896.312-.586 0-1.24-.069a5.5 5.5 0 0 1-1.137-.243 2.4 2.4 0 0 1-.896-.623q-.344-.417-.344-1.11v-.069q.034-.139.069-.45.069-.313.103-.417 1.31-1.143 2.48-2.565a18 18 0 0 0 2.067-3.085 16.6 16.6 0 0 0 1.344-3.396q.517-1.803.517-3.605a4 4 0 0 0-.035-.485 1.5 1.5 0 0 0-.137-.486.83.83 0 0 0-.276-.416Q9.302 2 8.993 2q-.586 0-1.275.555-.69.52-1.344 1.247-.62.695-1.137 1.49-.482.798-.723 1.283-.103.278-.345.832l-.482 1.11q-.24.554-.448 1.04-.172.45-.206.589-.104.276-.345 1.04-.207.762-.448 1.663-.24.867-.448 1.63-.207.762-.275 1.074zM7.89 5.362q-.31 0-.723.52a10 10 0 0 0-.758 1.144q-.38.659-.69 1.282-.274.59-.31.798a34 34 0 0 0-.723 1.976 63 63 0 0 1-.413 1.143q-.172.555-.241.798h.172l.207-.243q.206-.277.448-.624l.55-.693q.31-.381.449-.624.137-.208.379-.624.24-.45.31-.555.137-.381.379-1.005a50 50 0 0 0 .792-2.357q.172-.485.172-.554zm7.95 4.368q-.69.624-1.103 1.143-.38.486-.62 1.04-.206.52-.38 1.144-.136.624-.31 1.456a6.6 6.6 0 0 0 1.069-1.04q.448-.52.723-1.074a5 5 0 0 0 .414-1.179q.137-.659.206-1.49Z" clip-rule="evenodd"/></svg>