<svg xmlns="http://www.w3.org/2000/svg" width="24" height="24" fill="none"><path fill="#2F3557" fill-opacity=".55" fill-rule="evenodd" d="m1.413 15.657-.034.034L1 18.084c.069.486.241.96.517 1.421.298.44.666.82 1.102 1.144.437.3.953.52 1.55.659.598.115 1.24.104 1.93-.035.206 0 .62-.115 1.24-.346a23.08 23.08 0 0 0 1.998-.832c.543-.273 1.036-.56 1.479-.863.311 1.07.838 1.796 1.578 2.18.827.393 1.849.589 3.066.589.39 0 .861-.046 1.413-.139a14.168 14.168 0 0 0 1.791-.416c.62-.184 1.24-.416 1.86-.693a8.972 8.972 0 0 0 1.689-.936c.505-.37.907-.774 1.205-1.213.322-.462.483-.947.483-1.456 0-.184-.023-.37-.07-.554-.045-.185-.183-.278-.413-.278-.23 0-.447.093-.654.278a3.54 3.54 0 0 0-.586.589l-.551.693a5.37 5.37 0 0 1-.413.485 7.979 7.979 0 0 1-2.722 1.456c-.988.3-2.021.45-3.1.45-.368 0-.713-.01-1.034-.034a2.498 2.498 0 0 1-.827-.277 1.8 1.8 0 0 1-.551-.624c-.138-.254-.207-.59-.207-1.005v-.07c0-.069.023-.184.069-.346.046-.162.08-.277.103-.347a41.518 41.518 0 0 0 1.964-1.767 9.77 9.77 0 0 0 1.447-1.838 6.898 6.898 0 0 0 .896-2.114c.206-.762.31-1.64.31-2.634a5.74 5.74 0 0 0-.035-.486v-.52a3.244 3.244 0 0 0-.344-.693c-.115-.23-.322-.346-.62-.346-.804 0-1.482.185-2.033.554a4.318 4.318 0 0 0-1.309 1.352 8.034 8.034 0 0 0-.827 1.803 56.64 56.64 0 0 0-.482 1.802c-.046.139-.115.404-.207.797-.069.37-.16.763-.275 1.179a14.56 14.56 0 0 1-.31 1.178c-.092.347-.161.59-.207.728l-.05.685a4.47 4.47 0 0 0-.492.216c-.414.208-.839.45-1.275.728a16.69 16.69 0 0 1-1.24.693c-.39.208-.69.312-.896.312-.39 0-.804-.023-1.24-.069a5.492 5.492 0 0 1-1.137-.243 2.42 2.42 0 0 1-.896-.623c-.23-.278-.344-.648-.344-1.11v-.069c.023-.092.046-.243.069-.45.046-.209.08-.347.103-.417.873-.762 1.7-1.617 2.48-2.565a18.062 18.062 0 0 0 2.067-3.085 16.59 16.59 0 0 0 1.344-3.396c.345-1.202.517-2.404.517-3.605a4 4 0 0 0-.035-.485 1.5 1.5 0 0 0-.137-.486.832.832 0 0 0-.276-.416C9.36 2.058 9.199 2 8.993 2c-.39 0-.816.185-1.275.555-.46.346-.907.762-1.344 1.247-.413.463-.792.96-1.137 1.49-.321.532-.562.96-.723 1.283-.069.185-.184.463-.345.832l-.482 1.11c-.16.37-.31.716-.448 1.04-.115.3-.183.496-.206.589-.07.184-.184.531-.345 1.04-.138.508-.287 1.062-.448 1.663-.16.578-.31 1.121-.448 1.63-.137.508-.23.866-.275 1.074l-.104.104ZM7.89 5.362c-.207 0-.448.174-.723.52a9.818 9.818 0 0 0-.758 1.144c-.253.439-.483.867-.69 1.282-.183.393-.286.66-.31.798a33.965 33.965 0 0 0-.723 1.976 62.71 62.71 0 0 1-.413 1.143c-.115.37-.195.636-.241.798h.172l.207-.243c.137-.185.287-.393.448-.624l.55-.693c.207-.254.357-.462.449-.624.091-.139.218-.347.379-.624.16-.3.264-.485.31-.555.091-.254.218-.589.379-1.005a49.763 49.763 0 0 0 .792-2.357c.115-.323.172-.508.172-.554v-.382Zm7.95 4.368c-.46.416-.828.797-1.103 1.143-.253.324-.46.67-.62 1.04-.138.347-.264.728-.38 1.144-.091.416-.194.901-.31 1.456a6.6 6.6 0 0 0 1.069-1.04c.298-.347.54-.705.723-1.074a5.11 5.11 0 0 0 .414-1.179c.091-.439.16-.936.206-1.49Z" clip-rule="evenodd"/></svg>