<svg width="32" height="32" viewBox="0 0 32 32" fill="none" xmlns="http://www.w3.org/2000/svg">
<g clip-path="url(#clip0_1909_8674)">
<path d="M11.5002 14.125C11.5002 13.9025 11.5662 13.685 11.6898 13.5C11.8134 13.315 11.9891 13.1708 12.1947 13.0856C12.4002 13.0005 12.6264 12.9782 12.8447 13.0216C13.0629 13.065 13.2633 13.1722 13.4207 13.3295C13.578 13.4868 13.6852 13.6873 13.7286 13.9055C13.772 14.1238 13.7497 14.35 13.6646 14.5555C13.5794 14.7611 13.4352 14.9368 13.2502 15.0604C13.0652 15.184 12.8477 15.25 12.6252 15.25C12.3268 15.25 12.0407 15.1315 11.8297 14.9205C11.6187 14.7095 11.5002 14.4234 11.5002 14.125ZM20.5002 14.125C20.5002 14.3475 20.4342 14.565 20.3106 14.75C20.187 14.935 20.0113 15.0792 19.8057 15.1644C19.6001 15.2495 19.3739 15.2718 19.1557 15.2284C18.9375 15.185 18.737 15.0778 18.5797 14.9205C18.4224 14.7632 18.3152 14.5627 18.2718 14.3445C18.2284 14.1262 18.2507 13.9 18.3358 13.6945C18.421 13.4889 18.5652 13.3132 18.7502 13.1896C18.9352 13.066 19.1527 13 19.3752 13C19.6736 13 19.9597 13.1185 20.1707 13.3295C20.3817 13.5405 20.5002 13.8266 20.5002 14.125ZM20.3999 18.625C19.4352 20.2928 17.8311 21.25 16.0002 21.25C14.1692 21.25 12.5661 20.2938 11.6014 18.625C11.5472 18.5396 11.5107 18.4442 11.4943 18.3444C11.4779 18.2446 11.4818 18.1425 11.5059 18.0442C11.53 17.946 11.5737 17.8536 11.6344 17.7727C11.695 17.6918 11.7715 17.6239 11.859 17.5733C11.9466 17.5227 12.0435 17.4903 12.1439 17.4781C12.2444 17.4659 12.3462 17.4742 12.4433 17.5023C12.5405 17.5305 12.6309 17.5781 12.7092 17.6421C12.7875 17.7062 12.8521 17.7854 12.8989 17.875C13.5993 19.0853 14.6999 19.75 16.0002 19.75C17.3005 19.75 18.4011 19.0844 19.1005 17.875C19.2 17.7027 19.3638 17.577 19.556 17.5254C19.7481 17.4739 19.9529 17.5009 20.1252 17.6003C20.2975 17.6998 20.4232 17.8636 20.4748 18.0558C20.5263 18.2479 20.4993 18.4527 20.3999 18.625Z" fill="black"/>
<path d="M24.4939 18.7302C25.2444 16.7592 25.2789 14.5872 24.5914 12.5934C23.9038 10.5996 22.5379 8.91052 20.732 7.8211C18.9261 6.73167 16.795 6.31107 14.7106 6.6327C12.6262 6.95433 10.7209 7.99777 9.32744 9.58088C7.93393 11.164 7.14065 13.1862 7.08608 15.2946C7.03152 17.4029 7.71912 19.4635 9.02887 21.1165C10.3386 22.7696 12.1873 23.9102 14.2523 24.3393C16.3172 24.7683 18.4673 24.4585 20.3271 23.4639" stroke="black" stroke-width="1.5" stroke-linecap="round"/>
<path d="M27.3946 18.5805L24.201 20.0126C23.949 20.1256 23.6531 20.0129 23.5402 19.761L22.108 16.5674" stroke="black" stroke-width="1.5" stroke-linecap="round" stroke-linejoin="round"/>
</g>
<defs>
<clipPath id="clip0_1909_8674">
<rect width="24" height="24" fill="white" transform="translate(4 4)"/>
</clipPath>
</defs>
</svg>
