<svg width="32" height="32" viewBox="0 0 32 32" fill="none" xmlns="http://www.w3.org/2000/svg">
<path d="M16 6.25C14.0716 6.25 12.1866 6.82183 10.5832 7.89317C8.97982 8.96452 7.73013 10.4873 6.99218 12.2688C6.25422 14.0504 6.06114 16.0108 6.43735 17.9021C6.81355 19.7934 7.74215 21.5307 9.10571 22.8943C10.4693 24.2579 12.2066 25.1865 14.0979 25.5627C15.9892 25.9389 17.9496 25.7458 19.7312 25.0078C21.5127 24.2699 23.0355 23.0202 24.1068 21.4168C25.1782 19.8134 25.75 17.9284 25.75 16C25.7473 13.415 24.7192 10.9366 22.8913 9.10872C21.0634 7.28084 18.585 6.25273 16 6.25ZM16 24.25C14.3683 24.25 12.7733 23.7661 11.4165 22.8596C10.0598 21.9531 9.00242 20.6646 8.378 19.1571C7.75358 17.6496 7.5902 15.9908 7.90853 14.3905C8.22685 12.7902 9.01259 11.3202 10.1664 10.1664C11.3202 9.01259 12.7902 8.22685 14.3905 7.90852C15.9909 7.59019 17.6497 7.75357 19.1571 8.37799C20.6646 9.00242 21.9531 10.0598 22.8596 11.4165C23.7662 12.7733 24.25 14.3683 24.25 16C24.2475 18.1873 23.3775 20.2843 21.8309 21.8309C20.2843 23.3775 18.1873 24.2475 16 24.25ZM11.5 14.125C11.5 13.9025 11.566 13.685 11.6896 13.5C11.8132 13.315 11.9889 13.1708 12.1945 13.0856C12.4001 13.0005 12.6263 12.9782 12.8445 13.0216C13.0627 13.065 13.2632 13.1722 13.4205 13.3295C13.5778 13.4868 13.685 13.6873 13.7284 13.9055C13.7718 14.1238 13.7495 14.35 13.6644 14.5555C13.5792 14.7611 13.435 14.9368 13.25 15.0604C13.065 15.184 12.8475 15.25 12.625 15.25C12.3266 15.25 12.0405 15.1315 11.8295 14.9205C11.6185 14.7095 11.5 14.4234 11.5 14.125ZM20.5 14.125C20.5 14.3475 20.434 14.565 20.3104 14.75C20.1868 14.935 20.0111 15.0792 19.8055 15.1644C19.6 15.2495 19.3738 15.2718 19.1555 15.2284C18.9373 15.185 18.7368 15.0778 18.5795 14.9205C18.4222 14.7632 18.315 14.5627 18.2716 14.3445C18.2282 14.1262 18.2505 13.9 18.3356 13.6945C18.4208 13.4889 18.565 13.3132 18.75 13.1896C18.935 13.066 19.1525 13 19.375 13C19.6734 13 19.9595 13.1185 20.1705 13.3295C20.3815 13.5405 20.5 13.8266 20.5 14.125ZM20.3997 18.625C19.435 20.2928 17.8309 21.25 16 21.25C14.1691 21.25 12.5659 20.2937 11.6013 18.625C11.547 18.5396 11.5106 18.4442 11.4941 18.3444C11.4777 18.2446 11.4817 18.1425 11.5057 18.0442C11.5298 17.946 11.5735 17.8536 11.6342 17.7727C11.6949 17.6918 11.7713 17.6239 11.8589 17.5733C11.9464 17.5227 12.0433 17.4903 12.1438 17.4781C12.2442 17.4659 12.346 17.4742 12.4432 17.5023C12.5403 17.5305 12.6307 17.5781 12.709 17.6421C12.7873 17.7062 12.8519 17.7854 12.8988 17.875C13.5991 19.0853 14.6997 19.75 16 19.75C17.3003 19.75 18.4009 19.0844 19.1003 17.875C19.1998 17.7027 19.3636 17.577 19.5558 17.5254C19.7479 17.4739 19.9527 17.5009 20.125 17.6003C20.2973 17.6998 20.4231 17.8636 20.4746 18.0558C20.5261 18.2479 20.4991 18.4527 20.3997 18.625Z" fill="black"/>
</svg>
