<svg width="32" height="32" viewBox="0 0 32 32" fill="none" xmlns="http://www.w3.org/2000/svg">
<path d="M11.5158 14.125C11.5158 13.9025 11.5818 13.685 11.7054 13.5C11.829 13.315 12.0047 13.1708 12.2103 13.0856C12.4159 13.0005 12.6421 12.9782 12.8603 13.0216C13.0785 13.065 13.279 13.1722 13.4363 13.3295C13.5936 13.4868 13.7008 13.6873 13.7442 13.9055C13.7876 14.1238 13.7653 14.35 13.6802 14.5555C13.595 14.7611 13.4508 14.9368 13.2658 15.0604C13.0808 15.184 12.8633 15.25 12.6408 15.25C12.3424 15.25 12.0563 15.1315 11.8453 14.9205C11.6343 14.7095 11.5158 14.4234 11.5158 14.125ZM20.5158 14.125C20.5158 14.3475 20.4498 14.565 20.3262 14.75C20.2026 14.935 20.0269 15.0792 19.8213 15.1644C19.6158 15.2495 19.3896 15.2718 19.1713 15.2284C18.9531 15.185 18.7527 15.0778 18.5953 14.9205C18.438 14.7632 18.3308 14.5627 18.2874 14.3445C18.244 14.1262 18.2663 13.9 18.3514 13.6945C18.4366 13.4889 18.5808 13.3132 18.7658 13.1896C18.9508 13.066 19.1683 13 19.3908 13C19.6892 13 19.9753 13.1185 20.1863 13.3295C20.3973 13.5405 20.5158 13.8266 20.5158 14.125ZM20.4155 18.625C19.4508 20.2928 17.8467 21.25 16.0158 21.25C14.1849 21.25 12.5818 20.2938 11.6171 18.625C11.5628 18.5396 11.5264 18.4442 11.5099 18.3444C11.4935 18.2446 11.4975 18.1425 11.5215 18.0442C11.5456 17.946 11.5893 17.8536 11.65 17.7727C11.7107 17.6918 11.7871 17.6239 11.8747 17.5733C11.9622 17.5227 12.0591 17.4903 12.1596 17.4781C12.26 17.4659 12.3618 17.4742 12.459 17.5023C12.5561 17.5305 12.6466 17.5781 12.7248 17.6421C12.8031 17.7062 12.8677 17.7854 12.9146 17.875C13.6149 19.0853 14.7155 19.75 16.0158 19.75C17.3161 19.75 18.4168 19.0844 19.1161 17.875C19.2156 17.7027 19.3794 17.577 19.5716 17.5254C19.7637 17.4739 19.9685 17.5009 20.1408 17.6003C20.3131 17.6998 20.4389 17.8636 20.4904 18.0558C20.5419 18.2479 20.515 18.4527 20.4155 18.625Z" fill="black"/>
<path d="M9.44331 8.37858L10.1504 9.08569C10.2911 9.22634 10.3701 9.41711 10.3701 9.61602C10.3701 9.81493 10.2911 10.0057 10.1504 10.1463C10.0098 10.287 9.819 10.366 9.62008 10.366C9.42117 10.366 9.23041 10.287 9.08975 10.1463L8.38265 9.43924C8.242 9.29859 8.16298 9.10783 8.16298 8.90891C8.16298 8.71 8.242 8.51924 8.38265 8.37858C8.5233 8.23793 8.71407 8.15891 8.91298 8.15891C9.11189 8.15891 9.30266 8.23793 9.44331 8.37858ZM21.8177 21.8136C21.677 21.9543 21.598 22.145 21.598 22.3439C21.598 22.5429 21.677 22.7336 21.8177 22.8743L22.5248 23.5814C22.6654 23.722 22.8562 23.801 23.0551 23.801C23.254 23.801 23.4448 23.722 23.5854 23.5814C23.7261 23.4407 23.8051 23.25 23.8051 23.051C23.8051 22.8521 23.7261 22.6614 23.5854 22.5207L22.8783 21.8136C22.7377 21.673 22.5469 21.5939 22.348 21.5939C22.1491 21.5939 21.9583 21.673 21.8177 21.8136ZM10.1504 21.8136C10.0098 21.673 9.819 21.5939 9.62008 21.5939C9.42117 21.5939 9.23041 21.673 9.08975 21.8136L8.38265 22.5207C8.242 22.6614 8.16298 22.8521 8.16298 23.051C8.16298 23.25 8.242 23.4407 8.38265 23.5814C8.5233 23.722 8.71407 23.801 8.91298 23.801C9.11189 23.801 9.30266 23.722 9.44331 23.5814L10.1504 22.8743C10.2911 22.7336 10.3701 22.5429 10.3701 22.3439C10.3701 22.145 10.2911 21.9543 10.1504 21.8136Z" fill="black"/>
<path d="M16.7344 5.97998V7.97998C16.7344 8.17889 16.6554 8.36966 16.5147 8.51031C16.3741 8.65096 16.1833 8.72998 15.9844 8.72998C15.7855 8.72998 15.5947 8.65096 15.454 8.51031C15.3134 8.36966 15.2344 8.17889 15.2344 7.97998V5.97998C15.2344 5.78107 15.3134 5.5903 15.454 5.44965C15.5947 5.309 15.7855 5.22998 15.9844 5.22998C16.1833 5.22998 16.3741 5.309 16.5147 5.44965C16.6554 5.5903 16.7344 5.78107 16.7344 5.97998ZM25.9844 15.23H23.9844C23.7855 15.23 23.5947 15.309 23.454 15.4497C23.3134 15.5903 23.2344 15.7811 23.2344 15.98C23.2344 16.1789 23.3134 16.3697 23.454 16.5103C23.5947 16.651 23.7855 16.73 23.9844 16.73H25.9844C26.1833 16.73 26.3741 16.651 26.5147 16.5103C26.6554 16.3697 26.7344 16.1789 26.7344 15.98C26.7344 15.7811 26.6554 15.5903 26.5147 15.4497C26.3741 15.309 26.1833 15.23 25.9844 15.23ZM15.9844 23.23C15.7855 23.23 15.5947 23.309 15.454 23.4496C15.3134 23.5903 15.2344 23.7811 15.2344 23.98V25.98C15.2344 26.1789 15.3134 26.3697 15.454 26.5103C15.5947 26.651 15.7855 26.73 15.9844 26.73C16.1833 26.73 16.3741 26.651 16.5147 26.5103C16.6554 26.3697 16.7344 26.1789 16.7344 25.98V23.98C16.7344 23.7811 16.6554 23.5903 16.5147 23.4496C16.3741 23.309 16.1833 23.23 15.9844 23.23ZM8.73438 15.98C8.73438 15.7811 8.65536 15.5903 8.5147 15.4497C8.37405 15.309 8.18329 15.23 7.98438 15.23H5.98438C5.78546 15.23 5.5947 15.309 5.45404 15.4497C5.31339 15.5903 5.23438 15.7811 5.23438 15.98C5.23438 16.1789 5.31339 16.3697 5.45404 16.5103C5.5947 16.651 5.78546 16.73 5.98438 16.73H7.98438C8.18329 16.73 8.37405 16.651 8.5147 16.5103C8.65536 16.3697 8.73438 16.1789 8.73438 15.98Z" fill="black"/>
<path d="M16.7344 5.97998V7.97998C16.7344 8.17889 16.6554 8.36966 16.5147 8.51031C16.3741 8.65096 16.1833 8.72998 15.9844 8.72998C15.7855 8.72998 15.5947 8.65096 15.454 8.51031C15.3134 8.36966 15.2344 8.17889 15.2344 7.97998V5.97998C15.2344 5.78107 15.3134 5.5903 15.454 5.44965C15.5947 5.309 15.7855 5.22998 15.9844 5.22998C16.1833 5.22998 16.3741 5.309 16.5147 5.44965C16.6554 5.5903 16.7344 5.78107 16.7344 5.97998ZM25.9844 15.23H23.9844C23.7855 15.23 23.5947 15.309 23.454 15.4497C23.3134 15.5903 23.2344 15.7811 23.2344 15.98C23.2344 16.1789 23.3134 16.3697 23.454 16.5103C23.5947 16.651 23.7855 16.73 23.9844 16.73H25.9844C26.1833 16.73 26.3741 16.651 26.5147 16.5103C26.6554 16.3697 26.7344 16.1789 26.7344 15.98C26.7344 15.7811 26.6554 15.5903 26.5147 15.4497C26.3741 15.309 26.1833 15.23 25.9844 15.23ZM15.9844 23.23C15.7855 23.23 15.5947 23.309 15.454 23.4496C15.3134 23.5903 15.2344 23.7811 15.2344 23.98V25.98C15.2344 26.1789 15.3134 26.3697 15.454 26.5103C15.5947 26.651 15.7855 26.73 15.9844 26.73C16.1833 26.73 16.3741 26.651 16.5147 26.5103C16.6554 26.3697 16.7344 26.1789 16.7344 25.98V23.98C16.7344 23.7811 16.6554 23.5903 16.5147 23.4496C16.3741 23.309 16.1833 23.23 15.9844 23.23ZM8.73438 15.98C8.73438 15.7811 8.65536 15.5903 8.5147 15.4497C8.37405 15.309 8.18329 15.23 7.98438 15.23H5.98438C5.78546 15.23 5.5947 15.309 5.45404 15.4497C5.31339 15.5903 5.23438 15.7811 5.23438 15.98C5.23438 16.1789 5.31339 16.3697 5.45404 16.5103C5.5947 16.651 5.78546 16.73 5.98438 16.73H7.98438C8.18329 16.73 8.37405 16.651 8.5147 16.5103C8.65536 16.3697 8.73438 16.1789 8.73438 15.98Z" fill="black"/>
</svg>
