<svg width="32" height="32" viewBox="0 0 32 32" fill="none" xmlns="http://www.w3.org/2000/svg">
<g clip-path="url(#clip0_1909_8664)">
<path d="M11.5158 14.125C11.5158 13.9025 11.5818 13.685 11.7054 13.5C11.829 13.315 12.0047 13.1708 12.2103 13.0856C12.4159 13.0005 12.6421 12.9782 12.8603 13.0216C13.0785 13.065 13.279 13.1722 13.4363 13.3295C13.5936 13.4868 13.7008 13.6873 13.7442 13.9055C13.7876 14.1238 13.7653 14.35 13.6802 14.5555C13.595 14.7611 13.4508 14.9368 13.2658 15.0604C13.0808 15.184 12.8633 15.25 12.6408 15.25C12.3424 15.25 12.0563 15.1315 11.8453 14.9205C11.6343 14.7095 11.5158 14.4234 11.5158 14.125ZM20.5158 14.125C20.5158 14.3475 20.4498 14.565 20.3262 14.75C20.2026 14.935 20.0269 15.0792 19.8213 15.1644C19.6158 15.2495 19.3896 15.2718 19.1713 15.2284C18.9531 15.185 18.7527 15.0778 18.5953 14.9205C18.438 14.7632 18.3308 14.5627 18.2874 14.3445C18.244 14.1262 18.2663 13.9 18.3514 13.6945C18.4366 13.4889 18.5808 13.3132 18.7658 13.1896C18.9508 13.066 19.1683 13 19.3908 13C19.6892 13 19.9753 13.1185 20.1863 13.3295C20.3973 13.5405 20.5158 13.8266 20.5158 14.125ZM20.4155 18.625C19.4508 20.2928 17.8467 21.25 16.0158 21.25C14.1849 21.25 12.5818 20.2938 11.6171 18.625C11.5628 18.5396 11.5264 18.4442 11.5099 18.3444C11.4935 18.2446 11.4975 18.1425 11.5215 18.0442C11.5456 17.946 11.5893 17.8536 11.65 17.7727C11.7107 17.6918 11.7871 17.6239 11.8747 17.5733C11.9622 17.5227 12.0591 17.4903 12.1596 17.4781C12.26 17.4659 12.3618 17.4742 12.459 17.5023C12.5561 17.5305 12.6466 17.5781 12.7248 17.6421C12.8031 17.7062 12.8677 17.7854 12.9146 17.875C13.6149 19.0853 14.7155 19.75 16.0158 19.75C17.3161 19.75 18.4168 19.0844 19.1161 17.875C19.2156 17.7027 19.3794 17.577 19.5716 17.5254C19.7637 17.4739 19.9685 17.5009 20.1408 17.6003C20.3131 17.6998 20.4389 17.8636 20.4904 18.0558C20.5419 18.2479 20.515 18.4527 20.4155 18.625Z" fill="black"/>
<path d="M5.98381 15.2302L7.98381 15.2302C8.18273 15.2302 8.37349 15.3092 8.51414 15.4499C8.65479 15.5905 8.73381 15.7813 8.73381 15.9802C8.73381 16.1791 8.65479 16.3699 8.51414 16.5105C8.37349 16.6512 8.18273 16.7302 7.98381 16.7302L5.98381 16.7302C5.7849 16.7302 5.59414 16.6512 5.45348 16.5105C5.31283 16.3699 5.23381 16.1791 5.23381 15.9802C5.23381 15.7813 5.31283 15.5905 5.45348 15.4499C5.59414 15.3092 5.7849 15.2302 5.98381 15.2302ZM15.2338 5.98021L15.2338 7.98021C15.2338 8.17913 15.3128 8.36989 15.4535 8.51054C15.5941 8.6512 15.7849 8.73021 15.9838 8.73021C16.1827 8.73021 16.3735 8.6512 16.5141 8.51054C16.6548 8.36989 16.7338 8.17913 16.7338 7.98021L16.7338 5.98021C16.7338 5.7813 16.6548 5.59054 16.5141 5.44988C16.3735 5.30923 16.1827 5.23021 15.9838 5.23021C15.7849 5.23021 15.5941 5.30923 15.4535 5.44988C15.3128 5.59054 15.2338 5.7813 15.2338 5.98021ZM23.2338 15.9802C23.2338 16.1791 23.3128 16.3699 23.4535 16.5105C23.5941 16.6512 23.7849 16.7302 23.9838 16.7302L25.9838 16.7302C26.1827 16.7302 26.3735 16.6512 26.5141 16.5105C26.6548 16.3699 26.7338 16.1791 26.7338 15.9802C26.7338 15.7813 26.6548 15.5905 26.5141 15.4499C26.3735 15.3092 26.1827 15.2302 25.9838 15.2302L23.9838 15.2302C23.7849 15.2302 23.5941 15.3092 23.4535 15.4499C23.3128 15.5905 23.2338 15.7813 23.2338 15.9802ZM15.9838 23.2302C15.7849 23.2302 15.5941 23.3092 15.4535 23.4499C15.3128 23.5905 15.2338 23.7813 15.2338 23.9802L15.2338 25.9802C15.2338 26.1791 15.3128 26.3699 15.4535 26.5105C15.5941 26.6512 15.7849 26.7302 15.9838 26.7302C16.1827 26.7302 16.3735 26.6512 16.5141 26.5105C16.6548 26.3699 16.7338 26.1791 16.7338 25.9802L16.7338 23.9802C16.7338 23.7813 16.6548 23.5905 16.5141 23.4499C16.3735 23.3092 16.1827 23.2302 15.9838 23.2302Z" fill="black"/>
<path d="M9.44331 8.37858L10.8575 9.7928C10.9982 9.93345 11.0772 10.1242 11.0772 10.3231C11.0772 10.522 10.9982 10.7128 10.8575 10.8535C10.7169 10.9941 10.5261 11.0731 10.3272 11.0731C10.1283 11.0731 9.93751 10.9941 9.79686 10.8535L8.38265 9.43924C8.242 9.29859 8.16298 9.10782 8.16298 8.90891C8.16298 8.71 8.242 8.51923 8.38265 8.37858C8.5233 8.23793 8.71407 8.15891 8.91298 8.15891C9.11189 8.15891 9.30266 8.23793 9.44331 8.37858ZM21.1106 21.1065C20.9699 21.2472 20.8909 21.4379 20.8909 21.6368C20.8909 21.8357 20.9699 22.0265 21.1106 22.1672L22.5248 23.5814C22.6654 23.722 22.8562 23.801 23.0551 23.801C23.254 23.801 23.4448 23.722 23.5854 23.5814C23.7261 23.4407 23.8051 23.25 23.8051 23.051C23.8051 22.8521 23.7261 22.6614 23.5854 22.5207L22.1712 21.1065C22.0306 20.9659 21.8398 20.8868 21.6409 20.8868C21.442 20.8868 21.2512 20.9659 21.1106 21.1065ZM10.8575 21.1065C10.7169 20.9659 10.5261 20.8868 10.3272 20.8868C10.1283 20.8868 9.93751 20.9659 9.79686 21.1065L8.38265 22.5207C8.242 22.6614 8.16298 22.8521 8.16298 23.051C8.16298 23.25 8.242 23.4407 8.38265 23.5814C8.5233 23.722 8.71407 23.801 8.91298 23.801C9.11189 23.801 9.30266 23.722 9.44331 23.5814L10.8575 22.1672C10.9982 22.0265 11.0772 21.8357 11.0772 21.6368C11.0772 21.4379 10.9982 21.2472 10.8575 21.1065Z" fill="black"/>
<path d="M9.44331 8.37858L10.8575 9.7928C10.9982 9.93345 11.0772 10.1242 11.0772 10.3231C11.0772 10.522 10.9982 10.7128 10.8575 10.8535C10.7169 10.9941 10.5261 11.0731 10.3272 11.0731C10.1283 11.0731 9.93751 10.9941 9.79686 10.8535L8.38265 9.43924C8.242 9.29859 8.16298 9.10782 8.16298 8.90891C8.16298 8.71 8.242 8.51923 8.38265 8.37858C8.5233 8.23793 8.71407 8.15891 8.91298 8.15891C9.11189 8.15891 9.30266 8.23793 9.44331 8.37858ZM21.1106 21.1065C20.9699 21.2472 20.8909 21.4379 20.8909 21.6368C20.8909 21.8357 20.9699 22.0265 21.1106 22.1672L22.5248 23.5814C22.6654 23.722 22.8562 23.801 23.0551 23.801C23.254 23.801 23.4448 23.722 23.5854 23.5814C23.7261 23.4407 23.8051 23.25 23.8051 23.051C23.8051 22.8521 23.7261 22.6614 23.5854 22.5207L22.1712 21.1065C22.0306 20.9659 21.8398 20.8868 21.6409 20.8868C21.442 20.8868 21.2512 20.9659 21.1106 21.1065ZM10.8575 21.1065C10.7169 20.9659 10.5261 20.8868 10.3272 20.8868C10.1283 20.8868 9.93751 20.9659 9.79686 21.1065L8.38265 22.5207C8.242 22.6614 8.16298 22.8521 8.16298 23.051C8.16298 23.25 8.242 23.4407 8.38265 23.5814C8.5233 23.722 8.71407 23.801 8.91298 23.801C9.11189 23.801 9.30266 23.722 9.44331 23.5814L10.8575 22.1672C10.9982 22.0265 11.0772 21.8357 11.0772 21.6368C11.0772 21.4379 10.9982 21.2472 10.8575 21.1065Z" fill="black"/>
</g>
<defs>
<clipPath id="clip0_1909_8664">
<rect width="24" height="24" fill="white" transform="translate(4 4)"/>
</clipPath>
</defs>
</svg>
