<svg width="32" height="32" viewBox="0 0 32 32" fill="none" xmlns="http://www.w3.org/2000/svg">
<path d="M9.4355 8.37858L12.2639 11.207C12.4046 11.3477 12.4836 11.5384 12.4836 11.7373C12.4836 11.9363 12.4046 12.127 12.2639 12.2677C12.1233 12.4083 11.9325 12.4873 11.7336 12.4873C11.5347 12.4873 11.3439 12.4083 11.2033 12.2677L8.37484 9.43924C8.23418 9.29859 8.15517 9.10783 8.15517 8.90891C8.15517 8.71 8.23418 8.51924 8.37484 8.37858C8.51549 8.23793 8.70625 8.15891 8.90517 8.15891C9.10408 8.15891 9.29484 8.23793 9.4355 8.37858ZM19.6885 19.6923C19.5479 19.8329 19.4689 20.0237 19.4689 20.2226C19.4689 20.4215 19.5479 20.6123 19.6885 20.7529L22.517 23.5814C22.6576 23.722 22.8484 23.801 23.0473 23.801C23.2462 23.801 23.437 23.722 23.5776 23.5814C23.7183 23.4407 23.7973 23.25 23.7973 23.051C23.7973 22.8521 23.7183 22.6614 23.5776 22.5207L20.7492 19.6923C20.6085 19.5516 20.4178 19.4726 20.2189 19.4726C20.02 19.4726 19.8292 19.5516 19.6885 19.6923ZM12.2639 19.6923C12.1233 19.5516 11.9325 19.4726 11.7336 19.4726C11.5347 19.4726 11.3439 19.5516 11.2033 19.6923L8.37484 22.5207C8.23418 22.6614 8.15517 22.8521 8.15517 23.051C8.15517 23.25 8.23418 23.4407 8.37484 23.5814C8.51549 23.722 8.70625 23.801 8.90517 23.801C9.10408 23.801 9.29484 23.722 9.4355 23.5814L12.2639 20.7529C12.4046 20.6123 12.4836 20.4215 12.4836 20.2226C12.4836 20.0237 12.4046 19.8329 12.2639 19.6923Z" fill="black"/>
<path d="M16.7266 5.97998V9.97998C16.7266 10.1789 16.6475 10.3697 16.5069 10.5103C16.3662 10.651 16.1755 10.73 15.9766 10.73C15.7777 10.73 15.5869 10.651 15.4462 10.5103C15.3056 10.3697 15.2266 10.1789 15.2266 9.97998V5.97998C15.2266 5.78107 15.3056 5.5903 15.4462 5.44965C15.5869 5.309 15.7777 5.22998 15.9766 5.22998C16.1755 5.22998 16.3662 5.309 16.5069 5.44965C16.6475 5.5903 16.7266 5.78107 16.7266 5.97998ZM25.9766 15.23H21.9766C21.7777 15.23 21.5869 15.309 21.4462 15.4497C21.3056 15.5903 21.2266 15.7811 21.2266 15.98C21.2266 16.1789 21.3056 16.3697 21.4462 16.5103C21.5869 16.651 21.7777 16.73 21.9766 16.73H25.9766C26.1755 16.73 26.3662 16.651 26.5069 16.5103C26.6475 16.3697 26.7266 16.1789 26.7266 15.98C26.7266 15.7811 26.6475 15.5903 26.5069 15.4497C26.3662 15.309 26.1755 15.23 25.9766 15.23ZM15.9766 21.23C15.7777 21.23 15.5869 21.309 15.4462 21.4496C15.3056 21.5903 15.2266 21.7811 15.2266 21.98V25.98C15.2266 26.1789 15.3056 26.3697 15.4462 26.5103C15.5869 26.651 15.7777 26.73 15.9766 26.73C16.1755 26.73 16.3662 26.651 16.5069 26.5103C16.6475 26.3697 16.7266 26.1789 16.7266 25.98V21.98C16.7266 21.7811 16.6475 21.5903 16.5069 21.4496C16.3662 21.309 16.1755 21.23 15.9766 21.23ZM10.7266 15.98C10.7266 15.7811 10.6475 15.5903 10.5069 15.4497C10.3662 15.309 10.1755 15.23 9.97656 15.23H5.97656C5.77765 15.23 5.58688 15.309 5.44623 15.4497C5.30558 15.5903 5.22656 15.7811 5.22656 15.98C5.22656 16.1789 5.30558 16.3697 5.44623 16.5103C5.58688 16.651 5.77765 16.73 5.97656 16.73H9.97656C10.1755 16.73 10.3662 16.651 10.5069 16.5103C10.6475 16.3697 10.7266 16.1789 10.7266 15.98Z" fill="black"/>
<path d="M16.7266 5.97998V9.97998C16.7266 10.1789 16.6475 10.3697 16.5069 10.5103C16.3662 10.651 16.1755 10.73 15.9766 10.73C15.7777 10.73 15.5869 10.651 15.4462 10.5103C15.3056 10.3697 15.2266 10.1789 15.2266 9.97998V5.97998C15.2266 5.78107 15.3056 5.5903 15.4462 5.44965C15.5869 5.309 15.7777 5.22998 15.9766 5.22998C16.1755 5.22998 16.3662 5.309 16.5069 5.44965C16.6475 5.5903 16.7266 5.78107 16.7266 5.97998ZM25.9766 15.23H21.9766C21.7777 15.23 21.5869 15.309 21.4462 15.4497C21.3056 15.5903 21.2266 15.7811 21.2266 15.98C21.2266 16.1789 21.3056 16.3697 21.4462 16.5103C21.5869 16.651 21.7777 16.73 21.9766 16.73H25.9766C26.1755 16.73 26.3662 16.651 26.5069 16.5103C26.6475 16.3697 26.7266 16.1789 26.7266 15.98C26.7266 15.7811 26.6475 15.5903 26.5069 15.4497C26.3662 15.309 26.1755 15.23 25.9766 15.23ZM15.9766 21.23C15.7777 21.23 15.5869 21.309 15.4462 21.4496C15.3056 21.5903 15.2266 21.7811 15.2266 21.98V25.98C15.2266 26.1789 15.3056 26.3697 15.4462 26.5103C15.5869 26.651 15.7777 26.73 15.9766 26.73C16.1755 26.73 16.3662 26.651 16.5069 26.5103C16.6475 26.3697 16.7266 26.1789 16.7266 25.98V21.98C16.7266 21.7811 16.6475 21.5903 16.5069 21.4496C16.3662 21.309 16.1755 21.23 15.9766 21.23ZM10.7266 15.98C10.7266 15.7811 10.6475 15.5903 10.5069 15.4497C10.3662 15.309 10.1755 15.23 9.97656 15.23H5.97656C5.77765 15.23 5.58688 15.309 5.44623 15.4497C5.30558 15.5903 5.22656 15.7811 5.22656 15.98C5.22656 16.1789 5.30558 16.3697 5.44623 16.5103C5.58688 16.651 5.77765 16.73 5.97656 16.73H9.97656C10.1755 16.73 10.3662 16.651 10.5069 16.5103C10.6475 16.3697 10.7266 16.1789 10.7266 15.98Z" fill="black"/>
</svg>
