<svg xmlns="http://www.w3.org/2000/svg" width="32" height="32" fill="none" viewBox="0 0 32 32"><path fill="#000" d="M11.516 14.125a1.125 1.125 0 1 1 2.25 0 1.125 1.125 0 0 1-2.25 0m9 0a1.125 1.125 0 1 1-2.25 0 1.125 1.125 0 0 1 2.25 0m-.1 4.5c-.965 1.668-2.57 2.625-4.4 2.625s-3.434-.956-4.399-2.625a.751.751 0 1 1 1.298-.75c.7 1.21 1.8 1.875 3.1 1.875s2.402-.666 3.101-1.875a.75.75 0 0 1 1.3.75M9.443 8.379l.707.707a.75.75 0 1 1-1.06 1.06l-.707-.707a.75.75 0 1 1 1.06-1.06m12.375 13.435a.75.75 0 0 0 0 1.06l.707.707a.75.75 0 0 0 1.06-1.06l-.707-.707a.75.75 0 0 0-1.06 0m-11.668 0a.75.75 0 0 0-1.06 0l-.707.707a.75.75 0 0 0 1.06 1.06l.707-.707a.75.75 0 0 0 0-1.06M16.734 5.98v2a.75.75 0 1 1-1.5 0v-2a.75.75 0 1 1 1.5 0m9.25 9.25h-2a.75.75 0 1 0 0 1.5h2a.75.75 0 1 0 0-1.5m-10 8a.75.75 0 0 0-.75.75v2a.75.75 0 1 0 1.5 0v-2a.75.75 0 0 0-.75-.75m-7.25-7.25a.75.75 0 0 0-.75-.75h-2a.75.75 0 1 0 0 1.5h2a.75.75 0 0 0 .75-.75"/><path fill="#000" d="M16.734 5.98v2a.75.75 0 1 1-1.5 0v-2a.75.75 0 1 1 1.5 0m9.25 9.25h-2a.75.75 0 1 0 0 1.5h2a.75.75 0 1 0 0-1.5m-10 8a.75.75 0 0 0-.75.75v2a.75.75 0 1 0 1.5 0v-2a.75.75 0 0 0-.75-.75m-7.25-7.25a.75.75 0 0 0-.75-.75h-2a.75.75 0 1 0 0 1.5h2a.75.75 0 0 0 .75-.75"/></svg>