<svg xmlns="http://www.w3.org/2000/svg" width="32" height="32" fill="none" viewBox="0 0 32 32"><path fill="#000" d="M16 6.25A9.75 9.75 0 1 0 25.75 16 9.76 9.76 0 0 0 16 6.25m0 18A8.25 8.25 0 1 1 24.25 16 8.26 8.26 0 0 1 16 24.25m-4.5-10.125a1.125 1.125 0 1 1 2.25 0 1.125 1.125 0 0 1-2.25 0m9 0a1.125 1.125 0 1 1-2.25 0 1.125 1.125 0 0 1 2.25 0m-.1 4.5c-.965 1.668-2.57 2.625-4.4 2.625s-3.434-.956-4.399-2.625a.751.751 0 1 1 1.298-.75c.7 1.21 1.8 1.875 3.101 1.875s2.4-.666 3.1-1.875a.75.75 0 0 1 1.3.75"/></svg>