<svg width="24" height="24" viewBox="0 0 24 24" fill="none" xmlns="http://www.w3.org/2000/svg">
<path d="M21.6207 2.37746C21.3422 2.09881 21.0114 1.87777 20.6474 1.72696C20.2834 1.57616 19.8932 1.49854 19.4992 1.49854C19.1052 1.49854 18.715 1.57616 18.351 1.72696C17.987 1.87777 17.6562 2.09881 17.3776 2.37746C17.3645 2.39058 17.3514 2.40464 17.3382 2.41964L12.3311 8.27058L11.342 7.27871C11.133 7.06965 10.885 6.90381 10.6119 6.79067C10.3388 6.67752 10.0462 6.61928 9.75059 6.61928C9.45502 6.61928 9.16234 6.67752 8.88928 6.79067C8.61622 6.90381 8.36813 7.06965 8.15918 7.27871L0.969496 14.4693C0.82895 14.61 0.75 14.8007 0.75 14.9995C0.75 15.1983 0.82895 15.389 0.969496 15.5296L8.4695 23.0296C8.61013 23.1702 8.80083 23.2491 8.99965 23.2491C9.19848 23.2491 9.38917 23.1702 9.52981 23.0296L16.7195 15.8437C16.9286 15.6348 17.0944 15.3867 17.2075 15.1136C17.3207 14.8406 17.3789 14.5479 17.3789 14.2523C17.3789 13.9567 17.3207 13.6641 17.2075 13.391C17.0944 13.1179 16.9286 12.8698 16.7195 12.6609L15.7276 11.67L21.5786 6.65621C21.5926 6.64308 21.6076 6.62996 21.6207 6.61589C22.1821 6.05346 22.4973 5.2913 22.4973 4.49668C22.4973 3.70206 22.1821 2.93989 21.6207 2.37746ZM8.99825 21.4396L7.4345 19.875L9.52887 17.7796C9.66359 17.6378 9.73758 17.449 9.73508 17.2535C9.73257 17.0579 9.65377 16.871 9.51547 16.7327C9.37717 16.5944 9.19031 16.5156 8.99474 16.5131C8.79917 16.5106 8.61035 16.5846 8.46856 16.7193L6.37325 18.8137L5.1845 17.625L7.27887 15.5296C7.41359 15.3878 7.48758 15.199 7.48508 15.0035C7.48257 14.8079 7.40377 14.621 7.26547 14.4827C7.12717 14.3444 6.94031 14.2656 6.74474 14.2631C6.54917 14.2606 6.36035 14.3346 6.21856 14.4693L4.12325 16.5637L2.55856 15L6.74825 10.8103L13.1879 17.25L8.99825 21.4396ZM20.5782 5.54058L14.1367 11.054C14.058 11.1212 13.9941 11.204 13.949 11.297C13.9039 11.3901 13.8785 11.4915 13.8744 11.5949C13.8704 11.6983 13.8877 11.8014 13.9255 11.8977C13.9632 11.994 14.0204 12.0815 14.0936 12.1546L15.6545 13.7193C15.795 13.86 15.874 14.0507 15.874 14.2495C15.874 14.4483 15.795 14.639 15.6545 14.7796L14.2482 16.1859L7.8095 9.74996L9.21575 8.34371C9.35638 8.20316 9.54708 8.12421 9.7459 8.12421C9.94473 8.12421 10.1354 8.20316 10.2761 8.34371L11.8407 9.90839C11.9139 9.98155 12.0014 10.0388 12.0977 10.0765C12.194 10.1142 12.2971 10.1316 12.4005 10.1275C12.5039 10.1235 12.6053 10.0981 12.6984 10.053C12.7914 10.0078 12.8742 9.94392 12.9414 9.86527L18.4576 3.41996C18.7412 3.15053 19.1188 3.00254 19.51 3.00755C19.9011 3.01256 20.2748 3.17016 20.5514 3.44676C20.828 3.72337 20.9856 4.09708 20.9907 4.48822C20.9957 4.87936 20.8477 5.25699 20.5782 5.54058Z" fill="black"/>
</svg>
