<svg width="24" height="24" viewBox="0 0 24 24" fill="none" xmlns="http://www.w3.org/2000/svg">
<path d="M10.5 9.375C10.5 9.5975 10.434 9.81501 10.3104 10C10.1868 10.185 10.0111 10.3292 9.80552 10.4144C9.59995 10.4995 9.37375 10.5218 9.15552 10.4784C8.9373 10.435 8.73684 10.3278 8.57951 10.1705C8.42217 10.0132 8.31503 9.81271 8.27162 9.59448C8.22821 9.37625 8.25049 9.15005 8.33564 8.94448C8.42078 8.73891 8.56498 8.56321 8.74998 8.4396C8.93499 8.31598 9.1525 8.25 9.375 8.25C9.67337 8.25 9.95952 8.36853 10.1705 8.5795C10.3815 8.79048 10.5 9.07663 10.5 9.375ZM15.75 9.375C15.75 9.5975 15.684 9.81501 15.5604 10C15.4368 10.185 15.2611 10.3292 15.0555 10.4144C14.85 10.4995 14.6238 10.5218 14.4055 10.4784C14.1873 10.435 13.9868 10.3278 13.8295 10.1705C13.6722 10.0132 13.565 9.81271 13.5216 9.59448C13.4782 9.37625 13.5005 9.15005 13.5856 8.94448C13.6708 8.73891 13.815 8.56321 14 8.4396C14.185 8.31598 14.4025 8.25 14.625 8.25C14.9234 8.25 15.2095 8.36853 15.4205 8.5795C15.6315 8.79048 15.75 9.07663 15.75 9.375ZM10.5 14.625C10.5 14.8475 10.434 15.065 10.3104 15.25C10.1868 15.435 10.0111 15.5792 9.80552 15.6644C9.59995 15.7495 9.37375 15.7718 9.15552 15.7284C8.9373 15.685 8.73684 15.5778 8.57951 15.4205C8.42217 15.2632 8.31503 15.0627 8.27162 14.8445C8.22821 14.6262 8.25049 14.4 8.33564 14.1945C8.42078 13.9889 8.56498 13.8132 8.74998 13.6896C8.93499 13.566 9.1525 13.5 9.375 13.5C9.67337 13.5 9.95952 13.6185 10.1705 13.8295C10.3815 14.0405 10.5 14.3266 10.5 14.625ZM15.75 14.625C15.75 14.8475 15.684 15.065 15.5604 15.25C15.4368 15.435 15.2611 15.5792 15.0555 15.6644C14.85 15.7495 14.6238 15.7718 14.4055 15.7284C14.1873 15.685 13.9868 15.5778 13.8295 15.4205C13.6722 15.2632 13.565 15.0627 13.5216 14.8445C13.4782 14.6262 13.5005 14.4 13.5856 14.1945C13.6708 13.9889 13.815 13.8132 14 13.6896C14.185 13.566 14.4025 13.5 14.625 13.5C14.9234 13.5 15.2095 13.6185 15.4205 13.8295C15.6315 14.0405 15.75 14.3266 15.75 14.625Z" fill="black"/>
</svg>
