<svg width="24" height="24" viewBox="0 0 24 24" fill="none" xmlns="http://www.w3.org/2000/svg">
<path d="M11.25 10.125C11.25 10.3475 11.184 10.565 11.0604 10.75C10.9368 10.935 10.7611 11.0792 10.5555 11.1644C10.35 11.2495 10.1238 11.2718 9.90552 11.2284C9.6873 11.185 9.48684 11.0778 9.32951 10.9205C9.17217 10.7632 9.06503 10.5627 9.02162 10.3445C8.97821 10.1262 9.00049 9.90005 9.08564 9.69448C9.17078 9.48891 9.31498 9.31321 9.49998 9.1896C9.68499 9.06598 9.9025 9 10.125 9C10.4234 9 10.7095 9.11853 10.9205 9.3295C11.1315 9.54048 11.25 9.82663 11.25 10.125ZM15 13.875C15 14.0975 14.934 14.315 14.8104 14.5C14.6868 14.685 14.5111 14.8292 14.3055 14.9144C14.1 14.9995 13.8738 15.0218 13.6555 14.9784C13.4373 14.935 13.2368 14.8278 13.0795 14.6705C12.9222 14.5132 12.815 14.3127 12.7716 14.0945C12.7282 13.8762 12.7505 13.65 12.8356 13.4445C12.9208 13.2389 13.065 13.0632 13.25 12.9396C13.435 12.816 13.6525 12.75 13.875 12.75C14.1734 12.75 14.4595 12.8685 14.6705 13.0795C14.8815 13.2905 15 13.5766 15 13.875Z" fill="black"/>
</svg>
