<svg width="24" height="24" viewBox="0 0 24 24" fill="none" xmlns="http://www.w3.org/2000/svg">
<path d="M8.575 7.94998C8.575 8.21698 8.49583 8.47799 8.34749 8.7C8.19915 8.922 7.9883 9.09504 7.74162 9.19721C7.49494 9.29939 7.2235 9.32613 6.96163 9.27404C6.69975 9.22195 6.45921 9.09337 6.27041 8.90457C6.08161 8.71577 5.95303 8.47522 5.90094 8.21335C5.84885 7.95147 5.87558 7.68003 5.97776 7.43335C6.07994 7.18667 6.25298 6.97583 6.47498 6.82749C6.69699 6.67915 6.958 6.59998 7.225 6.59998C7.58304 6.59998 7.92642 6.74221 8.1796 6.99538C8.43277 7.24856 8.575 7.59193 8.575 7.94998ZM16.675 7.94998C16.675 8.21698 16.5958 8.47799 16.4475 8.7C16.2991 8.922 16.0883 9.09504 15.8416 9.19721C15.5949 9.29939 15.3235 9.32613 15.0616 9.27404C14.7998 9.22195 14.5592 9.09337 14.3704 8.90457C14.1816 8.71577 14.053 8.47522 14.0009 8.21335C13.9489 7.95147 13.9756 7.68003 14.0778 7.43335C14.1799 7.18667 14.353 6.97583 14.575 6.82749C14.797 6.67915 15.058 6.59998 15.325 6.59998C15.683 6.59998 16.0264 6.74221 16.2796 6.99538C16.5328 7.24856 16.675 7.59193 16.675 7.94998ZM8.575 16.05C8.575 16.317 8.49583 16.578 8.34749 16.8C8.19915 17.022 7.9883 17.195 7.74162 17.2972C7.49494 17.3994 7.2235 17.4261 6.96163 17.374C6.69975 17.3219 6.45921 17.1934 6.27041 17.0046C6.08161 16.8158 5.95303 16.5752 5.90094 16.3133C5.84885 16.0515 5.87558 15.78 5.97776 15.5334C6.07994 15.2867 6.25298 15.0758 6.47498 14.9275C6.69699 14.7792 6.958 14.7 7.225 14.7C7.58304 14.7 7.92642 14.8422 8.1796 15.0954C8.43277 15.3486 8.575 15.6919 8.575 16.05ZM12.625 12C12.625 12.267 12.5458 12.528 12.3975 12.75C12.2491 12.972 12.0383 13.145 11.7916 13.2472C11.5449 13.3494 11.2735 13.3761 11.0116 13.324C10.7498 13.2719 10.5092 13.1434 10.3204 12.9546C10.1316 12.7658 10.003 12.5252 9.95094 12.2633C9.89885 12.0015 9.92559 11.73 10.0278 11.4834C10.1299 11.2367 10.303 11.0258 10.525 10.8775C10.747 10.7292 11.008 10.65 11.275 10.65C11.633 10.65 11.9764 10.7922 12.2296 11.0454C12.4828 11.2986 12.625 11.6419 12.625 12ZM16.675 16.05C16.675 16.317 16.5958 16.578 16.4475 16.8C16.2991 17.022 16.0883 17.195 15.8416 17.2972C15.5949 17.3994 15.3235 17.4261 15.0616 17.374C14.7998 17.3219 14.5592 17.1934 14.3704 17.0046C14.1816 16.8158 14.053 16.5752 14.0009 16.3133C13.9489 16.0515 13.9756 15.78 14.0778 15.5334C14.1799 15.2867 14.353 15.0758 14.575 14.9275C14.797 14.7792 15.058 14.7 15.325 14.7C15.683 14.7 16.0264 14.8422 16.2796 15.0954C16.5328 15.3486 16.675 15.6919 16.675 16.05Z" fill="black"/>
</svg>
