<svg width="24" height="24" viewBox="0 0 24 24" fill="none" xmlns="http://www.w3.org/2000/svg">
<path d="M9.75 7.875C9.75 8.0975 9.68402 8.31501 9.5604 8.50002C9.43679 8.68502 9.26109 8.82922 9.05552 8.91436C8.84995 8.99951 8.62375 9.02179 8.40552 8.97838C8.1873 8.93498 7.98684 8.82783 7.82951 8.6705C7.67217 8.51316 7.56503 8.31271 7.52162 8.09448C7.47821 7.87625 7.50049 7.65005 7.58564 7.44448C7.67078 7.23891 7.81498 7.06321 7.99998 6.9396C8.18499 6.81598 8.4025 6.75 8.625 6.75C8.92337 6.75 9.20952 6.86853 9.4205 7.07951C9.63147 7.29048 9.75 7.57663 9.75 7.875ZM16.5 7.875C16.5 8.0975 16.434 8.31501 16.3104 8.50002C16.1868 8.68502 16.0111 8.82922 15.8055 8.91436C15.6 8.99951 15.3738 9.02179 15.1555 8.97838C14.9373 8.93498 14.7368 8.82783 14.5795 8.6705C14.4222 8.51316 14.315 8.31271 14.2716 8.09448C14.2282 7.87625 14.2505 7.65005 14.3356 7.44448C14.4208 7.23891 14.565 7.06321 14.75 6.9396C14.935 6.81598 15.1525 6.75 15.375 6.75C15.6734 6.75 15.9595 6.86853 16.1705 7.07951C16.3815 7.29048 16.5 7.57663 16.5 7.875ZM9.75 12C9.75 12.2225 9.68402 12.44 9.5604 12.625C9.43679 12.81 9.26109 12.9542 9.05552 13.0394C8.84995 13.1245 8.62375 13.1468 8.40552 13.1034C8.1873 13.06 7.98684 12.9528 7.82951 12.7955C7.67217 12.6382 7.56503 12.4377 7.52162 12.2195C7.47821 12.0012 7.50049 11.775 7.58564 11.5695C7.67078 11.3639 7.81498 11.1882 7.99998 11.0646C8.18499 10.941 8.4025 10.875 8.625 10.875C8.92337 10.875 9.20952 10.9935 9.4205 11.2045C9.63147 11.4155 9.75 11.7016 9.75 12ZM16.5 12C16.5 12.2225 16.434 12.44 16.3104 12.625C16.1868 12.81 16.0111 12.9542 15.8055 13.0394C15.6 13.1245 15.3738 13.1468 15.1555 13.1034C14.9373 13.06 14.7368 12.9528 14.5795 12.7955C14.4222 12.6382 14.315 12.4377 14.2716 12.2195C14.2282 12.0012 14.2505 11.775 14.3356 11.5695C14.4208 11.3639 14.565 11.1882 14.75 11.0646C14.935 10.941 15.1525 10.875 15.375 10.875C15.6734 10.875 15.9595 10.9935 16.1705 11.2045C16.3815 11.4155 16.5 11.7016 16.5 12ZM9.75 16.125C9.75 16.3475 9.68402 16.565 9.5604 16.75C9.43679 16.935 9.26109 17.0792 9.05552 17.1644C8.84995 17.2495 8.62375 17.2718 8.40552 17.2284C8.1873 17.185 7.98684 17.0778 7.82951 16.9205C7.67217 16.7632 7.56503 16.5627 7.52162 16.3445C7.47821 16.1262 7.50049 15.9 7.58564 15.6945C7.67078 15.4889 7.81498 15.3132 7.99998 15.1896C8.18499 15.066 8.4025 15 8.625 15C8.92337 15 9.20952 15.1185 9.4205 15.3295C9.63147 15.5405 9.75 15.8266 9.75 16.125ZM16.5 16.125C16.5 16.3475 16.434 16.565 16.3104 16.75C16.1868 16.935 16.0111 17.0792 15.8055 17.1644C15.6 17.2495 15.3738 17.2718 15.1555 17.2284C14.9373 17.185 14.7368 17.0778 14.5795 16.9205C14.4222 16.7632 14.315 16.5627 14.2716 16.3445C14.2282 16.1262 14.2505 15.9 14.3356 15.6945C14.4208 15.4889 14.565 15.3132 14.75 15.1896C14.935 15.066 15.1525 15 15.375 15C15.6734 15 15.9595 15.1185 16.1705 15.3295C16.3815 15.5405 16.5 15.8266 16.5 16.125Z" fill="black"/>
</svg>
