<svg width="28" height="47" viewBox="0 0 28 47" fill="none" xmlns="http://www.w3.org/2000/svg">
<mask id="path-1-inside-1_1660_1473" fill="white">
<path d="M0 8C0 3.58172 3.58172 0 8 0H21.5713C24.885 0 27.5713 2.68629 27.5713 6V46.9299H0V8Z"/>
</mask>
<g filter="url(#filter0_iiiiii_1660_1473)">
<path d="M0 8C0 3.58172 3.58172 0 8 0H21.5713C24.885 0 27.5713 2.68629 27.5713 6V46.9299H0V8Z" fill="#FEBFD5"/>
</g>
<path d="M-1 8C-1 3.02944 3.02944 -1 8 -1H21.5713C25.4373 -1 28.5713 2.13401 28.5713 6H26.5713C26.5713 3.23858 24.3328 1 21.5713 1H8C4.13401 1 1 4.13401 1 8H-1ZM1 8M27.5713 46.9299H0H27.5713M-1 46.9299V8C-1 3.02944 3.02944 -1 8 -1V1C4.13401 1 1 4.13401 1 8V46.9299H-1ZM21.5713 -1C25.4373 -1 28.5713 2.13401 28.5713 6V46.9299H26.5713V6C26.5713 3.23858 24.3328 1 21.5713 1V-1Z" fill="#AB5E85" fill-opacity="0.25" mask="url(#path-1-inside-1_1660_1473)"/>
<path d="M15.2297 42.1146C15.2274 42.4951 15.1518 42.8284 15.0027 43.1146C14.8463 43.4008 14.6167 43.6213 14.3138 43.7758C14.011 43.9304 13.646 44.0068 13.2188 44.005C12.8948 44.0035 12.5821 43.9523 12.2808 43.8512C11.9721 43.7501 11.6932 43.6054 11.4439 43.4172C11.1947 43.2228 10.9825 42.9942 10.8074 42.7315C10.6322 42.4688 10.5051 42.1782 10.426 41.8598C10.3365 42.0528 10.214 42.2144 10.0586 42.3447C9.90312 42.475 9.72579 42.5709 9.52658 42.6324C9.32736 42.6939 9.1173 42.7241 8.89637 42.7232C8.56498 42.7217 8.23394 42.6642 7.90323 42.5505C7.57252 42.4368 7.27528 42.2702 7.0115 42.0508C6.74039 41.8251 6.52479 41.5528 6.36471 41.234C6.19727 40.9152 6.11478 40.5532 6.11724 40.1478C6.11887 39.8796 6.16453 39.6366 6.25423 39.4187C6.33656 39.2008 6.44818 39.011 6.58909 38.8495C6.73003 38.6817 6.89285 38.5483 7.07757 38.4493C7.11446 38.437 7.15136 38.4247 7.18826 38.4124C7.21779 38.4001 7.26184 38.4221 7.32041 38.4785C7.3496 38.5223 7.36042 38.5597 7.35287 38.5909C7.33795 38.622 7.31203 38.6468 7.27509 38.6654C7.00148 38.8513 6.79762 39.0718 6.66351 39.3269C6.52208 39.5758 6.4503 39.8748 6.44817 40.2241C6.44617 40.5546 6.51431 40.8543 6.6526 41.123C6.79089 41.3918 6.97727 41.6234 7.21175 41.8178C7.4389 42.0058 7.69576 42.1535 7.98232 42.2608C8.26891 42.3618 8.56686 42.413 8.87615 42.4144C9.14126 42.4155 9.38455 42.3729 9.606 42.2866C9.82013 42.194 9.99038 42.0513 10.1167 41.8585C10.2357 41.6657 10.2961 41.4227 10.2979 41.1296L10.3038 40.1567C10.304 40.1255 10.3189 40.1037 10.3484 40.0914C10.3706 40.079 10.4111 40.0792 10.4699 40.0919C10.5141 40.0983 10.5508 40.1172 10.58 40.1485C10.602 40.1736 10.6129 40.2017 10.6127 40.2329L10.6069 41.1777C10.6047 41.5457 10.6726 41.8827 10.8107 42.1889C10.9487 42.4951 11.1386 42.761 11.3802 42.9866C11.6145 43.2121 11.8859 43.3879 12.1945 43.514C12.5031 43.6339 12.8304 43.6945 13.1765 43.6961C13.5521 43.6977 13.8728 43.6336 14.1387 43.5038C14.3973 43.3677 14.5936 43.1783 14.7277 42.9357C14.8617 42.6868 14.9298 42.4002 14.9317 42.0759C14.932 42.026 14.958 41.9981 15.0096 41.9921C15.0538 41.9798 15.1016 41.9862 15.153 42.0114C15.2045 42.0303 15.23 42.0647 15.2297 42.1146Z" fill="#1E1E1E"/>
<path d="M15.2298 42.1103C15.2295 42.1601 15.2035 42.1881 15.1519 42.1941C15.1003 42.2001 15.0525 42.1937 15.0084 42.1748C14.957 42.1558 14.9314 42.1214 14.9318 42.0715C14.9343 41.6599 14.8484 41.251 14.6741 40.8449C14.4924 40.445 14.2333 40.0603 13.8968 39.6908C13.5529 39.3214 13.1426 38.9828 12.6658 38.6751C12.1816 38.3612 11.6383 38.0844 11.0359 37.8448C10.9771 37.8258 10.9404 37.8007 10.9259 37.7695C10.904 37.7319 10.8969 37.6976 10.9044 37.6665C10.9047 37.629 10.9195 37.6042 10.9491 37.5918C10.9786 37.5795 11.0154 37.5827 11.0595 37.6016C11.6987 37.8414 12.2751 38.1246 12.7886 38.4511C13.3021 38.7777 13.7418 39.1351 14.1077 39.5234C14.4736 39.9116 14.7546 40.3245 14.9508 40.7619C15.1396 41.1993 15.2326 41.6488 15.2298 42.1103Z" fill="#1E1E1E"/>
<path d="M15.2674 35.9174C15.2667 36.0359 15.2439 36.148 15.1991 36.2538C15.1617 36.3535 15.0949 36.4374 14.9987 36.5056C14.9026 36.5737 14.7771 36.6137 14.6224 36.6255C14.4603 36.6373 14.2579 36.6115 14.0153 36.5481C13.8683 36.51 13.7066 36.4563 13.5302 36.3869C13.3466 36.3175 13.1592 36.2481 12.9681 36.1786C12.7771 36.103 12.5861 36.0335 12.395 35.9703C12.2039 35.9009 12.0238 35.8471 11.8547 35.8089C11.5164 35.7326 11.2881 35.7379 11.1697 35.8247C11.0513 35.9115 10.9917 36.0328 10.9907 36.1887C10.99 36.3072 11.0149 36.4477 11.0655 36.61C11.1161 36.7724 11.1702 36.9535 11.2279 37.1533C11.2782 37.3531 11.3027 37.5715 11.3012 37.8085C11.3004 37.952 11.2628 38.0734 11.1886 38.1729C11.1144 38.2661 11.0219 38.3374 10.9111 38.3868C10.793 38.43 10.6787 38.4513 10.5683 38.4508C10.3694 38.45 10.2187 38.4056 10.1162 38.3179C10.0062 38.2301 9.95165 38.1238 9.95241 37.9991C9.95335 37.8432 10.0129 37.7312 10.1312 37.6631C10.2421 37.595 10.3822 37.5582 10.5516 37.5527C10.721 37.5472 10.883 37.5635 11.0374 37.6015C11.0382 37.4643 11.0206 37.3364 10.9845 37.2178C10.9484 37.0929 10.9087 36.9711 10.8652 36.8524C10.8144 36.7337 10.7746 36.615 10.7458 36.4964C10.7097 36.3777 10.6921 36.2529 10.6929 36.1219C10.6938 35.966 10.7351 35.8352 10.8168 35.7296C10.8985 35.6177 11.0315 35.5465 11.2158 35.5161C11.3927 35.4795 11.6356 35.4962 11.9445 35.5661C12.1063 35.6042 12.2791 35.6549 12.4628 35.718C12.6465 35.7812 12.8339 35.8506 13.0249 35.9263C13.2086 35.9957 13.3923 36.0651 13.576 36.1345C13.7523 36.1976 13.9214 36.2483 14.0832 36.2864C14.3993 36.3689 14.6239 36.373 14.7569 36.2987C14.89 36.2244 14.9572 36.0719 14.9586 35.8412C14.9589 35.785 14.9849 35.7509 15.0365 35.7386C15.0881 35.7264 15.1396 35.7359 15.191 35.7673C15.2424 35.7925 15.2679 35.8425 15.2674 35.9174ZM11.0469 37.8542C10.9145 37.8224 10.7858 37.8063 10.6606 37.8057C10.528 37.8051 10.4211 37.8203 10.3399 37.8511C10.2588 37.8757 10.218 37.9254 10.2175 38.0002C10.2171 38.0626 10.2463 38.1126 10.305 38.1503C10.3637 38.188 10.4519 38.2071 10.5697 38.2076C10.6802 38.2081 10.7835 38.1805 10.8796 38.1247C10.9756 38.069 11.0314 37.9788 11.0469 37.8542Z" fill="#1E1E1E"/>
<path d="M15.2674 35.9258C15.267 35.9881 15.241 36.0254 15.1893 36.0377C15.1377 36.0562 15.0862 36.0466 15.0349 36.009C14.9835 35.9775 14.9581 35.9213 14.9586 35.8402C14.9599 35.6157 14.8876 35.4002 14.7416 35.1938C14.5955 34.9873 14.4088 34.8057 14.1815 34.6487C13.9468 34.4918 13.7118 34.3754 13.4766 34.2995C13.4252 34.2806 13.3996 34.2524 13.3998 34.215C13.4001 34.1776 13.4187 34.1465 13.4556 34.1217C13.4926 34.0907 13.5369 34.0846 13.5883 34.1036C13.794 34.1793 13.9997 34.2769 14.2051 34.3963C14.4033 34.5094 14.5829 34.6411 14.744 34.7915C14.9051 34.9419 15.033 35.1109 15.1276 35.2984C15.2221 35.4921 15.2687 35.7013 15.2674 35.9258Z" fill="#1E1E1E"/>
<path d="M15.283 33.3438C15.2811 33.6681 15.147 33.9201 14.8808 34.0998C14.6072 34.2795 14.2421 34.3684 13.7855 34.3664C13.4615 34.365 13.1157 34.3198 12.748 34.2309C12.373 34.1357 12.0204 33.9938 11.6901 33.8053C11.3525 33.6105 11.0779 33.3629 10.8661 33.0626C10.6544 32.7561 10.5499 32.3908 10.5524 31.9667C10.5535 31.7859 10.5952 31.599 10.6774 31.406C10.7522 31.213 10.86 31.0419 11.0008 30.8929L11.2765 30.9783C11.1058 31.1833 10.9942 31.3699 10.9417 31.5381C10.8817 31.7062 10.8513 31.8651 10.8504 32.0148C10.8483 32.3641 10.9422 32.6669 11.1321 32.9235C11.3146 33.18 11.5564 33.3931 11.8573 33.5628C12.1582 33.7263 12.4778 33.8493 12.8161 33.9318C13.1544 34.0081 13.4745 34.0469 13.7764 34.0483C14.0121 34.0493 14.2221 34.0253 14.4065 33.9762C14.5836 33.9208 14.724 33.8372 14.8278 33.7254C14.9243 33.6073 14.973 33.461 14.9741 33.2864C14.9751 33.1117 14.9284 32.9307 14.8338 32.7432C14.7392 32.5556 14.582 32.3679 14.3622 32.1798C14.1351 31.9917 13.8305 31.8095 13.4487 31.6332L13.7804 31.5692C14.199 31.7643 14.5181 31.9747 14.7377 32.2001C14.9499 32.4194 15.0922 32.6289 15.1647 32.8288C15.2445 33.0287 15.2839 33.2004 15.283 33.3438ZM15.2961 31.2016C15.2953 31.3326 15.2651 31.4509 15.2055 31.5567C15.1534 31.6562 15.0719 31.7338 14.9611 31.7895C14.8503 31.8451 14.7175 31.8757 14.5629 31.8813C14.4008 31.8868 14.2205 31.8611 14.022 31.8041L10.7247 30.8823C10.6733 30.8696 10.6402 30.8507 10.6256 30.8257C10.6037 30.8007 10.5929 30.7632 10.5932 30.7133C10.5936 30.651 10.6122 30.6136 10.6491 30.6013C10.686 30.589 10.7302 30.5892 10.7817 30.6019L14.0679 31.5237C14.3914 31.6124 14.6271 31.6134 14.7749 31.5267C14.9154 31.4338 14.9862 31.2969 14.9873 31.116C14.9875 31.0724 15.0135 31.0444 15.0651 31.0322C15.1167 31.0199 15.1682 31.0295 15.2196 31.0609C15.271 31.0861 15.2965 31.133 15.2961 31.2016Z" fill="#1E1E1E"/>
<path d="M15.2962 31.1753C15.2958 31.2376 15.2699 31.2718 15.2183 31.2778C15.1667 31.2839 15.1152 31.268 15.0639 31.2304C15.0125 31.199 14.9871 31.1521 14.9874 31.0897C14.9886 30.8964 14.8832 30.6777 14.6711 30.4335C14.4516 30.1893 14.1512 29.9354 13.7699 29.6718C13.3812 29.4019 12.9336 29.138 12.427 28.8801C11.9205 28.616 11.3807 28.3735 10.8076 28.1527C10.7562 28.1338 10.7342 28.1056 10.7418 28.0683C10.7421 28.0308 10.7643 28.0029 10.8086 27.9843C10.8456 27.9596 10.9045 27.9629 10.9853 27.9945C11.5951 28.2279 12.1643 28.4767 12.693 28.741C13.2142 29.0052 13.6729 29.2785 14.0688 29.5609C14.4574 29.837 14.7614 30.1096 14.9807 30.3787C15.1926 30.6541 15.2978 30.9196 15.2962 31.1753Z" fill="#1E1E1E"/>
<path d="M15.3213 27.0404C15.3207 27.1402 15.309 27.2462 15.2863 27.3584C15.2635 27.4705 15.2443 27.6014 15.2287 27.751C15.2204 27.8944 15.2341 28.0629 15.2698 28.2564L15.1163 28.0686C15.0513 27.8563 15.0155 27.6877 15.0089 27.563C14.9949 27.4319 14.9919 27.3228 14.9998 27.2355C15.0077 27.142 15.012 27.0485 15.0126 26.9549C15.0129 26.8925 15.0389 26.8552 15.0906 26.843C15.1422 26.8245 15.1937 26.8341 15.245 26.8717C15.2964 26.9031 15.3218 26.9594 15.3213 27.0404ZM15.3233 28.5373C15.322 28.7493 15.2877 28.9425 15.2204 29.1168C15.153 29.2912 15.0675 29.4218 14.9639 29.5086C14.9269 29.5334 14.89 29.5457 14.8532 29.5456C14.8091 29.5391 14.7723 29.5234 14.743 29.4983C14.6991 29.4607 14.6772 29.4294 14.6773 29.4045C14.6775 29.3733 14.6999 29.3328 14.7443 29.2831C14.826 29.1775 14.893 29.0593 14.9453 28.9285C14.9903 28.7978 15.0132 28.6606 15.0141 28.5172C15.0162 28.1742 14.911 27.9056 14.6987 27.7113C14.4863 27.517 14.1849 27.419 13.7946 27.4173C13.6179 27.4166 13.4594 27.4346 13.3193 27.4714C13.1718 27.5082 13.0352 27.5575 12.9097 27.6193C12.7841 27.6749 12.6586 27.7367 12.533 27.8048C12.4 27.8665 12.2597 27.9283 12.1121 27.99C11.9644 28.0455 11.7985 28.0916 11.6141 28.1282C11.4298 28.1648 11.2161 28.1826 10.9731 28.1815C10.7816 28.1807 10.6382 28.1614 10.5427 28.1235C10.4398 28.0856 10.3887 28.0106 10.3894 27.8983C10.3897 27.8484 10.4046 27.8142 10.4342 27.7956C10.4637 27.777 10.4969 27.7678 10.5338 27.768C10.5853 27.7682 10.6478 27.781 10.7213 27.8062C10.7875 27.8315 10.8939 27.8881 11.0406 27.976C11.3059 27.9585 11.5381 27.9189 11.7373 27.8574C11.9292 27.7897 12.1064 27.7156 12.2689 27.6352C12.4241 27.5486 12.5755 27.4682 12.7233 27.394C12.871 27.3135 13.0334 27.2488 13.2105 27.1996C13.3802 27.1442 13.5755 27.117 13.7964 27.118C14.2678 27.12 14.6426 27.2495 14.9208 27.5065C15.1918 27.7633 15.3259 28.1069 15.3233 28.5373Z" fill="#1E1E1E"/>
<path d="M15.3213 27.0551C15.3209 27.1175 15.2949 27.1517 15.2433 27.1577C15.1917 27.1637 15.1403 27.1479 15.0889 27.1103C15.0376 27.0788 15.0121 27.032 15.0125 26.9696C15.0141 26.7014 14.9569 26.4174 14.8409 26.1175C14.7249 25.8239 14.5646 25.5363 14.3601 25.2548C14.3309 25.211 14.3311 25.1736 14.3608 25.1425C14.3905 25.1052 14.4311 25.0836 14.4827 25.0776C14.5269 25.0715 14.5673 25.0935 14.6038 25.1436C14.8302 25.4564 15.0086 25.7815 15.1392 26.1188C15.2623 26.4562 15.323 26.7683 15.3213 27.0551Z" fill="#1E1E1E"/>
<path d="M14.3931 25.283C14.2544 25.0766 14.1009 24.8794 13.9327 24.6916C13.7571 24.5037 13.574 24.3314 13.3835 24.1747C13.127 23.9678 12.8483 23.7888 12.5472 23.6378C12.2462 23.4868 11.9263 23.4106 11.5876 23.4091C11.3593 23.4081 11.1896 23.4573 11.0785 23.5566C10.9601 23.6496 10.9003 23.7959 10.8991 23.9955C10.8989 24.0391 10.8839 24.0702 10.8544 24.0888C10.8248 24.1074 10.7916 24.1135 10.7548 24.1071C10.7107 24.1007 10.674 24.0818 10.6447 24.0505C10.6155 24.0192 10.601 23.9817 10.6012 23.938C10.6025 23.726 10.6477 23.5609 10.7368 23.4428C10.8185 23.3247 10.9332 23.241 11.0808 23.1917C11.221 23.1424 11.3831 23.1182 11.5673 23.119C11.8176 23.1201 12.0604 23.1617 12.2956 23.2438C12.5308 23.3197 12.7547 23.4235 12.9675 23.5554C13.1803 23.6811 13.3783 23.8192 13.5615 23.9696C13.7667 24.1389 13.9644 24.3269 14.1546 24.5335C14.3375 24.7401 14.5019 24.9529 14.6478 25.1718L14.3931 25.283Z" fill="#1E1E1E"/>
<path d="M15.3506 24.0479C15.3494 24.2412 15.3004 24.4281 15.2036 24.6086C15.1141 24.7953 14.9805 24.9568 14.8029 25.0933C14.618 25.2359 14.3927 25.3472 14.1271 25.4271C13.8614 25.5133 13.5592 25.5556 13.2205 25.5541C12.9406 25.5529 12.65 25.5173 12.3485 25.4474C12.0396 25.3775 11.753 25.2733 11.4887 25.135C11.2244 25.0028 11.0119 24.8366 10.8511 24.6364C10.6829 24.4361 10.5996 24.2018 10.6013 23.9337C10.6016 23.8838 10.6165 23.8495 10.6461 23.8309C10.6756 23.8186 10.7124 23.8156 10.7566 23.8221C10.7934 23.8285 10.8264 23.8442 10.8557 23.8693C10.885 23.9006 10.8995 23.9412 10.8992 23.9911C10.8978 24.2094 10.974 24.3968 11.1277 24.5534C11.2814 24.7162 11.4794 24.8512 11.7218 24.9582C11.9568 25.0653 12.2104 25.1443 12.4825 25.1954C12.7473 25.2527 12.9902 25.2818 13.2111 25.2828C13.5057 25.2841 13.7673 25.2509 13.996 25.1833C14.2247 25.1157 14.4167 25.023 14.5721 24.9052C14.7275 24.7874 14.8461 24.6507 14.9281 24.4951C15.01 24.3458 15.0515 24.19 15.0524 24.0279C15.0545 23.6849 14.9129 23.3537 14.6277 23.0344C14.335 22.7151 13.9024 22.4107 13.3297 22.1213C12.7497 21.8257 12.0296 21.5575 11.1695 21.3167C11.1033 21.2977 11.0704 21.2664 11.0706 21.2227C11.0635 21.179 11.0822 21.1417 11.1265 21.1107C11.1636 21.0797 11.2188 21.0737 11.2924 21.0927C12.204 21.3462 12.9608 21.6301 13.5628 21.9446C14.1648 22.2528 14.6157 22.5822 14.9155 22.9328C15.2079 23.2895 15.3529 23.6612 15.3506 24.0479Z" fill="#1E1E1E"/>
<path d="M15.3661 19.6698C15.3652 19.8195 15.3314 19.9347 15.2646 20.0155C15.1978 20.0963 15.1055 20.152 14.9874 20.1827C14.8695 20.2071 14.7369 20.2128 14.5897 20.1997C14.4351 20.1803 14.277 20.1484 14.1152 20.104C13.9167 20.047 13.6926 19.9712 13.4428 19.8766C13.193 19.7819 12.9395 19.6873 12.6823 19.5926C12.4251 19.4917 12.1826 19.4158 11.9546 19.3649C11.6972 19.3139 11.491 19.3099 11.3361 19.3529C11.1738 19.3958 11.092 19.5264 11.0907 19.7447C11.0897 19.9069 11.1145 20.066 11.1651 20.2221C11.2157 20.3783 11.2699 20.5469 11.3277 20.728C11.3782 20.9091 11.4027 21.1182 11.4012 21.3551C11.4004 21.4986 11.3628 21.62 11.2885 21.7195C11.2143 21.8127 11.1218 21.884 11.0111 21.9335C10.893 21.9766 10.7787 21.9979 10.6682 21.9974C10.4694 21.9966 10.3187 21.9523 10.2161 21.8645C10.1062 21.7767 10.0516 21.6704 10.0524 21.5457C10.0533 21.3898 10.1129 21.2778 10.2312 21.2097C10.3421 21.1416 10.4822 21.1048 10.6516 21.0993C10.821 21.0938 10.9829 21.1101 11.1374 21.1482C11.1234 21.0234 11.1021 20.8986 11.0734 20.7737C11.0373 20.6488 11.0012 20.527 10.9651 20.4084C10.9217 20.2835 10.8856 20.1586 10.8569 20.0337C10.8283 19.9026 10.8143 19.7716 10.8151 19.6406C10.8163 19.4535 10.8724 19.3134 10.9834 19.2204C11.0944 19.1273 11.242 19.0749 11.4262 19.0633C11.6104 19.0453 11.8165 19.065 12.0444 19.1221C12.2062 19.1602 12.379 19.2109 12.5627 19.274C12.7391 19.3372 12.9228 19.4066 13.1138 19.4822C13.3048 19.5517 13.4922 19.6211 13.6759 19.6905C13.8522 19.7536 14.0213 19.8043 14.1831 19.8424C14.4331 19.9121 14.6428 19.9379 14.8123 19.92C14.9818 19.8958 15.0671 19.8026 15.0681 19.6404C15.0686 19.5531 15.0433 19.4688 14.9923 19.3875C14.9339 19.2999 14.8607 19.2217 14.7728 19.1527C14.6848 19.0775 14.5932 19.0178 14.4977 18.9737C14.4609 18.9611 14.4316 18.9391 14.4097 18.9079C14.3878 18.8766 14.3917 18.8392 14.4214 18.7957C14.4364 18.7583 14.466 18.7366 14.5102 18.7306C14.5471 18.7182 14.5876 18.7247 14.6316 18.7498C14.7564 18.8127 14.8775 18.8881 14.9948 18.9759C15.1047 19.0637 15.1925 19.1639 15.2581 19.2764C15.331 19.389 15.367 19.5201 15.3661 19.6698ZM11.1469 21.4008C11.0145 21.369 10.8857 21.3529 10.7605 21.3523C10.628 21.3518 10.5211 21.3669 10.4399 21.3977C10.3588 21.4223 10.318 21.472 10.3175 21.5469C10.3171 21.6092 10.3463 21.6593 10.405 21.6969C10.4636 21.7346 10.5519 21.7537 10.6697 21.7542C10.7802 21.7547 10.8835 21.7271 10.9795 21.6714C11.0756 21.6157 11.1314 21.5255 11.1469 21.4008Z" fill="#1E1E1E"/>
<path d="M20.2989 24.722V25.6765H18.9763V24.7405H19.1521V25.473H19.5276V24.8311H19.7033V25.473H20.1232V24.722H20.2989Z" fill="#1E1E1E"/>
<path d="M20.2989 24.3277V24.5312H18.9763V23.98C18.9763 23.6877 19.1132 23.5305 19.3574 23.5305C19.5257 23.5305 19.6478 23.6322 19.6811 23.7783H19.6848C19.7421 23.4713 20.2638 23.5841 20.286 23.512H20.2989V23.7303C20.2434 23.7894 19.781 23.6637 19.781 23.9874V24.3277H20.2989ZM19.6053 24.3277V24.0244C19.6053 23.8375 19.5239 23.7358 19.3722 23.7358C19.2298 23.7358 19.1521 23.8172 19.1521 24.0207V24.3277H19.6053Z" fill="#1E1E1E"/>
<path d="M20.2989 23.2266V23.4412L18.9763 22.9492V22.7291L20.2989 22.2333V22.4553L19.9808 22.5644V23.1175L20.2989 23.2266ZM19.165 22.8419L19.8087 23.0565V22.6218L19.165 22.8382V22.8419Z" fill="#1E1E1E"/>
<path d="M20.3248 21.6311C20.3248 21.9659 20.1509 22.2008 19.8531 22.2156V22.0047C20.0307 21.9899 20.1509 21.8845 20.1509 21.6366C20.1509 21.4239 20.0585 21.3591 19.9382 21.3591C19.7699 21.3591 19.7458 21.4886 19.6848 21.7291C19.6293 21.9363 19.5627 22.1638 19.3111 22.1638C19.0818 22.1638 18.9504 21.9862 18.9504 21.7014C18.9504 21.3998 19.104 21.2038 19.3703 21.1834V21.3943C19.2113 21.4165 19.1243 21.5071 19.1243 21.6995C19.1243 21.866 19.1854 21.9511 19.3 21.9511C19.448 21.9511 19.4795 21.8123 19.522 21.6422C19.5868 21.3869 19.6478 21.1464 19.9271 21.1464C20.1546 21.1464 20.3248 21.2999 20.3248 21.6311Z" fill="#1E1E1E"/>
<path d="M20.2989 20.0054V20.9599H18.9763V20.0239H19.1521V20.7564H19.5276V20.1145H19.7033V20.7564H20.1232V20.0054H20.2989Z" fill="#1E1E1E"/>
<path d="M20.2989 19.6111V19.8146H18.9763V19.2634C18.9763 18.9711 19.1132 18.8139 19.3574 18.8139C19.5257 18.8139 19.6478 18.9156 19.6811 19.0617H19.6848C19.7421 18.7547 20.2638 18.8675 20.286 18.7954H20.2989V19.0136C20.2434 19.0728 19.781 18.9471 19.781 19.2708V19.6111H20.2989ZM19.6053 19.6111V19.3078C19.6053 19.1209 19.5239 19.0192 19.3722 19.0192C19.2298 19.0192 19.1521 19.1006 19.1521 19.3041V19.6111H19.6053Z" fill="#1E1E1E"/>
<defs>
<filter id="filter0_iiiiii_1660_1473" x="-2" y="0" width="35.5703" height="54.9299" filterUnits="userSpaceOnUse" color-interpolation-filters="sRGB">
<feFlood flood-opacity="0" result="BackgroundImageFix"/>
<feBlend mode="normal" in="SourceGraphic" in2="BackgroundImageFix" result="shape"/>
<feColorMatrix in="SourceAlpha" type="matrix" values="0 0 0 0 0 0 0 0 0 0 0 0 0 0 0 0 0 0 127 0" result="hardAlpha"/>
<feOffset dx="6" dy="6"/>
<feGaussianBlur stdDeviation="3"/>
<feComposite in2="hardAlpha" operator="arithmetic" k2="-1" k3="1"/>
<feColorMatrix type="matrix" values="0 0 0 0 1 0 0 0 0 1 0 0 0 0 1 0 0 0 0.5 0"/>
<feBlend mode="normal" in2="shape" result="effect1_innerShadow_1660_1473"/>
<feColorMatrix in="SourceAlpha" type="matrix" values="0 0 0 0 0 0 0 0 0 0 0 0 0 0 0 0 0 0 127 0" result="hardAlpha"/>
<feMorphology radius="4" operator="erode" in="SourceAlpha" result="effect2_innerShadow_1660_1473"/>
<feOffset/>
<feGaussianBlur stdDeviation="4"/>
<feComposite in2="hardAlpha" operator="arithmetic" k2="-1" k3="1"/>
<feColorMatrix type="matrix" values="0 0 0 0 0.996078 0 0 0 0 0.74902 0 0 0 0 0.835294 0 0 0 1 0"/>
<feBlend mode="normal" in2="effect1_innerShadow_1660_1473" result="effect2_innerShadow_1660_1473"/>
<feColorMatrix in="SourceAlpha" type="matrix" values="0 0 0 0 0 0 0 0 0 0 0 0 0 0 0 0 0 0 127 0" result="hardAlpha"/>
<feOffset dy="-112"/>
<feGaussianBlur stdDeviation="5.05"/>
<feComposite in2="hardAlpha" operator="arithmetic" k2="-1" k3="1"/>
<feColorMatrix type="matrix" values="0 0 0 0 0.996078 0 0 0 0 0.74902 0 0 0 0 0.835294 0 0 0 1 0"/>
<feBlend mode="normal" in2="effect2_innerShadow_1660_1473" result="effect3_innerShadow_1660_1473"/>
<feColorMatrix in="SourceAlpha" type="matrix" values="0 0 0 0 0 0 0 0 0 0 0 0 0 0 0 0 0 0 127 0" result="hardAlpha"/>
<feOffset dy="40"/>
<feGaussianBlur stdDeviation="4"/>
<feComposite in2="hardAlpha" operator="arithmetic" k2="-1" k3="1"/>
<feColorMatrix type="matrix" values="0 0 0 0 1 0 0 0 0 1 0 0 0 0 1 0 0 0 0.12 0"/>
<feBlend mode="normal" in2="effect3_innerShadow_1660_1473" result="effect4_innerShadow_1660_1473"/>
<feColorMatrix in="SourceAlpha" type="matrix" values="0 0 0 0 0 0 0 0 0 0 0 0 0 0 0 0 0 0 127 0" result="hardAlpha"/>
<feOffset dy="12"/>
<feGaussianBlur stdDeviation="1"/>
<feComposite in2="hardAlpha" operator="arithmetic" k2="-1" k3="1"/>
<feColorMatrix type="matrix" values="0 0 0 0 1 0 0 0 0 0.515967 0 0 0 0 0.680857 0 0 0 0.3 0"/>
<feBlend mode="normal" in2="effect4_innerShadow_1660_1473" result="effect5_innerShadow_1660_1473"/>
<feColorMatrix in="SourceAlpha" type="matrix" values="0 0 0 0 0 0 0 0 0 0 0 0 0 0 0 0 0 0 127 0" result="hardAlpha"/>
<feMorphology radius="3" operator="erode" in="SourceAlpha" result="effect6_innerShadow_1660_1473"/>
<feOffset dx="-2"/>
<feGaussianBlur stdDeviation="1.5"/>
<feComposite in2="hardAlpha" operator="arithmetic" k2="-1" k3="1"/>
<feColorMatrix type="matrix" values="0 0 0 0 1 0 0 0 0 0.515967 0 0 0 0 0.680857 0 0 0 0.15 0"/>
<feBlend mode="normal" in2="effect5_innerShadow_1660_1473" result="effect6_innerShadow_1660_1473"/>
</filter>
</defs>
</svg>
