<svg width="24" height="24" viewBox="0 0 24 24" fill="none" xmlns="http://www.w3.org/2000/svg">
<g clip-path="url(#clip0_1660_1407)">
<path d="M7.51581 10.125C7.51581 9.9025 7.58179 9.68499 7.70541 9.49998C7.82903 9.31498 8.00473 9.17078 8.21029 9.08564C8.41586 9.00049 8.64206 8.97821 8.86029 9.02162C9.07852 9.06503 9.27897 9.17217 9.43631 9.32951C9.59364 9.48684 9.70079 9.6873 9.7442 9.90552C9.78761 10.1238 9.76533 10.35 9.68018 10.5555C9.59503 10.7611 9.45083 10.9368 9.26583 11.0604C9.08082 11.184 8.86332 11.25 8.64081 11.25C8.34244 11.25 8.0563 11.1315 7.84532 10.9205C7.63434 10.7095 7.51581 10.4234 7.51581 10.125ZM16.5158 10.125C16.5158 10.3475 16.4498 10.565 16.3262 10.75C16.2026 10.935 16.0269 11.0792 15.8213 11.1644C15.6158 11.2495 15.3896 11.2718 15.1713 11.2284C14.9531 11.185 14.7527 11.0778 14.5953 10.9205C14.438 10.7632 14.3308 10.5627 14.2874 10.3445C14.244 10.1262 14.2663 9.90005 14.3514 9.69448C14.4366 9.48891 14.5808 9.31321 14.7658 9.1896C14.9508 9.06598 15.1683 9 15.3908 9C15.6892 9 15.9753 9.11853 16.1863 9.32951C16.3973 9.54048 16.5158 9.82663 16.5158 10.125ZM16.4155 14.625C15.4508 16.2928 13.8467 17.25 12.0158 17.25C10.1849 17.25 8.58175 16.2938 7.61706 14.625C7.5628 14.5396 7.52636 14.4442 7.50994 14.3444C7.49353 14.2446 7.49747 14.1425 7.52154 14.0442C7.5456 13.946 7.58929 13.8536 7.64998 13.7727C7.71066 13.6918 7.78709 13.6239 7.87467 13.5733C7.96224 13.5227 8.05915 13.4903 8.15956 13.4781C8.25998 13.4659 8.36182 13.4742 8.45897 13.5023C8.55611 13.5305 8.64655 13.5781 8.72485 13.6421C8.80314 13.7062 8.86768 13.7854 8.91456 13.875C9.61488 15.0853 10.7155 15.75 12.0158 15.75C13.3161 15.75 14.4167 15.0844 15.1161 13.875C15.2156 13.7027 15.3794 13.577 15.5716 13.5254C15.7637 13.4739 15.9685 13.5009 16.1408 13.6003C16.3131 13.6998 16.4389 13.8636 16.4904 14.0558C16.5419 14.2479 16.515 14.4527 16.4155 14.625Z" fill="black"/>
<path d="M1.97991 11.2302L3.97991 11.2302C4.17882 11.2302 4.36958 11.3092 4.51024 11.4499C4.65089 11.5905 4.72991 11.7813 4.72991 11.9802C4.72991 12.1791 4.65089 12.3699 4.51024 12.5105C4.36958 12.6512 4.17882 12.7302 3.97991 12.7302L1.97991 12.7302C1.78099 12.7302 1.59023 12.6512 1.44958 12.5105C1.30892 12.3699 1.22991 12.1791 1.22991 11.9802C1.22991 11.7813 1.30892 11.5905 1.44958 11.4499C1.59023 11.3092 1.78099 11.2302 1.97991 11.2302ZM11.2299 1.98021L11.2299 3.98021C11.2299 4.17913 11.3089 4.36989 11.4496 4.51054C11.5902 4.6512 11.781 4.73021 11.9799 4.73021C12.1788 4.73021 12.3696 4.6512 12.5102 4.51054C12.6509 4.36989 12.7299 4.17913 12.7299 3.98021L12.7299 1.98021C12.7299 1.7813 12.6509 1.59054 12.5102 1.44988C12.3696 1.30923 12.1788 1.23021 11.9799 1.23021C11.781 1.23021 11.5902 1.30923 11.4496 1.44988C11.3089 1.59053 11.2299 1.7813 11.2299 1.98021ZM19.2299 11.9802C19.2299 12.1791 19.3089 12.3699 19.4496 12.5105C19.5902 12.6512 19.781 12.7302 19.9799 12.7302L21.9799 12.7302C22.1788 12.7302 22.3696 12.6512 22.5102 12.5105C22.6509 12.3699 22.7299 12.1791 22.7299 11.9802C22.7299 11.7813 22.6509 11.5905 22.5102 11.4499C22.3696 11.3092 22.1788 11.2302 21.9799 11.2302L19.9799 11.2302C19.781 11.2302 19.5902 11.3092 19.4496 11.4499C19.3089 11.5905 19.2299 11.7813 19.2299 11.9802ZM11.9799 19.2302C11.781 19.2302 11.5902 19.3092 11.4496 19.4499C11.3089 19.5905 11.2299 19.7813 11.2299 19.9802L11.2299 21.9802C11.2299 22.1791 11.3089 22.3699 11.4496 22.5105C11.5902 22.6512 11.781 22.7302 11.9799 22.7302C12.1788 22.7302 12.3696 22.6512 12.5102 22.5105C12.6509 22.3699 12.7299 22.1791 12.7299 21.9802L12.7299 19.9802C12.7299 19.7813 12.6509 19.5905 12.5102 19.4499C12.3696 19.3092 12.1788 19.2302 11.9799 19.2302Z" fill="black"/>
<path d="M5.4394 4.37858L6.85362 5.7928C6.99427 5.93345 7.07329 6.12421 7.07329 6.32313C7.07328 6.52204 6.99427 6.7128 6.85362 6.85346C6.71296 6.99411 6.5222 7.07313 6.32329 7.07313C6.12437 7.07313 5.93361 6.99411 5.79296 6.85346L4.37874 5.43924C4.23809 5.29859 4.15907 5.10783 4.15907 4.90891C4.15907 4.71 4.23809 4.51924 4.37874 4.37858C4.51939 4.23793 4.71016 4.15891 4.90907 4.15891C5.10798 4.15891 5.29875 4.23793 5.4394 4.37858ZM17.1067 17.1065C16.966 17.2472 16.887 17.4379 16.887 17.6368C16.887 17.8357 16.966 18.0265 17.1067 18.1672L18.5209 19.5814C18.6615 19.722 18.8523 19.801 19.0512 19.801C19.2501 19.801 19.4409 19.722 19.5815 19.5814C19.7222 19.4407 19.8012 19.25 19.8012 19.051C19.8012 18.8521 19.7222 18.6614 19.5815 18.5207L18.1673 17.1065C18.0267 16.9659 17.8359 16.8868 17.637 16.8868C17.4381 16.8868 17.2473 16.9659 17.1067 17.1065ZM6.85362 17.1065C6.71296 16.9659 6.5222 16.8868 6.32329 16.8868C6.12437 16.8868 5.93361 16.9659 5.79296 17.1065L4.37874 18.5207C4.23809 18.6614 4.15907 18.8521 4.15907 19.051C4.15907 19.25 4.23809 19.4407 4.37874 19.5814C4.51939 19.722 4.71016 19.801 4.90907 19.801C5.10798 19.801 5.29875 19.722 5.4394 19.5814L6.85362 18.1672C6.99427 18.0265 7.07329 17.8357 7.07329 17.6368C7.07328 17.4379 6.99427 17.2472 6.85362 17.1065Z" fill="black"/>
<path d="M5.4394 4.37858L6.85362 5.7928C6.99427 5.93345 7.07329 6.12421 7.07329 6.32313C7.07328 6.52204 6.99427 6.7128 6.85362 6.85346C6.71296 6.99411 6.5222 7.07313 6.32329 7.07313C6.12437 7.07313 5.93361 6.99411 5.79296 6.85346L4.37874 5.43924C4.23809 5.29859 4.15907 5.10783 4.15907 4.90891C4.15907 4.71 4.23809 4.51924 4.37874 4.37858C4.51939 4.23793 4.71016 4.15891 4.90907 4.15891C5.10798 4.15891 5.29875 4.23793 5.4394 4.37858ZM17.1067 17.1065C16.966 17.2472 16.887 17.4379 16.887 17.6368C16.887 17.8357 16.966 18.0265 17.1067 18.1672L18.5209 19.5814C18.6615 19.722 18.8523 19.801 19.0512 19.801C19.2501 19.801 19.4409 19.722 19.5815 19.5814C19.7222 19.4407 19.8012 19.25 19.8012 19.051C19.8012 18.8521 19.7222 18.6614 19.5815 18.5207L18.1673 17.1065C18.0267 16.9659 17.8359 16.8868 17.637 16.8868C17.4381 16.8868 17.2473 16.9659 17.1067 17.1065ZM6.85362 17.1065C6.71296 16.9659 6.5222 16.8868 6.32329 16.8868C6.12437 16.8868 5.93361 16.9659 5.79296 17.1065L4.37874 18.5207C4.23809 18.6614 4.15907 18.8521 4.15907 19.051C4.15907 19.25 4.23809 19.4407 4.37874 19.5814C4.51939 19.722 4.71016 19.801 4.90907 19.801C5.10798 19.801 5.29875 19.722 5.4394 19.5814L6.85362 18.1672C6.99427 18.0265 7.07329 17.8357 7.07329 17.6368C7.07328 17.4379 6.99427 17.2472 6.85362 17.1065Z" fill="black"/>
</g>
<defs>
<clipPath id="clip0_1660_1407">
<rect width="24" height="24" fill="white"/>
</clipPath>
</defs>
</svg>
