<svg width="24" height="24" viewBox="0 0 24 24" fill="none" xmlns="http://www.w3.org/2000/svg">
<path d="M7.51581 10.125C7.51581 9.9025 7.58179 9.68499 7.70541 9.49998C7.82903 9.31498 8.00473 9.17078 8.21029 9.08564C8.41586 9.00049 8.64206 8.97821 8.86029 9.02162C9.07852 9.06503 9.27897 9.17217 9.43631 9.32951C9.59364 9.48684 9.70079 9.6873 9.7442 9.90552C9.78761 10.1238 9.76533 10.35 9.68018 10.5555C9.59503 10.7611 9.45083 10.9368 9.26583 11.0604C9.08082 11.184 8.86332 11.25 8.64081 11.25C8.34244 11.25 8.0563 11.1315 7.84532 10.9205C7.63434 10.7095 7.51581 10.4234 7.51581 10.125ZM16.5158 10.125C16.5158 10.3475 16.4498 10.565 16.3262 10.75C16.2026 10.935 16.0269 11.0792 15.8213 11.1644C15.6158 11.2495 15.3896 11.2718 15.1713 11.2284C14.9531 11.185 14.7527 11.0778 14.5953 10.9205C14.438 10.7632 14.3308 10.5627 14.2874 10.3445C14.244 10.1262 14.2663 9.90005 14.3514 9.69448C14.4366 9.48891 14.5808 9.31321 14.7658 9.1896C14.9508 9.06598 15.1683 9 15.3908 9C15.6892 9 15.9753 9.11853 16.1863 9.32951C16.3973 9.54048 16.5158 9.82663 16.5158 10.125ZM16.4155 14.625C15.4508 16.2928 13.8467 17.25 12.0158 17.25C10.1849 17.25 8.58175 16.2938 7.61706 14.625C7.5628 14.5396 7.52636 14.4442 7.50994 14.3444C7.49353 14.2446 7.49747 14.1425 7.52154 14.0442C7.5456 13.946 7.58929 13.8536 7.64998 13.7727C7.71066 13.6918 7.78709 13.6239 7.87467 13.5733C7.96224 13.5227 8.05915 13.4903 8.15956 13.4781C8.25998 13.4659 8.36182 13.4742 8.45897 13.5023C8.55611 13.5305 8.64655 13.5781 8.72485 13.6421C8.80314 13.7062 8.86768 13.7854 8.91456 13.875C9.61488 15.0853 10.7155 15.75 12.0158 15.75C13.3161 15.75 14.4167 15.0844 15.1161 13.875C15.2156 13.7027 15.3794 13.577 15.5716 13.5254C15.7637 13.4739 15.9685 13.5009 16.1408 13.6003C16.3131 13.6998 16.4389 13.8636 16.4904 14.0558C16.5419 14.2479 16.515 14.4527 16.4155 14.625Z" fill="black"/>
<path d="M5.4394 4.37858L6.14651 5.08569C6.28716 5.22634 6.36618 5.41711 6.36618 5.61602C6.36618 5.81493 6.28716 6.0057 6.14651 6.14635C6.00586 6.287 5.81509 6.36602 5.61618 6.36602C5.41727 6.36602 5.2265 6.287 5.08585 6.14635L4.37874 5.43924C4.23809 5.29859 4.15907 5.10783 4.15907 4.90891C4.15907 4.71 4.23809 4.51924 4.37874 4.37858C4.51939 4.23793 4.71016 4.15891 4.90907 4.15891C5.10798 4.15891 5.29875 4.23793 5.4394 4.37858ZM18.5209 4.37858L17.8138 5.08569C17.6731 5.22634 17.5941 5.41711 17.5941 5.61602C17.5941 5.81493 17.6731 6.0057 17.8138 6.14635C17.9544 6.287 18.1452 6.36602 18.3441 6.36602C18.543 6.36602 18.7338 6.287 18.8744 6.14635L19.5815 5.43924C19.7222 5.29859 19.8012 5.10783 19.8012 4.90891C19.8012 4.71 19.7222 4.51924 19.5815 4.37858C19.4409 4.23793 19.2501 4.15891 19.0512 4.15891C18.8523 4.15891 18.6615 4.23793 18.5209 4.37858ZM17.8138 17.8136C17.6731 17.9543 17.5941 18.145 17.5941 18.3439C17.5941 18.5429 17.6731 18.7336 17.8138 18.8743L18.5209 19.5814C18.6615 19.722 18.8523 19.801 19.0512 19.801C19.2501 19.801 19.4409 19.722 19.5815 19.5814C19.7222 19.4407 19.8012 19.25 19.8012 19.051C19.8012 18.8521 19.7222 18.6614 19.5815 18.5207L18.8744 17.8136C18.7338 17.673 18.543 17.5939 18.3441 17.5939C18.1452 17.5939 17.9544 17.673 17.8138 17.8136ZM6.14651 17.8136C6.00586 17.673 5.81509 17.5939 5.61618 17.5939C5.41727 17.5939 5.2265 17.673 5.08585 17.8136L4.37874 18.5207C4.23809 18.6614 4.15907 18.8521 4.15907 19.051C4.15907 19.25 4.23809 19.4407 4.37874 19.5814C4.51939 19.722 4.71016 19.801 4.90907 19.801C5.10798 19.801 5.29875 19.722 5.4394 19.5814L6.14651 18.8743C6.28716 18.7336 6.36618 18.5429 6.36618 18.3439C6.36618 18.145 6.28716 17.9543 6.14651 17.8136Z" fill="black"/>
<path d="M12.7305 1.97998V2.97998C12.7305 3.17889 12.6515 3.36966 12.5108 3.51031C12.3701 3.65096 12.1794 3.72998 11.9805 3.72998C11.7816 3.72998 11.5908 3.65096 11.4501 3.51031C11.3095 3.36966 11.2305 3.17889 11.2305 2.97998V1.97998C11.2305 1.78107 11.3095 1.5903 11.4501 1.44965C11.5908 1.309 11.7816 1.22998 11.9805 1.22998C12.1794 1.22998 12.3701 1.309 12.5108 1.44965C12.6515 1.5903 12.7305 1.78107 12.7305 1.97998ZM21.9805 11.23H20.9805C20.7816 11.23 20.5908 11.309 20.4501 11.4497C20.3095 11.5903 20.2305 11.7811 20.2305 11.98C20.2305 12.1789 20.3095 12.3697 20.4501 12.5103C20.5908 12.651 20.7816 12.73 20.9805 12.73H21.9805C22.1794 12.73 22.3701 12.651 22.5108 12.5103C22.6515 12.3697 22.7305 12.1789 22.7305 11.98C22.7305 11.7811 22.6515 11.5903 22.5108 11.4497C22.3701 11.309 22.1794 11.23 21.9805 11.23ZM11.9805 20.23C11.7816 20.23 11.5908 20.309 11.4501 20.4496C11.3095 20.5903 11.2305 20.7811 11.2305 20.98V21.98C11.2305 22.1789 11.3095 22.3697 11.4501 22.5103C11.5908 22.651 11.7816 22.73 11.9805 22.73C12.1794 22.73 12.3701 22.651 12.5108 22.5103C12.6515 22.3697 12.7305 22.1789 12.7305 21.98V20.98C12.7305 20.7811 12.6515 20.5903 12.5108 20.4496C12.3701 20.309 12.1794 20.23 11.9805 20.23ZM3.73047 11.98C3.73047 11.7811 3.65145 11.5903 3.5108 11.4497C3.37015 11.309 3.17938 11.23 2.98047 11.23H1.98047C1.78156 11.23 1.59079 11.309 1.45014 11.4497C1.30949 11.5903 1.23047 11.7811 1.23047 11.98C1.23047 12.1789 1.30949 12.3697 1.45014 12.5103C1.59079 12.651 1.78156 12.73 1.98047 12.73H2.98047C3.17938 12.73 3.37015 12.651 3.5108 12.5103C3.65145 12.3697 3.73047 12.1789 3.73047 11.98Z" fill="black"/>
<path d="M12.7305 1.97998V2.97998C12.7305 3.17889 12.6515 3.36966 12.5108 3.51031C12.3701 3.65096 12.1794 3.72998 11.9805 3.72998C11.7816 3.72998 11.5908 3.65096 11.4501 3.51031C11.3095 3.36966 11.2305 3.17889 11.2305 2.97998V1.97998C11.2305 1.78107 11.3095 1.5903 11.4501 1.44965C11.5908 1.309 11.7816 1.22998 11.9805 1.22998C12.1794 1.22998 12.3701 1.309 12.5108 1.44965C12.6515 1.5903 12.7305 1.78107 12.7305 1.97998ZM21.9805 11.23H20.9805C20.7816 11.23 20.5908 11.309 20.4501 11.4497C20.3095 11.5903 20.2305 11.7811 20.2305 11.98C20.2305 12.1789 20.3095 12.3697 20.4501 12.5103C20.5908 12.651 20.7816 12.73 20.9805 12.73H21.9805C22.1794 12.73 22.3701 12.651 22.5108 12.5103C22.6515 12.3697 22.7305 12.1789 22.7305 11.98C22.7305 11.7811 22.6515 11.5903 22.5108 11.4497C22.3701 11.309 22.1794 11.23 21.9805 11.23ZM11.9805 20.23C11.7816 20.23 11.5908 20.309 11.4501 20.4496C11.3095 20.5903 11.2305 20.7811 11.2305 20.98V21.98C11.2305 22.1789 11.3095 22.3697 11.4501 22.5103C11.5908 22.651 11.7816 22.73 11.9805 22.73C12.1794 22.73 12.3701 22.651 12.5108 22.5103C12.6515 22.3697 12.7305 22.1789 12.7305 21.98V20.98C12.7305 20.7811 12.6515 20.5903 12.5108 20.4496C12.3701 20.309 12.1794 20.23 11.9805 20.23ZM3.73047 11.98C3.73047 11.7811 3.65145 11.5903 3.5108 11.4497C3.37015 11.309 3.17938 11.23 2.98047 11.23H1.98047C1.78156 11.23 1.59079 11.309 1.45014 11.4497C1.30949 11.5903 1.23047 11.7811 1.23047 11.98C1.23047 12.1789 1.30949 12.3697 1.45014 12.5103C1.59079 12.651 1.78156 12.73 1.98047 12.73H2.98047C3.17938 12.73 3.37015 12.651 3.5108 12.5103C3.65145 12.3697 3.73047 12.1789 3.73047 11.98Z" fill="black"/>
</svg>
