<svg width="24" height="24" viewBox="0 0 24 24" fill="none" xmlns="http://www.w3.org/2000/svg">
<path d="M5.4394 4.37858L8.26783 7.20701C8.40848 7.34766 8.4875 7.53843 8.4875 7.73734C8.4875 7.93625 8.40848 8.12702 8.26783 8.26767C8.12718 8.40832 7.93641 8.48734 7.7375 8.48734C7.53859 8.48734 7.34782 8.40832 7.20717 8.26767L4.37874 5.43924C4.23809 5.29859 4.15907 5.10783 4.15907 4.90891C4.15907 4.71 4.23809 4.51924 4.37874 4.37858C4.51939 4.23793 4.71016 4.15891 4.90907 4.15891C5.10798 4.15891 5.29875 4.23793 5.4394 4.37858ZM15.6925 15.6923C15.5518 15.8329 15.4728 16.0237 15.4728 16.2226C15.4728 16.4215 15.5518 16.6123 15.6925 16.7529L18.5209 19.5814C18.6615 19.722 18.8523 19.801 19.0512 19.801C19.2501 19.801 19.4409 19.722 19.5815 19.5814C19.7222 19.4407 19.8012 19.25 19.8012 19.051C19.8012 18.8521 19.7222 18.6614 19.5815 18.5207L16.7531 15.6923C16.6125 15.5516 16.4217 15.4726 16.2228 15.4726C16.0239 15.4726 15.8331 15.5516 15.6925 15.6923ZM8.26783 15.6923C8.12718 15.5516 7.93641 15.4726 7.7375 15.4726C7.53859 15.4726 7.34782 15.5516 7.20717 15.6923L4.37874 18.5207C4.23809 18.6614 4.15907 18.8521 4.15907 19.051C4.15907 19.25 4.23809 19.4407 4.37874 19.5814C4.51939 19.722 4.71016 19.801 4.90907 19.801C5.10798 19.801 5.29875 19.722 5.4394 19.5814L8.26783 16.7529C8.40848 16.6123 8.4875 16.4215 8.4875 16.2226C8.4875 16.0237 8.40848 15.8329 8.26783 15.6923Z" fill="black"/>
<path d="M12.7305 1.97998V5.97998C12.7305 6.17889 12.6515 6.36966 12.5108 6.51031C12.3701 6.65096 12.1794 6.72998 11.9805 6.72998C11.7816 6.72998 11.5908 6.65096 11.4501 6.51031C11.3095 6.36966 11.2305 6.17889 11.2305 5.97998V1.97998C11.2305 1.78107 11.3095 1.5903 11.4501 1.44965C11.5908 1.309 11.7816 1.22998 11.9805 1.22998C12.1794 1.22998 12.3701 1.309 12.5108 1.44965C12.6515 1.5903 12.7305 1.78107 12.7305 1.97998ZM21.9805 11.23H17.9805C17.7816 11.23 17.5908 11.309 17.4501 11.4497C17.3095 11.5903 17.2305 11.7811 17.2305 11.98C17.2305 12.1789 17.3095 12.3697 17.4501 12.5103C17.5908 12.651 17.7816 12.73 17.9805 12.73H21.9805C22.1794 12.73 22.3701 12.651 22.5108 12.5103C22.6515 12.3697 22.7305 12.1789 22.7305 11.98C22.7305 11.7811 22.6515 11.5903 22.5108 11.4497C22.3701 11.309 22.1794 11.23 21.9805 11.23ZM11.9805 17.23C11.7816 17.23 11.5908 17.309 11.4501 17.4496C11.3095 17.5903 11.2305 17.7811 11.2305 17.98V21.98C11.2305 22.1789 11.3095 22.3697 11.4501 22.5103C11.5908 22.651 11.7816 22.73 11.9805 22.73C12.1794 22.73 12.3701 22.651 12.5108 22.5103C12.6515 22.3697 12.7305 22.1789 12.7305 21.98V17.98C12.7305 17.7811 12.6515 17.5903 12.5108 17.4496C12.3701 17.309 12.1794 17.23 11.9805 17.23ZM6.73047 11.98C6.73047 11.7811 6.65145 11.5903 6.5108 11.4497C6.37015 11.309 6.17938 11.23 5.98047 11.23H1.98047C1.78156 11.23 1.59079 11.309 1.45014 11.4497C1.30949 11.5903 1.23047 11.7811 1.23047 11.98C1.23047 12.1789 1.30949 12.3697 1.45014 12.5103C1.59079 12.651 1.78156 12.73 1.98047 12.73H5.98047C6.17938 12.73 6.37015 12.651 6.5108 12.5103C6.65145 12.3697 6.73047 12.1789 6.73047 11.98Z" fill="black"/>
<path d="M12.7305 1.97998V5.97998C12.7305 6.17889 12.6515 6.36966 12.5108 6.51031C12.3701 6.65096 12.1794 6.72998 11.9805 6.72998C11.7816 6.72998 11.5908 6.65096 11.4501 6.51031C11.3095 6.36966 11.2305 6.17889 11.2305 5.97998V1.97998C11.2305 1.78107 11.3095 1.5903 11.4501 1.44965C11.5908 1.309 11.7816 1.22998 11.9805 1.22998C12.1794 1.22998 12.3701 1.309 12.5108 1.44965C12.6515 1.5903 12.7305 1.78107 12.7305 1.97998ZM21.9805 11.23H17.9805C17.7816 11.23 17.5908 11.309 17.4501 11.4497C17.3095 11.5903 17.2305 11.7811 17.2305 11.98C17.2305 12.1789 17.3095 12.3697 17.4501 12.5103C17.5908 12.651 17.7816 12.73 17.9805 12.73H21.9805C22.1794 12.73 22.3701 12.651 22.5108 12.5103C22.6515 12.3697 22.7305 12.1789 22.7305 11.98C22.7305 11.7811 22.6515 11.5903 22.5108 11.4497C22.3701 11.309 22.1794 11.23 21.9805 11.23ZM11.9805 17.23C11.7816 17.23 11.5908 17.309 11.4501 17.4496C11.3095 17.5903 11.2305 17.7811 11.2305 17.98V21.98C11.2305 22.1789 11.3095 22.3697 11.4501 22.5103C11.5908 22.651 11.7816 22.73 11.9805 22.73C12.1794 22.73 12.3701 22.651 12.5108 22.5103C12.6515 22.3697 12.7305 22.1789 12.7305 21.98V17.98C12.7305 17.7811 12.6515 17.5903 12.5108 17.4496C12.3701 17.309 12.1794 17.23 11.9805 17.23ZM6.73047 11.98C6.73047 11.7811 6.65145 11.5903 6.5108 11.4497C6.37015 11.309 6.17938 11.23 5.98047 11.23H1.98047C1.78156 11.23 1.59079 11.309 1.45014 11.4497C1.30949 11.5903 1.23047 11.7811 1.23047 11.98C1.23047 12.1789 1.30949 12.3697 1.45014 12.5103C1.59079 12.651 1.78156 12.73 1.98047 12.73H5.98047C6.17938 12.73 6.37015 12.651 6.5108 12.5103C6.65145 12.3697 6.73047 12.1789 6.73047 11.98Z" fill="black"/>
</svg>
