<svg width="24" height="24" viewBox="0 0 24 24" fill="none" xmlns="http://www.w3.org/2000/svg">
<path d="M4.27781 15.1212C3.55172 15.52 3.28644 16.432 3.6853 17.1581C4.08415 17.8842 4.9961 18.1495 5.72219 17.7506L5 16.4359L4.27781 15.1212ZM5.08765 16.3877L4.78122 14.9194L4.56186 14.9652L4.36546 15.073L5.08765 16.3877ZM11.3976 14.6326L10.8161 13.2499L11.3976 14.6326ZM10.8025 10.6224L9.49411 9.88873L10.8025 10.6224ZM10.1621 14.5029L8.68124 14.7417L10.1621 14.5029ZM19.2231 12.9659L20.2497 14.0596L20.2717 14.039L20.2928 14.0175L19.2231 12.9659ZM19.9061 12.2712L19.3887 10.8633L19.0726 10.9795L18.8365 11.2196L19.9061 12.2712ZM20.5175 13.6446C21.295 13.3588 21.6937 12.4968 21.4079 11.7192C21.1221 10.9417 20.2601 10.543 19.4825 10.8288L20 12.2367L20.5175 13.6446ZM5 16.4359L5.72219 17.7506L5.80983 17.7025L5.08765 16.3877L4.36546 15.073L4.27781 15.1212L5 16.4359ZM5.08765 16.3877L5.39408 17.8561C8.24609 17.2609 10.4636 16.6527 11.9792 16.0153L11.3976 14.6326L10.8161 13.2499C9.57348 13.7725 7.58437 14.3344 4.78122 14.9194L5.08765 16.3877ZM11.3976 14.6326L11.9792 16.0153C13.7532 15.2692 14.9774 13.9496 15.5351 12.1224L14.1004 11.6846L12.6657 11.2467C12.3778 12.1902 11.8002 12.836 10.8161 13.2499L11.3976 14.6326ZM14.1004 11.6846L15.5351 12.1224C15.7821 11.3131 15.9177 10.3958 15.6261 9.54668C15.2902 8.56831 14.5082 8.00371 13.6242 7.78255L13.2602 9.2377L12.8961 10.6929C12.9703 10.7114 12.9523 10.7208 12.9005 10.6772C12.8403 10.6267 12.8029 10.5623 12.7887 10.521C12.7791 10.4929 12.7973 10.5253 12.7888 10.6553C12.7804 10.7853 12.7475 10.9788 12.6657 11.2467L14.1004 11.6846ZM13.2602 9.2377L13.6242 7.78255C12.7921 7.57439 11.9435 7.65804 11.1722 8.09259C10.4419 8.50405 9.90214 9.16108 9.49411 9.88873L10.8025 10.6224L12.1108 11.356C12.3583 10.9147 12.5559 10.7564 12.6448 10.7063C12.6838 10.6843 12.7099 10.6779 12.7319 10.6753C12.7559 10.6724 12.807 10.6706 12.8961 10.6929L13.2602 9.2377ZM10.8025 10.6224L9.49411 9.88873C8.66068 11.375 8.40284 13.015 8.68124 14.7417L10.1621 14.5029L11.643 14.2641C11.4641 13.1548 11.6332 12.2078 12.1108 11.356L10.8025 10.6224ZM10.1621 14.5029L8.68124 14.7417C8.82986 15.6634 9.20932 16.6039 10.0512 17.2146C10.9037 17.833 11.9175 17.8875 12.8364 17.7123L12.5554 16.2389L12.2744 14.7654C11.8264 14.8509 11.7578 14.7464 11.8126 14.7862C11.8567 14.8181 11.723 14.7603 11.643 14.2641L10.1621 14.5029ZM12.5554 16.2389L12.8364 17.7123C14.3705 17.4198 15.846 16.8722 17.2594 16.08L16.526 14.7715L15.7926 13.463C14.6456 14.106 13.4741 14.5366 12.2744 14.7654L12.5554 16.2389ZM16.526 14.7715L17.2594 16.08C18.5582 15.3519 19.5917 14.6772 20.2497 14.0596L19.2231 12.9659L18.1966 11.8722C17.8188 12.2269 17.0542 12.7559 15.7926 13.463L16.526 14.7715ZM19.2231 12.9659L20.2928 14.0175L20.9758 13.3228L19.9061 12.2712L18.8365 11.2196L18.1535 11.9143L19.2231 12.9659ZM19.9061 12.2712L20.4236 13.6791L20.5175 13.6446L20 12.2367L19.4825 10.8288L19.3887 10.8633L19.9061 12.2712Z" fill="black"/>
</svg>
