<svg width="40" height="40" viewBox="0 0 40 40" fill="none" xmlns="http://www.w3.org/2000/svg">
<path d="M20 0C14.6975 0.00582319 9.61376 2.11483 5.8643 5.8643C2.11483 9.61376 0.00582319 14.6975 0 20V36.8C0 37.6487 0.337142 38.4626 0.937258 39.0627C1.53737 39.6629 2.35131 40 3.2 40H20C25.3043 40 30.3914 37.8929 34.1421 34.1421C37.8929 30.3914 40 25.3043 40 20C40 14.6957 37.8929 9.60859 34.1421 5.85786C30.3914 2.10714 25.3043 0 20 0Z" fill="black" fill-opacity="0.05"/>
<path d="M9.11755 24.9909C9.40383 24.9678 10.8038 24.6873 11.624 24.4266C12.4442 24.166 12.8279 23.9147 13.2619 23.6644C13.6958 23.4141 13.8879 23.2819 14.2122 23.0507M14.2122 23.0507C14.464 22.8712 14.5488 22.8145 14.9919 22.4563C15.4349 22.0982 16.2667 21.3621 16.7227 20.8878C17.1787 20.4135 17.2998 20.275 17.6292 19.7015C17.9585 19.1279 18.1884 18.6759 18.3557 18.1084C18.523 17.5409 18.4178 16.0676 18.2975 15.6915C18.1772 15.3154 17.7939 15.1561 17.44 14.9711C17.0861 14.7861 16.6649 14.8766 16.259 14.9895C15.853 15.1024 15.4013 15.5874 15.052 15.9029C14.7027 16.2184 14.4624 16.7027 14.2178 17.1663C13.9731 17.6299 13.9351 17.8404 13.8279 18.2842C13.7206 18.7281 13.6536 18.9719 13.6139 19.8088C13.5742 20.6456 13.6806 21.7028 13.7761 22.0961C13.8716 22.4895 14.032 22.795 14.2122 23.0507ZM14.2122 23.0507C14.3997 23.3167 14.621 23.5411 14.7853 23.7193C14.9496 23.8975 14.8584 23.8831 15.6296 24.1607C16.4007 24.4384 17.3298 24.6733 18.1431 24.6741C18.9564 24.675 20.0239 24.5131 20.3842 24.3463C20.7446 24.1794 21.4784 23.6869 21.8043 23.4378C22.1302 23.1887 21.8855 23.3753 21.9267 23.3429M21.9267 23.3429C22.5083 22.8856 23.1397 22.3076 23.7169 21.7216C24.2942 21.1356 24.6337 20.7504 25.0721 20.2067C25.5106 19.663 25.7602 19.0299 25.8474 18.5722C25.9347 18.1144 25.809 17.7391 25.5842 17.4533C25.3595 17.1675 24.6768 17.099 24.2788 17.1227C23.8808 17.1464 23.2438 17.7813 22.6584 18.4423C22.073 19.1034 22.0946 19.412 21.8632 20.0272C21.6319 20.6424 21.6171 21.4866 21.615 22.1454C21.6129 22.8043 21.7446 23.0451 21.9267 23.3429ZM21.9267 23.3429C22.0635 23.5667 22.1467 23.6606 22.3882 23.9142C22.6297 24.1679 23.4957 24.3613 24.2634 24.3789C25.0311 24.3966 25.9813 24.3161 26.5394 24.2461C27.0974 24.1761 27.1154 24.0954 27.1338 24.0123" stroke="black" stroke-opacity="0.2" stroke-width="2.5" stroke-linecap="round"/>
</svg>
