<svg width="45" height="26" viewBox="0 0 45 26" fill="none" xmlns="http://www.w3.org/2000/svg">
<g filter="url(#filter0_d_2138_811)">
<rect x="2" y="1" width="41" height="22" rx="11" fill="white"/>
</g>
<rect x="3.69" y="2.69" width="37.62" height="18.62" rx="9.31" fill="white" stroke="black" stroke-width="1.38"/>
<path d="M16.57 11.96C16.57 13.61 15.5 14.62 14 14.62C12.5 14.62 11.43 13.61 11.43 11.96C11.43 10.32 12.5 9.3 14 9.3C15.5 9.3 16.57 10.32 16.57 11.96ZM12.71 11.96C12.71 13.03 13.17 13.67 14 13.67C14.82 13.67 15.29 13.03 15.29 11.96C15.29 10.9 14.82 10.25 14 10.25C13.17 10.25 12.71 10.9 12.71 11.96ZM18.7561 13.69V16.28H17.4761V9.42H18.7361V10.26C18.9761 9.75 19.5761 9.3 20.3661 9.3C21.6961 9.3 22.6061 10.39 22.6061 11.96C22.6061 13.54 21.6961 14.62 20.3661 14.62C19.5961 14.62 19.0161 14.2 18.7561 13.69ZM18.7261 11.87V12.05C18.7261 13.04 19.1961 13.68 20.0061 13.68C20.8361 13.68 21.3161 13.01 21.3161 11.96C21.3161 10.92 20.8361 10.24 20.0061 10.24C19.1961 10.24 18.7261 10.88 18.7261 11.87ZM28.114 14.5H26.854V13.65C26.614 14.23 26.034 14.62 25.274 14.62C24.134 14.62 23.464 13.92 23.464 12.69V9.42H24.754V12.41C24.754 13.22 25.074 13.63 25.734 13.63C26.354 13.63 26.824 13.2 26.824 12.18V9.42H28.114V14.5ZM28.9661 12.96H30.1861C30.2461 13.49 30.7761 13.73 31.3261 13.73C31.8661 13.73 32.2861 13.51 32.2861 13.1C32.2861 12.78 32.0661 12.63 31.5061 12.53L30.6061 12.37C29.7661 12.22 29.1461 11.83 29.1461 10.92C29.1461 9.96 30.0261 9.3 31.2061 9.3C32.5261 9.3 33.2761 9.88 33.3861 10.86H32.2161C32.1661 10.46 31.7761 10.2 31.2161 10.2C30.6761 10.2 30.3261 10.44 30.3261 10.79C30.3261 11.14 30.5861 11.27 31.1061 11.36L32.0961 11.53C32.9861 11.68 33.4861 12.17 33.4861 13.01C33.4861 13.98 32.5561 14.62 31.3461 14.62C30.0261 14.62 29.0761 14.07 28.9661 12.96Z" fill="black"/>
<defs>
<filter id="filter0_d_2138_811" x="0" y="0" width="45" height="26" filterUnits="userSpaceOnUse" color-interpolation-filters="sRGB">
<feFlood flood-opacity="0" result="BackgroundImageFix"/>
<feColorMatrix in="SourceAlpha" type="matrix" values="0 0 0 0 0 0 0 0 0 0 0 0 0 0 0 0 0 0 127 0" result="hardAlpha"/>
<feOffset dy="1"/>
<feGaussianBlur stdDeviation="1"/>
<feComposite in2="hardAlpha" operator="out"/>
<feColorMatrix type="matrix" values="0 0 0 0 0 0 0 0 0 0 0 0 0 0 0 0 0 0 0.25 0"/>
<feBlend mode="normal" in2="BackgroundImageFix" result="effect1_dropShadow_2138_811"/>
<feBlend mode="normal" in="SourceGraphic" in2="effect1_dropShadow_2138_811" result="shape"/>
</filter>
</defs>
</svg>
