<svg width="27" height="51" viewBox="0 0 27 51" fill="none" xmlns="http://www.w3.org/2000/svg">
<path d="M12.1262 2.559C12.4469 1.68489 13.6831 1.68489 14.0038 2.55899L16.9737 10.6543H9.15625L12.1262 2.559Z" fill="#F3381A"/>
<path d="M12.1262 2.559C12.4469 1.68489 13.6831 1.68489 14.0038 2.55899L16.9737 10.6543H9.15625L12.1262 2.559Z" fill="url(#paint0_radial_1660_1468)" fill-opacity="0.1"/>
<path d="M12.5957 2.73145C12.756 2.29439 13.3738 2.2944 13.5342 2.73145L16.2578 10.1543H9.87207L12.5957 2.73145Z" stroke="#02061D" stroke-opacity="0.1"/>
<path d="M0 50.6772V35.8205C0 33.4065 0.437028 31.0124 1.28994 28.7541L8.54507 9.54426C8.69205 9.15511 9.06459 8.89758 9.48057 8.89758H16.8015C17.2129 8.89758 17.5824 9.14959 17.7325 9.53265L25.2261 28.6505C26.1376 30.9759 26.6055 33.4515 26.6055 35.9492V50.6772H0Z" fill="#F3F0ED"/>
<path d="M0 50.6772V35.8205C0 33.4065 0.437028 31.0124 1.28994 28.7541L8.54507 9.54426C8.69205 9.15511 9.06459 8.89758 9.48057 8.89758H16.8015C17.2129 8.89758 17.5824 9.14959 17.7325 9.53265L25.2261 28.6505C26.1376 30.9759 26.6055 33.4515 26.6055 35.9492V50.6772H0Z" fill="url(#paint1_linear_1660_1468)"/>
<path d="M0 50.6772V35.8205C0 33.4065 0.437028 31.0124 1.28994 28.7541L8.54507 9.54426C8.69205 9.15511 9.06459 8.89758 9.48057 8.89758H16.8015C17.2129 8.89758 17.5824 9.14959 17.7325 9.53265L25.2261 28.6505C26.1376 30.9759 26.6055 33.4515 26.6055 35.9492V50.6772H0Z" fill="url(#paint2_linear_1660_1468)" fill-opacity="0.3"/>
<path d="M0 50.6772V35.8205C0 33.4065 0.437028 31.0124 1.28994 28.7541L8.54507 9.54426C8.69205 9.15511 9.06459 8.89758 9.48057 8.89758H16.8015C17.2129 8.89758 17.5824 9.14959 17.7325 9.53265L25.2261 28.6505C26.1376 30.9759 26.6055 33.4515 26.6055 35.9492V50.6772H0Z" fill="url(#paint3_linear_1660_1468)"/>
<path d="M0 50.6772V35.8205C0 33.4065 0.437028 31.0124 1.28994 28.7541L8.54507 9.54426C8.69205 9.15511 9.06459 8.89758 9.48057 8.89758H16.8015C17.2129 8.89758 17.5824 9.14959 17.7325 9.53265L25.2261 28.6505C26.1376 30.9759 26.6055 33.4515 26.6055 35.9492V50.6772H0Z" fill="url(#paint4_linear_1660_1468)" fill-opacity="0.2"/>
<path d="M0 50.6772V35.8205C0 33.4065 0.437028 31.0124 1.28994 28.7541L8.54507 9.54426C8.69205 9.15511 9.06459 8.89758 9.48057 8.89758H16.8015C17.2129 8.89758 17.5824 9.14959 17.7325 9.53265L25.2261 28.6505C26.1376 30.9759 26.6055 33.4515 26.6055 35.9492V50.6772H0Z" fill="url(#paint5_linear_1660_1468)" fill-opacity="0.2"/>
<path d="M9.48047 9.39758H16.8018C17.0073 9.39769 17.1915 9.52367 17.2666 9.71497L24.7607 28.8331C25.6494 31.1004 26.1055 33.5142 26.1055 35.9493V50.1769H0.5V35.8204C0.500003 33.4668 0.926224 31.1326 1.75781 28.9308L9.0127 9.72083C9.08618 9.52631 9.27253 9.39763 9.48047 9.39758Z" stroke="#0F1931" stroke-opacity="0.1"/>
<defs>
<radialGradient id="paint0_radial_1660_1468" cx="0" cy="0" r="1" gradientUnits="userSpaceOnUse" gradientTransform="translate(12.9541 1.8003) rotate(89.8034) scale(13.3769 2.25405)">
<stop stop-color="white"/>
<stop offset="1"/>
</radialGradient>
<linearGradient id="paint1_linear_1660_1468" x1="13.5537" y1="30.612" x2="13.5537" y2="39.4077" gradientUnits="userSpaceOnUse">
<stop stop-color="#E3F5FF" stop-opacity="0"/>
<stop offset="1" stop-color="#FBFBFB"/>
</linearGradient>
<linearGradient id="paint2_linear_1660_1468" x1="27.6094" y1="29.879" x2="-1.00398" y2="29.879" gradientUnits="userSpaceOnUse">
<stop/>
<stop offset="0.245082" stop-color="#666666" stop-opacity="0.75"/>
<stop offset="0.294077" stop-color="#666666" stop-opacity="0"/>
<stop offset="0.374934" stop-color="#666666" stop-opacity="0.25"/>
<stop offset="0.623271" stop-color="#666666" stop-opacity="0.1"/>
<stop offset="0.69" stop-color="#666666" stop-opacity="0"/>
<stop offset="0.748823" stop-color="#666666" stop-opacity="0.5"/>
<stop offset="1"/>
</linearGradient>
<linearGradient id="paint3_linear_1660_1468" x1="13.5537" y1="8.9892" x2="13.5537" y2="41.9731" gradientUnits="userSpaceOnUse">
<stop offset="0.01" stop-color="#F4EADE"/>
<stop offset="0.650404" stop-color="#F9F1E7" stop-opacity="0.85"/>
<stop offset="1" stop-color="white" stop-opacity="0"/>
</linearGradient>
<linearGradient id="paint4_linear_1660_1468" x1="10.5418" y1="31.7114" x2="0.516687" y2="28.2785" gradientUnits="userSpaceOnUse">
<stop stop-color="#B2753F" stop-opacity="0"/>
<stop offset="1" stop-color="#B2753F"/>
</linearGradient>
<linearGradient id="paint5_linear_1660_1468" x1="19.5776" y1="28.5963" x2="24.8717" y2="26.9482" gradientUnits="userSpaceOnUse">
<stop stop-color="#B2753F" stop-opacity="0"/>
<stop offset="1" stop-color="#B2753F"/>
</linearGradient>
</defs>
</svg>
