<svg width="40" height="72" viewBox="0 0 40 72" fill="none" xmlns="http://www.w3.org/2000/svg">
<path d="M38 60.5455C38 61.1964 37.7366 61.8208 37.2678 62.2811C36.7989 62.7414 36.163 63 35.5 63H30.5C28.5594 63 26.6455 62.5564 24.9098 61.7043C23.1741 60.8523 21.6643 59.6151 20.5 58.0909C19.3357 59.6151 17.8259 60.8523 16.0902 61.7043C14.3545 62.5564 12.4406 63 10.5 63H5.5C4.83696 63 4.20107 62.7414 3.73223 62.2811C3.26339 61.8208 3 61.1964 3 60.5455C3 59.8945 3.26339 59.2701 3.73223 58.8098C4.20107 58.3495 4.83696 58.0909 5.5 58.0909H10.5C12.4891 58.0909 14.3968 57.3151 15.8033 55.9341C17.2098 54.5532 18 52.6802 18 50.7273V38.4545H13C12.337 38.4545 11.7011 38.1959 11.2322 37.7356C10.7634 37.2753 10.5 36.651 10.5 36C10.5 35.349 10.7634 34.7247 11.2322 34.2644C11.7011 33.8041 12.337 33.5455 13 33.5455H18V21.2727C18 19.3198 17.2098 17.4468 15.8033 16.0659C14.3968 14.6849 12.4891 13.9091 10.5 13.9091H5.5C4.83696 13.9091 4.20107 13.6505 3.73223 13.1902C3.26339 12.7299 3 12.1055 3 11.4545C3 10.8036 3.26339 10.1792 3.73223 9.71892C4.20107 9.2586 4.83696 9 5.5 9H10.5C12.4406 9 14.3545 9.4436 16.0902 10.2957C17.8259 11.1477 19.3357 12.3849 20.5 13.9091C21.6643 12.3849 23.1741 11.1477 24.9098 10.2957C26.6455 9.4436 28.5594 9 30.5 9H35.5C36.163 9 36.7989 9.2586 37.2678 9.71892C37.7366 10.1792 38 10.8036 38 11.4545C38 12.1055 37.7366 12.7299 37.2678 13.1902C36.7989 13.6505 36.163 13.9091 35.5 13.9091H30.5C28.5109 13.9091 26.6032 14.6849 25.1967 16.0659C23.7902 17.4468 23 19.3198 23 21.2727V33.5455H28C28.663 33.5455 29.2989 33.8041 29.7678 34.2644C30.2366 34.7247 30.5 35.349 30.5 36C30.5 36.651 30.2366 37.2753 29.7678 37.7356C29.2989 38.1959 28.663 38.4545 28 38.4545H23V50.7273C23 52.6802 23.7902 54.5532 25.1967 55.9341C26.6032 57.3151 28.5109 58.0909 30.5 58.0909H35.5C36.163 58.0909 36.7989 58.3495 37.2678 58.8098C37.7366 59.2701 38 59.8945 38 60.5455Z" fill="url(#paint0_linear_2040_280)"/>
<path d="M5.5 9.5H10.5C12.3645 9.5 14.2033 9.92586 15.8701 10.7441C17.5369 11.5624 18.9856 12.7507 20.1025 14.2129L20.5 14.7324L20.8975 14.2129C22.0144 12.7507 23.4631 11.5624 25.1299 10.7441C26.7967 9.92586 28.6355 9.5 30.5 9.5H35.5C36.0334 9.5 36.5426 9.70859 36.917 10.0762C37.291 10.4434 37.4999 10.9389 37.5 11.4541C37.5 11.9695 37.2911 12.4657 36.917 12.833C36.5426 13.2006 36.0333 13.4092 35.5 13.4092H30.5C28.3813 13.4092 26.3476 14.2354 24.8467 15.709C23.3455 17.1829 22.5001 19.184 22.5 21.2725V34.0459H28C28.5332 34.0459 29.0426 34.2537 29.417 34.6211C29.7911 34.9884 30 35.4846 30 36C30 36.5154 29.7911 37.0116 29.417 37.3789C29.0426 37.7463 28.5332 37.9541 28 37.9541H22.5V50.7275C22.5001 52.816 23.3455 54.8171 24.8467 56.291C26.3476 57.7646 28.3813 58.5908 30.5 58.5908H35.5C36.0333 58.5908 36.5426 58.7994 36.917 59.167C37.2911 59.5343 37.5 60.0305 37.5 60.5459C37.4999 61.0611 37.291 61.5567 36.917 61.9238C36.5426 62.2914 36.0334 62.5 35.5 62.5H30.5C28.6355 62.5 26.7967 62.0741 25.1299 61.2559C23.4631 60.4376 22.0144 59.2493 20.8975 57.7871L20.5 57.2676L20.1025 57.7871C18.9856 59.2493 17.5369 60.4376 15.8701 61.2559C14.2033 62.0741 12.3645 62.5 10.5 62.5H5.5C4.96664 62.5 4.4574 62.2914 4.08301 61.9238C3.70903 61.5566 3.50012 61.0611 3.5 60.5459C3.5 60.0305 3.70892 59.5343 4.08301 59.167C4.4574 58.7994 4.96666 58.5908 5.5 58.5908H10.5C12.6187 58.5908 14.6524 57.7646 16.1533 56.291C17.6545 54.8171 18.4999 52.816 18.5 50.7275V37.9541H13C12.4668 37.9541 11.9574 37.7463 11.583 37.3789C11.2089 37.0116 11 36.5154 11 36C11 35.4846 11.2089 34.9884 11.583 34.6211C11.9574 34.2537 12.4668 34.0459 13 34.0459H18.5V21.2725C18.4999 19.184 17.6545 17.1829 16.1533 15.709C14.6524 14.2354 12.6187 13.4092 10.5 13.4092H5.5C4.96666 13.4092 4.4574 13.2006 4.08301 12.833C3.70892 12.4657 3.5 11.9695 3.5 11.4541C3.50012 10.9389 3.70903 10.4434 4.08301 10.0762C4.4574 9.70859 4.96664 9.5 5.5 9.5Z" stroke="black" stroke-opacity="0.25"/>
<defs>
<linearGradient id="paint0_linear_2040_280" x1="20.5" y1="9" x2="20.5" y2="63" gradientUnits="userSpaceOnUse">
<stop stop-color="#888888"/>
<stop offset="1" stop-color="#555555"/>
</linearGradient>
</defs>
</svg>
