<svg width="32" height="32" viewBox="0 0 32 32" fill="none" xmlns="http://www.w3.org/2000/svg">
<path d="M24.3923 7.73243C24.1601 7.50023 23.8845 7.31603 23.5812 7.19036C23.2778 7.06468 22.9527 7 22.6243 7C22.296 7 21.9708 7.06468 21.6675 7.19036C21.3641 7.31603 21.0885 7.50023 20.8564 7.73243C20.8454 7.74337 20.8345 7.75509 20.8235 7.76759L16.6509 12.6434L15.8267 11.8168C15.6525 11.6426 15.4458 11.5044 15.2182 11.4101C14.9907 11.3158 14.7468 11.2673 14.5005 11.2673C14.2542 11.2673 14.0103 11.3158 13.7827 11.4101C13.5552 11.5044 13.3484 11.6426 13.1743 11.8168L7.18291 17.809C7.06579 17.9262 7 18.0851 7 18.2508C7 18.4165 7.06579 18.5754 7.18291 18.6926L13.4329 24.9426C13.5501 25.0597 13.709 25.1255 13.8747 25.1255C14.0404 25.1255 14.1993 25.0597 14.3165 24.9426L20.3079 18.9543C20.4821 18.7802 20.6203 18.5734 20.7146 18.3459C20.8089 18.1183 20.8574 17.8744 20.8574 17.6281C20.8574 17.3818 20.8089 17.1379 20.7146 16.9104C20.6203 16.6828 20.4821 16.4761 20.3079 16.302L19.4814 15.4762L24.3571 11.2981C24.3689 11.2871 24.3814 11.2762 24.3923 11.2645C24.8601 10.7958 25.1228 10.1606 25.1228 9.49845C25.1228 8.83627 24.8601 8.20113 24.3923 7.73243ZM13.8735 23.6176L12.5704 22.3137L14.3157 20.5676C14.428 20.4494 14.4897 20.2921 14.4876 20.1291C14.4855 19.9661 14.4198 19.8104 14.3046 19.6952C14.1893 19.5799 14.0336 19.5142 13.8706 19.5122C13.7076 19.5101 13.5503 19.5717 13.4321 19.684L11.686 21.4293L10.6954 20.4387L12.4407 18.6926C12.553 18.5744 12.6147 18.4171 12.6126 18.2541C12.6105 18.0911 12.5448 17.9354 12.4296 17.8202C12.3143 17.7049 12.1586 17.6392 11.9956 17.6372C11.8326 17.6351 11.6753 17.6967 11.5571 17.809L9.81104 19.5543L8.50713 18.2512L12.4407 14.3184L17.8071 19.6848L13.8735 23.6176Z" fill="black"/>
</svg>
