<svg width="32" height="32" viewBox="0 0 32 32" fill="none" xmlns="http://www.w3.org/2000/svg">
<g clip-path="url(#clip0_2040_241)">
<path d="M19.5186 15.4287C19.9402 14.9526 20.7853 14.2083 21.1826 14.498C21.7265 14.8947 20.9568 15.7881 20.6719 16.1416C20.2701 16.6398 19.9629 16.9891 19.4307 17.5293C19.1989 17.7646 18.9562 17.9951 18.7158 18.2168C18.7288 17.2694 18.8655 16.1662 19.5186 15.4287Z" fill="black"/>
<path d="M13.4951 12.2764C14.1263 12.2341 14.1663 12.9925 14.1846 13.4258C14.2041 13.8916 14.1802 14.2634 14.1396 14.4014C13.881 15.2786 13.3942 16.0853 12.7637 16.7412C12.366 17.1547 11.6219 17.8139 11.21 18.1494C11.142 17.79 11.0605 16.9486 11.0928 16.2686C11.1277 15.5337 11.1816 15.3504 11.2764 14.958C11.378 14.5375 11.3968 14.4175 11.582 14.0664C11.9802 13.3118 12.5459 12.3409 13.4951 12.2764Z" fill="black"/>
<path fill-rule="evenodd" clip-rule="evenodd" d="M16 0C24.8366 0 32 7.16344 32 16C32 24.8366 24.8366 32 16 32H4C1.79086 32 0 30.2091 0 28V16C0 7.16344 7.16344 0 16 0ZM14.335 10.9609C13.5075 10.5287 12.4549 10.8672 11.7842 11.4326C10.7791 12.2799 10.1309 13.3112 9.81836 14.6045C9.70899 15.0572 9.63547 15.3397 9.59473 16.1982C9.55043 17.1327 9.56484 18.1938 9.92676 19.0762C9.38253 19.4115 8.83468 19.7211 8.22168 19.916C7.50786 20.1429 6.96112 20.2382 6.21484 20.3203C6.21111 20.3207 6.20801 20.3193 6.20801 20.3193C5.79521 20.3527 5.4873 20.7152 5.52051 21.1279C5.55384 21.5407 5.91538 21.8486 6.32812 21.8154C6.52251 21.7997 6.76661 21.8164 7.22266 21.7178C7.69578 21.6155 8.25088 21.4804 8.6748 21.3457C9.4248 21.1073 10.1085 20.736 10.7725 20.3203C11.7427 21.3645 13.2869 21.6158 14.6562 21.6172C15.9632 21.6185 17.0415 21.3541 18.1201 20.623C18.1318 20.6354 18.1449 20.6473 18.1572 20.6602C18.4349 20.9517 18.8481 21.0862 19.2295 21.1777C20.3708 21.4517 21.5944 21.3476 22.7461 21.2031C23.2589 21.1388 23.8301 20.9678 23.9521 20.3994C24.0418 19.9954 23.7867 19.595 23.3828 19.5049C23.1303 19.4488 22.8779 19.5262 22.7031 19.6914C22.6652 19.6978 22.6185 19.7076 22.5605 19.7148C22.0491 19.779 21.1835 19.8516 20.5029 19.8359C20.1881 19.8287 19.8521 19.785 19.5801 19.7197C19.4941 19.6991 19.4201 19.6759 19.3594 19.6553C19.7453 19.3171 20.1353 18.9502 20.499 18.5811C21.0661 18.0054 21.4068 17.6201 21.8398 17.083C22.3403 16.4623 22.6261 15.7431 22.7305 15.1953C22.9238 14.1796 22.3669 13.1943 21.332 12.9863C19.9912 12.7171 19.233 13.4889 18.3955 14.4346C17.4302 15.5247 17.2184 17.0539 17.2139 18.4561C17.2128 18.8075 17.2459 19.0949 17.3223 19.3535C16.7193 19.7651 16.4564 19.9286 15.7764 20.0293C15.4117 20.0833 15.0007 20.1175 14.6572 20.1172C13.9781 20.1164 12.5007 19.9817 12.0098 19.4492C12.0064 19.4455 12.0034 19.4412 12 19.4375C13.0573 18.59 14.1341 17.6965 14.8184 16.5049C15.142 15.9412 15.394 15.4497 15.5781 14.8252C16.0331 13.2803 15.7623 11.7072 14.335 10.9609Z" fill="black"/>
</g>
<defs>
<clipPath id="clip0_2040_241">
<rect width="32" height="32" fill="white"/>
</clipPath>
</defs>
</svg>
