<svg width="40" height="40" viewBox="0 0 40 40" fill="none" xmlns="http://www.w3.org/2000/svg">
<path d="M23.5186 19.4287C23.9402 18.9526 24.7853 18.2083 25.1826 18.498C25.7265 18.8947 24.9568 19.7881 24.6719 20.1416C24.2701 20.6398 23.9629 20.9891 23.4307 21.5293C23.1989 21.7646 22.9562 21.9951 22.7158 22.2168C22.7288 21.2694 22.8655 20.1662 23.5186 19.4287Z" fill="black"/>
<path d="M17.4951 16.2764C18.1263 16.2341 18.1663 16.9925 18.1846 17.4258C18.2041 17.8916 18.1802 18.2634 18.1396 18.4014C17.881 19.2786 17.3942 20.0853 16.7637 20.7412C16.366 21.1547 15.6219 21.8139 15.21 22.1494C15.142 21.79 15.0605 20.9486 15.0928 20.2686C15.1277 19.5337 15.1816 19.3504 15.2764 18.958C15.378 18.5375 15.3968 18.4175 15.582 18.0664C15.9802 17.3118 16.5459 16.3409 17.4951 16.2764Z" fill="black"/>
<path fill-rule="evenodd" clip-rule="evenodd" d="M20 4C28.8366 4 36 11.1634 36 20C36 28.8366 28.8366 36 20 36H8C5.79086 36 4 34.2091 4 32V20C4 11.1634 11.1634 4 20 4ZM18.335 14.9609C17.5075 14.5287 16.4549 14.8672 15.7842 15.4326C14.7791 16.2799 14.1309 17.3112 13.8184 18.6045C13.709 19.0572 13.6355 19.3397 13.5947 20.1982C13.5504 21.1327 13.5648 22.1938 13.9268 23.0762C13.3825 23.4115 12.8347 23.7211 12.2217 23.916C11.5079 24.1429 10.9611 24.2382 10.2148 24.3203C10.2111 24.3207 10.208 24.3193 10.208 24.3193C9.79521 24.3527 9.4873 24.7152 9.52051 25.1279C9.55384 25.5407 9.91538 25.8486 10.3281 25.8154C10.5225 25.7997 10.7666 25.8164 11.2227 25.7178C11.6958 25.6155 12.2509 25.4804 12.6748 25.3457C13.4248 25.1073 14.1085 24.736 14.7725 24.3203C15.7427 25.3645 17.2869 25.6158 18.6562 25.6172C19.9632 25.6185 21.0415 25.3541 22.1201 24.623C22.1318 24.6354 22.1449 24.6473 22.1572 24.6602C22.4349 24.9517 22.8481 25.0862 23.2295 25.1777C24.3708 25.4517 25.5944 25.3476 26.7461 25.2031C27.2589 25.1388 27.8301 24.9678 27.9521 24.3994C28.0418 23.9954 27.7867 23.595 27.3828 23.5049C27.1303 23.4488 26.8779 23.5262 26.7031 23.6914C26.6652 23.6978 26.6185 23.7076 26.5605 23.7148C26.0491 23.779 25.1835 23.8516 24.5029 23.8359C24.1881 23.8287 23.8521 23.785 23.5801 23.7197C23.4941 23.6991 23.4201 23.6759 23.3594 23.6553C23.7453 23.3171 24.1353 22.9502 24.499 22.5811C25.0661 22.0054 25.4068 21.6201 25.8398 21.083C26.3403 20.4623 26.6261 19.7431 26.7305 19.1953C26.9238 18.1796 26.3669 17.1943 25.332 16.9863C23.9912 16.7171 23.233 17.4889 22.3955 18.4346C21.4302 19.5247 21.2184 21.0539 21.2139 22.4561C21.2128 22.8075 21.2459 23.0949 21.3223 23.3535C20.7193 23.7651 20.4564 23.9286 19.7764 24.0293C19.4117 24.0833 19.0007 24.1175 18.6572 24.1172C17.9781 24.1164 16.5007 23.9817 16.0098 23.4492C16.0064 23.4455 16.0034 23.4412 16 23.4375C17.0573 22.59 18.1341 21.6965 18.8184 20.5049C19.142 19.9412 19.394 19.4497 19.5781 18.8252C20.0331 17.2803 19.7623 15.7072 18.335 14.9609Z" fill="black"/>
</svg>
