<svg width="40" height="72" viewBox="0 0 40 72" fill="none" xmlns="http://www.w3.org/2000/svg">
<mask id="path-1-inside-1_2040_275" fill="white">
<path d="M2 17C2 12.5817 5.58172 9 10 9H32.7888C36.1025 9 38.7888 11.6863 38.7888 15V71.6192H2V17Z"/>
</mask>
<g filter="url(#filter0_iiiiii_2040_275)">
<path d="M2 17C2 12.5817 5.58172 9 10 9H32.7888C36.1025 9 38.7888 11.6863 38.7888 15V71.6192H2V17Z" fill="#FEBFD5"/>
</g>
<path d="M1 17C1 12.0294 5.02944 8 10 8H32.7888C36.6548 8 39.7888 11.134 39.7888 15H37.7888C37.7888 12.2386 35.5502 10 32.7888 10H10C6.13401 10 3 13.134 3 17H1ZM3 17M38.7888 71.6192H2H38.7888M1 71.6192V17C1 12.0294 5.02944 8 10 8V10C6.13401 10 3 13.134 3 17V71.6192H1ZM32.7888 8C36.6548 8 39.7888 11.134 39.7888 15V71.6192H37.7888V15C37.7888 12.2386 35.5502 10 32.7888 10V8Z" fill="#AB5E85" fill-opacity="0.25" mask="url(#path-1-inside-1_2040_275)"/>
<path d="M22.3231 65.194C22.32 65.7016 22.219 66.1464 22.0202 66.5283C21.8115 66.9102 21.5051 67.2043 21.1009 67.4106C20.6968 67.6169 20.2098 67.7188 19.6399 67.7163C19.2075 67.7144 18.7903 67.646 18.3883 67.5111C17.9764 67.3762 17.6041 67.1831 17.2716 66.932C16.939 66.6726 16.6559 66.3676 16.4222 66.0171C16.1885 65.6666 16.0189 65.2789 15.9134 64.854C15.7939 65.1115 15.6305 65.3271 15.4231 65.501C15.2157 65.6748 14.9791 65.8028 14.7133 65.8848C14.4474 65.9669 14.1671 66.0073 13.8724 66.006C13.4302 66.0041 12.9885 65.9273 12.5472 65.7755C12.1059 65.6238 11.7093 65.4016 11.3573 65.1088C10.9956 64.8076 10.7079 64.4444 10.4943 64.019C10.2709 63.5937 10.1608 63.1105 10.1641 62.5696C10.1663 62.2118 10.2272 61.8875 10.3469 61.5968C10.4568 61.306 10.6057 61.0528 10.7937 60.8373C10.9818 60.6134 11.199 60.4354 11.4455 60.3034C11.4947 60.2869 11.544 60.2705 11.5932 60.2541C11.6326 60.2376 11.6914 60.267 11.7695 60.3422C11.8085 60.4007 11.8229 60.4506 11.8128 60.4922C11.7929 60.5337 11.7583 60.5669 11.7091 60.5916C11.344 60.8397 11.072 61.1339 10.893 61.4743C10.7043 61.8064 10.6085 62.2054 10.6057 62.6714C10.603 63.1124 10.6939 63.5123 10.8785 63.8709C11.063 64.2296 11.3117 64.5385 11.6245 64.7979C11.9276 65.0489 12.2704 65.2459 12.6527 65.389C13.0351 65.5239 13.4327 65.5922 13.8454 65.594C14.1991 65.5955 14.5237 65.5387 14.8192 65.4234C15.1049 65.2999 15.3321 65.1095 15.5007 64.8522C15.6595 64.5949 15.7401 64.2707 15.7425 63.8796L15.7504 62.5815C15.7506 62.5399 15.7704 62.5108 15.8098 62.4944C15.8394 62.4778 15.8935 62.4781 15.972 62.4951C16.0309 62.5036 16.0799 62.5288 16.1189 62.5706C16.1482 62.604 16.1627 62.6415 16.1624 62.6831L16.1548 63.9438C16.1518 64.4348 16.2424 64.8846 16.4266 65.2931C16.6109 65.7017 16.8642 66.0565 17.1866 66.3575C17.4992 66.6584 17.8614 66.893 18.2731 67.0612C18.6848 67.2211 19.1216 67.3021 19.5834 67.3041C20.0846 67.3063 20.5125 67.2208 20.8673 67.0476C21.2123 66.866 21.4743 66.6133 21.6531 66.2896C21.832 65.9575 21.9228 65.5751 21.9254 65.1424C21.9258 65.0758 21.9604 65.0385 22.0293 65.0305C22.0883 65.0141 22.1521 65.0227 22.2207 65.0563C22.2893 65.0815 22.3235 65.1274 22.3231 65.194Z" fill="#1E1E1E"/>
<path d="M22.3231 65.1882C22.3227 65.2547 22.2881 65.292 22.2192 65.3001C22.1504 65.3081 22.0866 65.2995 22.0278 65.2743C21.9591 65.249 21.925 65.2031 21.9254 65.1365C21.9288 64.5873 21.8142 64.0417 21.5816 63.4998C21.3392 62.9661 20.9935 62.4528 20.5445 61.9599C20.0856 61.4669 19.5381 61.0152 18.9019 60.6046C18.2559 60.1857 17.531 59.8164 16.7272 59.4967C16.6487 59.4714 16.5998 59.4379 16.5804 59.3962C16.5512 59.3461 16.5417 59.3003 16.5517 59.2588C16.552 59.2088 16.5719 59.1756 16.6113 59.1592C16.6507 59.1427 16.6998 59.1471 16.7586 59.1723C17.6116 59.4922 18.3806 59.8701 19.0658 60.3058C19.751 60.7415 20.3377 61.2184 20.8259 61.7364C21.3141 62.2545 21.689 62.8054 21.9508 63.3891C22.2027 63.9727 22.3268 64.5724 22.3231 65.1882Z" fill="#1E1E1E"/>
<path d="M22.3733 56.9249C22.3723 57.083 22.342 57.2327 22.2821 57.3739C22.2322 57.5068 22.1431 57.6188 22.0148 57.7098C21.8865 57.8007 21.7191 57.8541 21.5127 57.8698C21.2964 57.8855 21.0264 57.8511 20.7026 57.7665C20.5064 57.7157 20.2907 57.644 20.0554 57.5514C19.8103 57.4588 19.5603 57.3662 19.3054 57.2735C19.0505 57.1726 18.7956 57.0799 18.5406 56.9956C18.2857 56.9029 18.0454 56.8312 17.8197 56.7802C17.3683 56.6784 17.0636 56.6854 16.9057 56.8012C16.7478 56.917 16.6682 57.079 16.6669 57.287C16.6659 57.4451 16.6992 57.6325 16.7667 57.8492C16.8341 58.0658 16.9064 58.3075 16.9833 58.5741C17.0505 58.8407 17.0831 59.1321 17.0812 59.4483C17.08 59.6397 17.0299 59.8018 16.9309 59.9345C16.8318 60.0589 16.7084 60.154 16.5606 60.22C16.4031 60.2775 16.2506 60.306 16.1032 60.3053C15.8379 60.3042 15.6368 60.2451 15.4999 60.128C15.3533 60.0108 15.2804 59.869 15.2814 59.7026C15.2827 59.4946 15.3622 59.3451 15.52 59.2543C15.6679 59.1634 15.8549 59.1142 16.081 59.1069C16.307 59.0996 16.5231 59.1213 16.7291 59.1721C16.7303 58.9891 16.7067 58.8184 16.6586 58.6601C16.6104 58.4934 16.5574 58.3309 16.4994 58.1725C16.4316 58.0141 16.3785 57.8558 16.3401 57.6975C16.292 57.5392 16.2684 57.3727 16.2695 57.1979C16.2707 56.9899 16.3258 56.8153 16.4348 56.6744C16.5438 56.525 16.7212 56.4301 16.9671 56.3896C17.2033 56.3407 17.5274 56.3629 17.9395 56.4562C18.1554 56.5071 18.3859 56.5747 18.6311 56.659C18.8762 56.7432 19.1262 56.8359 19.3811 56.9368C19.6262 57.0295 19.8713 57.1221 20.1164 57.2147C20.3517 57.2989 20.5773 57.3665 20.7932 57.4173C21.215 57.5274 21.5147 57.5328 21.6922 57.4337C21.8697 57.3346 21.9593 57.1312 21.9612 56.8233C21.9617 56.7484 21.9963 56.7028 22.0652 56.6864C22.1341 56.6701 22.2028 56.6828 22.2713 56.7248C22.3399 56.7583 22.3739 56.8251 22.3733 56.9249ZM16.7418 59.5092C16.5652 59.4669 16.3934 59.4453 16.2263 59.4446C16.0495 59.4438 15.9069 59.464 15.7985 59.5051C15.6902 59.5379 15.6358 59.6043 15.6352 59.7041C15.6347 59.7873 15.6736 59.8541 15.7519 59.9044C15.8302 59.9546 15.9479 59.9801 16.1052 59.9808C16.2526 59.9814 16.3904 59.9446 16.5185 59.8703C16.6467 59.7959 16.7212 59.6756 16.7418 59.5092Z" fill="#1E1E1E"/>
<path d="M22.3732 56.9361C22.3727 57.0193 22.338 57.0691 22.2692 57.0855C22.2002 57.1101 22.1315 57.0974 22.063 57.0471C21.9945 57.0052 21.9606 56.9302 21.9612 56.822C21.963 56.5224 21.8665 56.2349 21.6717 55.9594C21.4768 55.684 21.2277 55.4416 20.9244 55.2322C20.6112 55.0228 20.2977 54.8675 19.9839 54.7662C19.9152 54.741 19.8811 54.7034 19.8814 54.6534C19.8817 54.6035 19.9065 54.562 19.9558 54.5289C20.0052 54.4875 20.0642 54.4795 20.1329 54.5047C20.4074 54.6058 20.6817 54.736 20.9559 54.8953C21.2203 55.0462 21.46 55.222 21.6749 55.4227C21.8899 55.6234 22.0605 55.8488 22.1867 56.099C22.3129 56.3575 22.3751 56.6366 22.3732 56.9361Z" fill="#1E1E1E"/>
<path d="M22.3942 53.491C22.3915 53.9237 22.2126 54.26 21.8574 54.4998C21.4924 54.7395 21.0053 54.8581 20.396 54.8554C19.9637 54.8535 19.5022 54.7933 19.0116 54.6746C18.5112 54.5476 18.0407 54.3583 17.6001 54.1068C17.1496 53.8468 16.7832 53.5165 16.5006 53.1158C16.2182 52.7068 16.0786 52.2194 16.0821 51.6535C16.0835 51.4122 16.1391 51.1628 16.2488 50.9053C16.3486 50.6478 16.4924 50.4196 16.6804 50.2207L17.0482 50.3346C16.8205 50.6082 16.6716 50.8572 16.6014 51.0816C16.5215 51.306 16.4809 51.518 16.4796 51.7177C16.4768 52.1837 16.6021 52.5878 16.8555 52.9301C17.0991 53.2724 17.4216 53.5567 17.8231 53.7832C18.2247 54.0013 18.6511 54.1654 19.1025 54.2756C19.5539 54.3774 19.981 54.4292 20.3839 54.4309C20.6983 54.4323 20.9786 54.4003 21.2246 54.3347C21.4609 54.2609 21.6483 54.1494 21.7868 54.0002C21.9155 53.8426 21.9805 53.6473 21.9819 53.4143C21.9833 53.1813 21.9209 52.9397 21.7947 52.6895C21.6685 52.4393 21.4588 52.1888 21.1655 51.9378C20.8624 51.6869 20.4561 51.4438 19.9465 51.2085L20.3892 51.1231C20.9478 51.3835 21.3735 51.6641 21.6665 51.965C21.9497 52.2575 22.1396 52.5371 22.2362 52.8038C22.3427 53.0706 22.3953 53.2996 22.3942 53.491ZM22.4115 50.6326C22.4105 50.8073 22.3702 50.9653 22.2907 51.1064C22.2212 51.2393 22.1124 51.3428 21.9646 51.4171C21.8167 51.4913 21.6396 51.5321 21.4332 51.5396C21.217 51.5469 20.9765 51.5126 20.7116 51.4366L16.312 50.2066C16.2433 50.1896 16.1992 50.1645 16.1798 50.1311C16.1505 50.0977 16.136 50.0477 16.1365 49.9811C16.137 49.8979 16.1618 49.8481 16.2111 49.8317C16.2603 49.8152 16.3192 49.8155 16.3879 49.8324L20.7728 51.0623C21.2045 51.1807 21.5189 51.1821 21.7161 51.0665C21.9036 50.9424 21.9981 50.7598 21.9995 50.5185C21.9999 50.4602 22.0345 50.4229 22.1034 50.4066C22.1723 50.3902 22.241 50.403 22.3095 50.4449C22.3781 50.4785 22.4121 50.5411 22.4115 50.6326Z" fill="#1E1E1E"/>
<path d="M22.4118 50.5975C22.4112 50.6807 22.3766 50.7263 22.3077 50.7343C22.2389 50.7424 22.1703 50.7213 22.1018 50.671C22.0332 50.6291 21.9992 50.5666 21.9997 50.4834C22.0013 50.2254 21.8606 49.9335 21.5776 49.6077C21.2848 49.2819 20.884 48.9431 20.3751 48.5914C19.8565 48.2313 19.2593 47.8792 18.5833 47.5351C17.9075 47.1826 17.1872 46.8591 16.4225 46.5645C16.3539 46.5392 16.3246 46.5016 16.3348 46.4518C16.3351 46.4018 16.3648 46.3645 16.4239 46.3398C16.4732 46.3067 16.5518 46.3112 16.6596 46.3533C17.4733 46.6648 18.2329 46.9968 18.9382 47.3494C19.6337 47.7019 20.2457 48.0666 20.774 48.4433C21.2926 48.8118 21.6982 49.1755 21.9908 49.5346C22.2735 49.902 22.4138 50.2563 22.4118 50.5975Z" fill="#1E1E1E"/>
<path d="M22.4453 45.0803C22.4445 45.2135 22.4289 45.3549 22.3985 45.5045C22.3681 45.6542 22.3425 45.8288 22.3216 46.0285C22.3106 46.2198 22.3289 46.4446 22.3765 46.7028L22.1716 46.4522C22.0849 46.1689 22.0372 45.944 22.0283 45.7775C22.0097 45.6027 22.0057 45.4571 22.0163 45.3406C22.0268 45.2158 22.0325 45.091 22.0333 44.9662C22.0338 44.883 22.0685 44.8332 22.1374 44.8169C22.2063 44.7922 22.275 44.805 22.3435 44.8552C22.412 44.8971 22.4459 44.9722 22.4453 45.0803ZM22.4479 47.0776C22.4462 47.3605 22.4004 47.6183 22.3105 47.8509C22.2207 48.0835 22.1066 48.2578 21.9683 48.3737C21.919 48.4067 21.8698 48.4232 21.8206 48.4229C21.7617 48.4144 21.7127 48.3933 21.6736 48.3599C21.615 48.3097 21.5858 48.268 21.586 48.2347C21.5862 48.1931 21.616 48.1391 21.6754 48.0728C21.7843 47.9318 21.8737 47.7741 21.9436 47.5996C22.0036 47.4251 22.0342 47.2422 22.0353 47.0508C22.0381 46.5931 21.8978 46.2347 21.6144 45.9755C21.331 45.7163 20.929 45.5855 20.4082 45.5832C20.1723 45.5822 19.9609 45.6063 19.7739 45.6554C19.5771 45.7044 19.3949 45.7702 19.2274 45.8527C19.0599 45.9269 18.8923 46.0094 18.7247 46.1002C18.5473 46.1826 18.3601 46.265 18.1631 46.3474C17.9661 46.4214 17.7447 46.4829 17.4987 46.5317C17.2528 46.5806 16.9676 46.6043 16.6434 46.6029C16.3879 46.6018 16.1964 46.576 16.069 46.5255C15.9317 46.475 15.8636 46.3748 15.8645 46.225C15.8649 46.1584 15.8848 46.1128 15.9243 46.088C15.9637 46.0632 16.008 46.0509 16.0572 46.0511C16.1259 46.0514 16.2094 46.0684 16.3074 46.1021C16.3957 46.1358 16.5377 46.2113 16.7335 46.3287C17.0874 46.3052 17.3972 46.2525 17.663 46.1704C17.9191 46.08 18.1555 45.9812 18.3723 45.874C18.5794 45.7584 18.7815 45.651 18.9786 45.552C19.1758 45.4447 19.3925 45.3583 19.6287 45.2927C19.8552 45.2188 20.1158 45.1825 20.4106 45.1838C21.0395 45.1866 21.5396 45.3593 21.9109 45.7021C22.2724 46.0449 22.4514 46.5034 22.4479 47.0776Z" fill="#1E1E1E"/>
<path d="M22.4452 45.0999C22.4447 45.1832 22.41 45.2288 22.3412 45.2368C22.2723 45.2448 22.2037 45.2237 22.1352 45.1735C22.0667 45.1316 22.0326 45.069 22.0331 44.9858C22.0353 44.628 21.959 44.249 21.8042 43.8489C21.6494 43.4571 21.4355 43.0734 21.1627 42.6977C21.1237 42.6393 21.124 42.5893 21.1636 42.5479C21.2032 42.4981 21.2574 42.4693 21.3263 42.4612C21.3853 42.4532 21.4391 42.4825 21.4878 42.5493C21.7899 42.9667 22.028 43.4005 22.2022 43.8506C22.3665 44.3007 22.4475 44.7171 22.4452 45.0999Z" fill="#1E1E1E"/>
<path d="M21.2067 42.7353C21.0216 42.4599 20.8169 42.1969 20.5924 41.9463C20.3581 41.6956 20.1138 41.4657 19.8596 41.2565C19.5174 40.9804 19.1454 40.7416 18.7438 40.5401C18.3421 40.3387 17.9153 40.237 17.4633 40.235C17.1587 40.2337 16.9323 40.2992 16.7841 40.4317C16.6261 40.5559 16.5463 40.7511 16.5447 41.0174C16.5443 41.0756 16.5244 41.1172 16.485 41.1419C16.4455 41.1667 16.4012 41.1749 16.3521 41.1663C16.2932 41.1578 16.2443 41.1326 16.2052 41.0908C16.1662 41.049 16.1468 40.999 16.1472 40.9408C16.1489 40.6578 16.2092 40.4376 16.3281 40.28C16.4371 40.1223 16.5901 40.0107 16.787 39.9449C16.9741 39.8792 17.1905 39.8468 17.4361 39.8479C17.7702 39.8494 18.0942 39.9049 18.4079 40.0144C18.7218 40.1156 19.0206 40.2543 19.3045 40.4302C19.5885 40.5979 19.8527 40.7821 20.0971 40.9829C20.3709 41.2088 20.6347 41.4596 20.8885 41.7353C21.1325 42.011 21.3518 42.2949 21.5466 42.587L21.2067 42.7353Z" fill="#1E1E1E"/>
<path d="M22.4843 41.0873C22.4827 41.3453 22.4173 41.5947 22.2881 41.8354C22.1687 42.0846 21.9905 42.3002 21.7536 42.4822C21.5068 42.6725 21.2061 42.821 20.8518 42.9277C20.4973 43.0426 20.0941 43.0991 19.6421 43.0971C19.2687 43.0955 18.8808 43.0481 18.4785 42.9548C18.0664 42.8614 17.684 42.7224 17.3314 42.5378C16.9787 42.3615 16.6951 42.1398 16.4805 41.8726C16.2561 41.6053 16.145 41.2927 16.1472 40.9349C16.1476 40.8683 16.1675 40.8226 16.207 40.7979C16.2464 40.7814 16.2956 40.7774 16.3545 40.786C16.4035 40.7946 16.4476 40.8155 16.4867 40.849C16.5258 40.8908 16.5451 40.945 16.5447 41.0115C16.5429 41.3028 16.6446 41.5529 16.8497 41.7618C17.0547 41.9791 17.3189 42.1591 17.6423 42.302C17.9559 42.4449 18.2943 42.5504 18.6574 42.6185C19.0107 42.6949 19.3348 42.7338 19.6295 42.7351C20.0226 42.7368 20.3717 42.6926 20.6769 42.6023C20.982 42.5121 21.2383 42.3884 21.4456 42.2312C21.6529 42.074 21.8112 41.8916 21.9206 41.6841C22.0299 41.4848 22.0852 41.277 22.0865 41.0606C22.0893 40.603 21.9003 40.1611 21.5197 39.735C21.1292 39.3089 20.5519 38.9028 19.7878 38.5167C19.0139 38.1222 18.0531 37.7643 16.9054 37.4431C16.8171 37.4177 16.7731 37.3759 16.7735 37.3177C16.764 37.2594 16.7889 37.2096 16.8481 37.1682C16.8975 37.1268 16.9712 37.1188 17.0694 37.1442C18.2858 37.4824 19.2956 37.8613 20.0988 38.2809C20.9021 38.6921 21.5037 39.1316 21.9037 39.5994C22.2939 40.0754 22.4874 40.5714 22.4843 41.0873Z" fill="#1E1E1E"/>
<path d="M22.505 35.2456C22.5038 35.4453 22.4587 35.5991 22.3696 35.7069C22.2805 35.8146 22.1572 35.889 21.9997 35.9299C21.8423 35.9625 21.6654 35.9701 21.469 35.9526C21.2628 35.9267 21.0518 35.8842 20.836 35.825C20.5711 35.7489 20.272 35.6478 19.9387 35.5215C19.6054 35.3952 19.2671 35.2689 18.924 35.1426C18.5809 35.008 18.2572 34.9067 17.953 34.8388C17.6095 34.7707 17.3344 34.7654 17.1277 34.8227C16.9111 34.88 16.802 35.0543 16.8002 35.3456C16.7989 35.5619 16.832 35.7743 16.8995 35.9826C16.9671 36.1909 17.0394 36.4159 17.1165 36.6576C17.1838 36.8992 17.2165 37.1781 17.2146 37.4944C17.2135 37.6858 17.1633 37.8478 17.0643 37.9805C16.9652 38.1049 16.8418 38.2001 16.694 38.266C16.5365 38.3236 16.384 38.352 16.2366 38.3514C15.9713 38.3502 15.7702 38.2911 15.6334 38.174C15.4867 38.0569 15.4138 37.9151 15.4148 37.7487C15.4161 37.5406 15.4956 37.3912 15.6534 37.3003C15.8014 37.2094 15.9884 37.1603 16.2144 37.153C16.4405 37.1456 16.6565 37.1674 16.8625 37.2182C16.8439 37.0517 16.8154 36.8851 16.7771 36.7185C16.729 36.5519 16.6809 36.3894 16.6327 36.2311C16.5748 36.0644 16.5266 35.8978 16.4884 35.7312C16.4501 35.5562 16.4315 35.3814 16.4326 35.2066C16.4341 34.957 16.5089 34.7701 16.6571 34.6459C16.8052 34.5217 17.0022 34.4518 17.2479 34.4363C17.4937 34.4124 17.7687 34.4385 18.0729 34.5148C18.2887 34.5656 18.5193 34.6332 18.7644 34.7175C18.9997 34.8017 19.2448 34.8944 19.4997 34.9953C19.7546 35.088 20.0046 35.1806 20.2497 35.2732C20.485 35.3575 20.7106 35.425 20.9265 35.4759C21.26 35.5689 21.5399 35.6034 21.766 35.5794C21.9922 35.5471 22.106 35.4228 22.1073 35.2064C22.108 35.0899 22.0743 34.9774 22.0062 34.8689C21.9283 34.7521 21.8307 34.6476 21.7133 34.5556C21.596 34.4552 21.4736 34.3756 21.3463 34.3168C21.2972 34.3 21.2581 34.2707 21.2289 34.2289C21.1997 34.1872 21.2049 34.1373 21.2445 34.0792C21.2645 34.0294 21.304 34.0004 21.363 33.9924C21.4122 33.9759 21.4662 33.9845 21.525 34.018C21.6915 34.102 21.853 34.2025 22.0095 34.3197C22.1562 34.4369 22.2733 34.5705 22.3608 34.7207C22.4582 34.8709 22.5063 35.0459 22.505 35.2456ZM16.8752 37.5553C16.6986 37.5129 16.5268 37.4914 16.3597 37.4906C16.1829 37.4899 16.0403 37.51 15.9319 37.5512C15.8236 37.584 15.7692 37.6503 15.7686 37.7502C15.7681 37.8334 15.807 37.9002 15.8853 37.9504C15.9636 38.0007 16.0814 38.0262 16.2386 38.0269C16.386 38.0275 16.5238 37.9907 16.652 37.9163C16.7801 37.842 16.8546 37.7216 16.8752 37.5553Z" fill="#1E1E1E"/>
<path d="M29.0869 41.9868V43.2604H27.3222V42.0115H27.5566V42.9889H28.0577V42.1324H28.2922V42.9889H28.8525V41.9868H29.0869Z" fill="#1E1E1E"/>
<path d="M29.0869 41.4607V41.7322H27.3222V40.9967C27.3222 40.6067 27.5048 40.3969 27.8306 40.3969C28.0552 40.3969 28.2181 40.5327 28.2626 40.7277H28.2675C28.344 40.318 29.04 40.4685 29.0697 40.3723H29.0869V40.6635C29.0129 40.7425 28.3958 40.5747 28.3958 41.0066V41.4607H29.0869ZM28.1614 41.4607V41.056C28.1614 40.8067 28.0528 40.6709 27.8504 40.6709C27.6603 40.6709 27.5566 40.7795 27.5566 41.051V41.4607H28.1614Z" fill="#1E1E1E"/>
<path d="M29.0869 39.9915V40.2779L27.3222 39.6213V39.3276L29.0869 38.6661V38.9623L28.6624 39.1079V39.8459L29.0869 39.9915ZM27.5739 39.4782L28.4329 39.7645V39.1844L27.5739 39.4732V39.4782Z" fill="#1E1E1E"/>
<path d="M29.1215 37.8625C29.1215 38.3093 28.8895 38.6227 28.4921 38.6425V38.3611C28.729 38.3414 28.8895 38.2007 28.8895 37.8699C28.8895 37.5861 28.7661 37.4997 28.6056 37.4997C28.381 37.4997 28.3489 37.6725 28.2675 37.9933C28.1934 38.2698 28.1046 38.5734 27.7689 38.5734C27.4629 38.5734 27.2876 38.3364 27.2876 37.9563C27.2876 37.554 27.4925 37.2924 27.8479 37.2652V37.5466C27.6356 37.5762 27.5196 37.6972 27.5196 37.9538C27.5196 38.176 27.6011 38.2895 27.7541 38.2895C27.9516 38.2895 27.9935 38.1044 28.0503 37.8773C28.1367 37.5367 28.2181 37.2159 28.5908 37.2159C28.8944 37.2159 29.1215 37.4207 29.1215 37.8625Z" fill="#1E1E1E"/>
<path d="M29.0869 35.6934V36.967H27.3222V35.7181H27.5566V36.6955H28.0577V35.839H28.2922V36.6955H28.8525V35.6934H29.0869Z" fill="#1E1E1E"/>
<path d="M29.0869 35.1673V35.4388H27.3222V34.7033C27.3222 34.3133 27.5048 34.1035 27.8306 34.1035C28.0552 34.1035 28.2181 34.2393 28.2626 34.4343H28.2675C28.344 34.0245 29.04 34.1751 29.0697 34.0788H29.0869V34.3701C29.0129 34.4491 28.3958 34.2812 28.3958 34.7132V35.1673H29.0869ZM28.1614 35.1673V34.7625C28.1614 34.5132 28.0528 34.3775 27.8504 34.3775C27.6603 34.3775 27.5566 34.4861 27.5566 34.7576V35.1673H28.1614Z" fill="#1E1E1E"/>
<defs>
<filter id="filter0_iiiiii_2040_275" x="0" y="9" width="44.7891" height="70.6191" filterUnits="userSpaceOnUse" color-interpolation-filters="sRGB">
<feFlood flood-opacity="0" result="BackgroundImageFix"/>
<feBlend mode="normal" in="SourceGraphic" in2="BackgroundImageFix" result="shape"/>
<feColorMatrix in="SourceAlpha" type="matrix" values="0 0 0 0 0 0 0 0 0 0 0 0 0 0 0 0 0 0 127 0" result="hardAlpha"/>
<feOffset dx="6" dy="6"/>
<feGaussianBlur stdDeviation="3"/>
<feComposite in2="hardAlpha" operator="arithmetic" k2="-1" k3="1"/>
<feColorMatrix type="matrix" values="0 0 0 0 1 0 0 0 0 1 0 0 0 0 1 0 0 0 0.5 0"/>
<feBlend mode="normal" in2="shape" result="effect1_innerShadow_2040_275"/>
<feColorMatrix in="SourceAlpha" type="matrix" values="0 0 0 0 0 0 0 0 0 0 0 0 0 0 0 0 0 0 127 0" result="hardAlpha"/>
<feMorphology radius="4" operator="erode" in="SourceAlpha" result="effect2_innerShadow_2040_275"/>
<feOffset/>
<feGaussianBlur stdDeviation="4"/>
<feComposite in2="hardAlpha" operator="arithmetic" k2="-1" k3="1"/>
<feColorMatrix type="matrix" values="0 0 0 0 0.996078 0 0 0 0 0.74902 0 0 0 0 0.835294 0 0 0 1 0"/>
<feBlend mode="normal" in2="effect1_innerShadow_2040_275" result="effect2_innerShadow_2040_275"/>
<feColorMatrix in="SourceAlpha" type="matrix" values="0 0 0 0 0 0 0 0 0 0 0 0 0 0 0 0 0 0 127 0" result="hardAlpha"/>
<feOffset dy="-112"/>
<feGaussianBlur stdDeviation="5.05"/>
<feComposite in2="hardAlpha" operator="arithmetic" k2="-1" k3="1"/>
<feColorMatrix type="matrix" values="0 0 0 0 0.996078 0 0 0 0 0.74902 0 0 0 0 0.835294 0 0 0 1 0"/>
<feBlend mode="normal" in2="effect2_innerShadow_2040_275" result="effect3_innerShadow_2040_275"/>
<feColorMatrix in="SourceAlpha" type="matrix" values="0 0 0 0 0 0 0 0 0 0 0 0 0 0 0 0 0 0 127 0" result="hardAlpha"/>
<feOffset dy="40"/>
<feGaussianBlur stdDeviation="4"/>
<feComposite in2="hardAlpha" operator="arithmetic" k2="-1" k3="1"/>
<feColorMatrix type="matrix" values="0 0 0 0 1 0 0 0 0 1 0 0 0 0 1 0 0 0 0.12 0"/>
<feBlend mode="normal" in2="effect3_innerShadow_2040_275" result="effect4_innerShadow_2040_275"/>
<feColorMatrix in="SourceAlpha" type="matrix" values="0 0 0 0 0 0 0 0 0 0 0 0 0 0 0 0 0 0 127 0" result="hardAlpha"/>
<feOffset dy="12"/>
<feGaussianBlur stdDeviation="1"/>
<feComposite in2="hardAlpha" operator="arithmetic" k2="-1" k3="1"/>
<feColorMatrix type="matrix" values="0 0 0 0 1 0 0 0 0 0.515967 0 0 0 0 0.680857 0 0 0 0.3 0"/>
<feBlend mode="normal" in2="effect4_innerShadow_2040_275" result="effect5_innerShadow_2040_275"/>
<feColorMatrix in="SourceAlpha" type="matrix" values="0 0 0 0 0 0 0 0 0 0 0 0 0 0 0 0 0 0 127 0" result="hardAlpha"/>
<feMorphology radius="3" operator="erode" in="SourceAlpha" result="effect6_innerShadow_2040_275"/>
<feOffset dx="-2"/>
<feGaussianBlur stdDeviation="1.5"/>
<feComposite in2="hardAlpha" operator="arithmetic" k2="-1" k3="1"/>
<feColorMatrix type="matrix" values="0 0 0 0 1 0 0 0 0 0.515967 0 0 0 0 0.680857 0 0 0 0.15 0"/>
<feBlend mode="normal" in2="effect5_innerShadow_2040_275" result="effect6_innerShadow_2040_275"/>
</filter>
</defs>
</svg>
