<svg width="24" height="24" viewBox="0 0 24 24" fill="none" xmlns="http://www.w3.org/2000/svg">
<path d="M3.4844 14.8588C2.76368 15.6958 2.85799 16.9586 3.69503 17.6794C4.53208 18.4001 5.79489 18.3058 6.5156 17.4687L5 16.1638L3.4844 14.8588ZM5.06525 16.088L4.50846 14.167L3.93751 14.3325L3.54964 14.783L5.06525 16.088ZM17.6027 13.1652L18.812 14.7583L17.6027 13.1652ZM19.3183 12.1748L21.3066 11.9588L21.2631 11.5583L21.0679 11.2059L19.3183 12.1748ZM19.3407 12.3812L17.3524 12.5973L17.5221 14.1586L19.079 14.364L19.3407 12.3812ZM19.1782 14.3771C20.2733 14.5216 21.2781 13.7511 21.4227 12.656C21.5672 11.5609 20.7966 10.556 19.7015 10.4115L19.4399 12.3943L19.1782 14.3771ZM5 16.1638L6.5156 17.4687L6.58085 17.3929L5.06525 16.088L3.54964 14.783L3.4844 14.8588L5 16.1638ZM5.06525 16.088L5.62204 18.0089C9.37246 16.9218 12.3208 15.5779 14.0181 13.7854L12.5658 12.4103L11.1136 11.0352C10.1944 12.006 8.14236 13.1138 4.50846 14.167L5.06525 16.088ZM12.5658 12.4103L14.0181 13.7854C14.8066 12.9527 15.5169 11.8919 15.6011 10.6299C15.6946 9.23112 14.9963 8.12583 14.0793 7.36295L12.8002 8.90047L11.5212 10.438C11.6508 10.5459 11.6645 10.5927 11.6479 10.5598C11.6237 10.5117 11.6053 10.4343 11.61 10.3634C11.6137 10.308 11.6265 10.3346 11.559 10.459C11.4898 10.5864 11.3558 10.7794 11.1136 11.0352L12.5658 12.4103ZM12.8002 8.90047L14.0793 7.36295C13.2366 6.66188 12.1727 6.15967 10.9431 6.24778C9.73544 6.33433 8.7471 6.96437 7.98181 7.7335L9.39956 9.14417L10.8173 10.5548C11.1672 10.2032 11.3032 10.2322 11.2291 10.2376C11.198 10.2398 11.1897 10.2311 11.2232 10.2439C11.2647 10.2598 11.365 10.3081 11.5212 10.438L12.8002 8.90047ZM9.39956 9.14417L7.98181 7.7335C7.15976 8.55968 6.59533 9.5811 6.46472 10.7787C6.33685 11.9512 6.6476 13.0813 7.18524 14.1122L8.9586 13.1874L10.7319 12.2627C10.4484 11.7189 10.422 11.3877 10.4411 11.2124C10.4575 11.0623 10.5242 10.8494 10.8173 10.5548L9.39956 9.14417ZM8.9586 13.1874L7.18524 14.1122C7.76847 15.2306 8.63331 16.1411 9.82183 16.6505C10.987 17.1499 12.2525 17.1737 13.4953 16.9228L13.0996 14.9624L12.7039 13.0019C12.0072 13.1425 11.6128 13.0662 11.3977 12.974C11.2059 12.8918 10.9699 12.719 10.7319 12.2627L8.9586 13.1874ZM13.0996 14.9624L13.4953 16.9228C15.5992 16.4982 17.4218 15.8135 18.812 14.7583L17.6027 13.1652L16.3935 11.5722C15.6584 12.1302 14.4789 12.6437 12.7039 13.0019L13.0996 14.9624ZM17.6027 13.1652L18.812 14.7583C19.3294 14.3655 19.6562 14.1443 19.8286 14.0447C19.9361 13.9826 19.8733 14.0329 19.7074 14.0796C19.6348 14.1 19.3643 14.1733 19 14.1246C18.8001 14.0979 18.5327 14.0291 18.2565 13.8608C17.968 13.685 17.7312 13.4372 17.5687 13.1437L19.3183 12.1748L21.0679 11.2059C20.6804 10.5061 20.0222 10.2257 19.5298 10.1599C19.1145 10.1044 18.7778 10.1858 18.6235 10.2292C18.2945 10.3218 18.007 10.4776 17.8286 10.5806C17.4292 10.8112 16.9387 11.1583 16.3935 11.5722L17.6027 13.1652ZM19.3183 12.1748L17.33 12.3908L17.3524 12.5973L19.3407 12.3812L21.329 12.1652L21.3066 11.9588L19.3183 12.1748ZM19.3407 12.3812L19.079 14.364L19.1782 14.3771L19.4399 12.3943L19.7015 10.4115L19.6024 10.3984L19.3407 12.3812Z" fill="black"/>
</svg>
