<svg width="24" height="24" viewBox="0 0 24 24" fill="none" xmlns="http://www.w3.org/2000/svg">
<path d="M5.58953 15.0815C5.08592 15.3082 4.86143 15.9002 5.08812 16.4038C5.31482 16.9075 5.90685 17.1319 6.41047 16.9053L6 15.9934L5.58953 15.0815ZM6.09119 15.9523L5.92181 14.9668L5.79659 14.9883L5.68072 15.0405L6.09119 15.9523ZM12.5123 13.244L11.6469 12.743L12.5123 13.244ZM13.2084 10.7298L12.2093 10.7706L13.2084 10.7298ZM9.96138 13.6483L10.8683 13.227L9.96138 13.6483ZM17.3538 12.0716L18.3228 11.8247L18.2373 11.4893L17.9628 11.2785L17.3538 12.0716ZM17.3882 12.2068L16.4192 12.4537L16.7019 13.5632L17.7633 13.1338L17.3882 12.2068ZM17.856 13.0962C18.3679 12.8891 18.615 12.3061 18.4079 11.7942C18.2007 11.2822 17.6177 11.0351 17.1058 11.2423L17.4809 12.1693L17.856 13.0962ZM6 15.9934L6.41047 16.9053L6.50165 16.8642L6.09119 15.9523L5.68072 15.0405L5.58953 15.0815L6 15.9934ZM6.09119 15.9523L6.26056 16.9379C8.15737 16.6119 9.63199 16.2846 10.6529 15.9501L10.3414 14.9998L10.03 14.0495C9.15121 14.3375 7.79235 14.6453 5.92181 14.9668L6.09119 15.9523ZM10.3414 14.9998L10.6529 15.9501C11.8345 15.5628 12.7562 14.8186 13.3777 13.745L12.5123 13.244L11.6469 12.743C11.2735 13.3879 10.7479 13.8142 10.03 14.0495L10.3414 14.9998ZM12.5123 13.244L13.3777 13.745C13.9498 12.757 14.2502 11.7327 14.2076 10.689L13.2084 10.7298L12.2093 10.7706C12.2334 11.3608 12.0697 12.0126 11.6469 12.743L12.5123 13.244ZM13.2084 10.7298L14.2076 10.689C14.1847 10.1283 14.0145 9.50359 13.4872 9.07603C12.9679 8.65496 12.3247 8.60712 11.7716 8.68114L11.9042 9.6723L12.0368 10.6635C12.1703 10.6456 12.2426 10.6528 12.27 10.658C12.2916 10.6621 12.2662 10.6609 12.2276 10.6295C12.1879 10.5974 12.1766 10.5678 12.1798 10.5759C12.1856 10.5904 12.2043 10.6479 12.2093 10.7706L13.2084 10.7298ZM11.9042 9.6723L11.7716 8.68114C10.522 8.84832 9.64567 9.64147 9.13841 10.8055L10.0552 11.205L10.9719 11.6045C11.2577 10.9487 11.6141 10.72 12.0368 10.6635L11.9042 9.6723ZM10.0552 11.205L9.13841 10.8055C8.65859 11.9067 8.5706 13.0282 9.05448 14.0697L9.96138 13.6483L10.8683 13.227C10.6842 12.8307 10.6587 12.3233 10.9719 11.6045L10.0552 11.205ZM9.96138 13.6483L9.05448 14.0697C9.58373 15.2088 10.6291 15.7349 11.8709 15.7891L11.9146 14.7901L11.9582 13.7911C11.2637 13.7607 11.007 13.5256 10.8683 13.227L9.96138 13.6483ZM11.9146 14.7901L11.8709 15.7891C12.9514 15.8363 14.0267 15.7038 15.0928 15.3961L14.8155 14.4353L14.5381 13.4745C13.6726 13.7244 12.8139 13.8284 11.9582 13.7911L11.9146 14.7901ZM14.8155 14.4353L15.0928 15.3961C16.2372 15.0657 17.1692 14.4425 17.6501 13.4217L16.7454 12.9956L15.8408 12.5694C15.68 12.9107 15.3254 13.2473 14.5381 13.4745L14.8155 14.4353ZM16.7454 12.9956L17.6501 13.4217C17.8065 13.0896 17.9128 12.8956 17.9733 12.8037C18.0116 12.7456 17.991 12.7911 17.9134 12.8567C17.8766 12.8878 17.7544 12.9867 17.5559 13.0356C17.4473 13.0624 17.3088 13.0757 17.1542 13.0471C16.9965 13.0178 16.8575 12.9514 16.7447 12.8648L17.3538 12.0716L17.9628 11.2785C17.6845 11.0648 17.3523 11.0259 17.077 11.0938C16.8499 11.1498 16.6955 11.2674 16.6227 11.3289C16.4732 11.4552 16.366 11.608 16.3029 11.7039C16.1606 11.92 16.0051 12.2205 15.8408 12.5694L16.7454 12.9956ZM17.3538 12.0716L16.3847 12.3186L16.4192 12.4537L17.3882 12.2068L18.3572 11.9598L18.3228 11.8247L17.3538 12.0716ZM17.3882 12.2068L17.7633 13.1338L17.856 13.0962L17.4809 12.1693L17.1058 11.2423L17.0131 11.2798L17.3882 12.2068Z" fill="black"/>
</svg>
