<svg width="32" height="32" viewBox="0 0 32 32" fill="none" xmlns="http://www.w3.org/2000/svg">
<path d="M14.8474 8.00102C16.2521 7.96858 17.42 8.71519 18.3204 9.71265C19.3003 10.7981 20.0042 12.3266 19.7835 14.1934C19.689 14.9919 19.4354 15.7184 19.095 16.3765C21.2592 15.5388 21.6754 14.2854 23.2508 13.8673C23.4297 13.8198 23.8194 13.7344 24.2867 13.8374C24.8063 13.9521 25.4768 14.329 25.8743 15.1698C26.6879 16.8728 24.738 18.6464 23.0941 19.9451C21.4274 21.2617 19.2999 22.0526 16.8735 22.475C15.4405 22.7245 14.0042 22.6044 12.7209 21.8548C12.665 21.8221 12.6099 21.7873 12.5555 21.7528C11.26 22.3179 9.51135 23.0421 8.26381 23.2599C7.29746 23.4286 6.3749 23.6131 5.67193 22.8073C4.77949 21.7839 4.77546 20.0851 5.66328 19.0141C6.61415 17.869 7.57075 18.2081 9.62032 17.2949C9.31466 16.1593 9.1985 14.9662 9.38545 13.757C9.6321 12.1624 10.3569 10.8336 11.3588 9.78439C12.2918 8.80752 13.4674 8.03296 14.8474 8.00102ZM15.2524 12.7217C13.806 12.1465 13.4529 14.5604 13.7141 16.0474C14.889 15.6501 16.4285 13.1895 15.2524 12.7217Z" fill="black"/>
</svg>
