<svg width="32" height="32" viewBox="0 0 32 32" fill="none" xmlns="http://www.w3.org/2000/svg">
<path d="M13.8915 10.7104C14.6926 10.0814 15.6215 9.88619 16.5667 10.0613C17.571 10.2474 18.9825 10.878 19.4712 12.0766C20.2085 13.8851 19.4219 16.8849 17.9219 18.3849C18.3874 18.1609 19.228 17.6663 19.6862 17.3734C20.9744 16.5501 22.0765 15.6794 23.0683 14.5317C23.8988 13.565 25.5005 13.8473 25.9251 15.1638C26.6358 17.3684 22.6184 19.8566 21.316 20.689C19.7456 21.6926 18.1053 22.3857 16.4008 22.7563C15.0706 23.0454 13.6942 22.7087 12.8213 21.6354C11.5473 22.0585 9.88037 22.7563 8.35097 22.8849C7.48597 22.9577 6.65102 22.92 6.23408 22.0548C5.79099 21.1351 5.95908 19.6644 6.8916 19.4741C8.49999 19.1458 9.99999 18.6458 11.6896 18.0526C11.5294 15.5211 11.7272 12.4103 13.8915 10.7104ZM15.9219 13.8849C14.751 13.8491 14.8957 16.1772 14.9219 16.8849C15.8957 16.1772 16.8195 13.9124 15.9219 13.8849Z" fill="black"/>
</svg>
