<svg xmlns="http://www.w3.org/2000/svg" width="32" height="32" fill="none" viewBox="0 0 32 32"><path fill="#000" d="M13.892 10.71c.8-.629 1.73-.824 2.675-.649 1.004.186 2.416.817 2.904 2.016.738 1.808-.05 4.808-1.55 6.308.466-.224 1.307-.719 1.765-1.012 1.288-.823 2.39-1.694 3.382-2.841.83-.967 2.432-.685 2.857.632.71 2.204-3.307 4.693-4.609 5.525-1.57 1.004-3.21 1.697-4.915 2.067-1.33.29-2.707-.047-3.58-1.12-1.274.422-2.94 1.12-4.47 1.249-.865.073-1.7.035-2.117-.83-.443-.92-.275-2.39.658-2.58 1.608-.33 3.108-.83 4.798-1.422-.16-2.532.037-5.643 2.202-7.343m2.03 3.175c-1.171-.036-1.026 2.292-1 3 .974-.708 1.898-2.973 1-3"/></svg>