<svg xmlns="http://www.w3.org/2000/svg" width="32" height="32" fill="none" viewBox="0 0 32 32"><path fill="#000" d="M24.392 7.732a2.5 2.5 0 0 0-3.568.036l-4.173 4.875-.824-.826a1.876 1.876 0 0 0-2.653 0l-5.991 5.992a.625.625 0 0 0 0 .884l6.25 6.25a.625.625 0 0 0 .883 0l5.992-5.989a1.876 1.876 0 0 0 0-2.652l-.827-.826 4.876-4.178q.018-.015.035-.034a2.5 2.5 0 0 0 0-3.532M13.874 23.618l-1.304-1.304 1.746-1.746a.625.625 0 0 0-.884-.884l-1.746 1.745-.99-.99 1.745-1.746a.625.625 0 0 0-.884-.884l-1.746 1.745-1.304-1.303 3.934-3.933 5.366 5.367z"/></svg>