<svg xmlns="http://www.w3.org/2000/svg" width="32" height="32" fill="none" viewBox="0 0 32 32"><g fill="#000" clip-path="url(#a)"><path d="M19.519 15.429c.421-.476 1.266-1.22 1.664-.931.544.397-.226 1.29-.511 1.644-.402.498-.71.847-1.241 1.387-.232.236-.475.466-.715.688.013-.948.15-2.05.803-2.788m-6.024-3.153c.631-.042.671.716.69 1.15.02.466-.005.837-.045.975a5.76 5.76 0 0 1-1.376 2.34 22 22 0 0 1-1.554 1.408 9.7 9.7 0 0 1-.117-1.88c.035-.735.089-.919.183-1.311.102-.42.12-.54.306-.892.398-.754.964-1.725 1.913-1.79"/><path fill-rule="evenodd" d="M16 0c8.837 0 16 7.163 16 16s-7.163 16-16 16H4a4 4 0 0 1-4-4V16C0 7.163 7.163 0 16 0m-1.665 10.96c-.828-.431-1.88-.093-2.55.473-1.006.847-1.654 1.878-1.967 3.172-.109.452-.183.735-.223 1.593-.045.935-.03 1.996.332 2.878-.544.335-1.092.645-1.705.84-.714.227-1.26.322-2.007.404h-.007a.751.751 0 0 0 .12 1.495c.195-.015.439.001.895-.097a17 17 0 0 0 1.452-.372c.75-.239 1.433-.61 2.098-1.026.97 1.044 2.514 1.296 3.883 1.297 1.307.002 2.385-.263 3.464-.994l.037.037c.278.292.691.426 1.073.518 1.14.274 2.364.17 3.516.025.513-.064 1.084-.235 1.206-.804a.75.75 0 0 0-1.249-.708q-.056.012-.142.024a16 16 0 0 1-2.058.12 4.6 4.6 0 0 1-.923-.115 3 3 0 0 1-.22-.065 22 22 0 0 0 1.139-1.074c.567-.576.908-.96 1.34-1.498.501-.62.787-1.34.892-1.888.193-1.015-.364-2-1.399-2.209-1.34-.269-2.099.503-2.937 1.449-.965 1.09-1.177 2.619-1.181 4.021-.001.352.032.639.108.898-.603.411-.866.575-1.546.675a8 8 0 0 1-1.119.088c-.679 0-2.156-.135-2.647-.668l-.01-.012c1.057-.847 2.134-1.74 2.818-2.932.324-.564.576-1.055.76-1.68.455-1.545.184-3.118-1.243-3.864" clip-rule="evenodd"/></g><defs><clipPath id="a"><path fill="#fff" d="M0 0h32v32H0z"/></clipPath></defs></svg>