<svg xmlns="http://www.w3.org/2000/svg" width="32" height="32" fill="none" viewBox="0 0 32 32"><path fill="#000" d="M14.847 8.001c1.405-.032 2.573.714 3.473 1.712.98 1.085 1.684 2.614 1.463 4.48a6.4 6.4 0 0 1-.688 2.184c2.164-.838 2.58-2.092 4.156-2.51a2.2 2.2 0 0 1 1.036-.03c.52.115 1.19.492 1.587 1.333.814 1.703-1.136 3.476-2.78 4.775-1.667 1.317-3.794 2.108-6.22 2.53-1.433.25-2.87.13-4.153-.62l-.165-.102c-1.296.565-3.045 1.29-4.292 1.507-.967.169-1.89.353-2.592-.453-.893-1.023-.897-2.722-.009-3.793.951-1.145 1.908-.806 3.957-1.72-.305-1.135-.421-2.328-.235-3.537a7.3 7.3 0 0 1 1.974-3.973c.933-.976 2.108-1.751 3.488-1.783m.405 4.72c-1.446-.575-1.8 1.84-1.538 3.326 1.175-.397 2.714-2.857 1.538-3.325"/></svg>