<svg xmlns="http://www.w3.org/2000/svg" width="40" height="72" fill="none" viewBox="0 0 40 72"><mask id="b" fill="#fff"><path d="M2 17a8 8 0 0 1 8-8h22.789a6 6 0 0 1 6 6v56.62H2z"/></mask><g filter="url(#a)"><path fill="#febfd5" d="M2 17a8 8 0 0 1 8-8h22.789a6 6 0 0 1 6 6v56.62H2z"/></g><path fill="#ab5e85" fill-opacity=".25" d="M1 17a9 9 0 0 1 9-9h22.789a7 7 0 0 1 7 7h-2a5 5 0 0 0-5-5H10a7 7 0 0 0-7 7zm37.789 54.62H2zM1 71.62V17a9 9 0 0 1 9-9v2a7 7 0 0 0-7 7v54.62zM32.789 8a7 7 0 0 1 7 7v56.62h-2V15a5 5 0 0 0-5-5z" mask="url(#b)"/><path fill="#1e1e1e" d="M22.323 65.194q-.004.761-.303 1.334a2.1 2.1 0 0 1-.92.883q-.605.31-1.46.305a4 4 0 0 1-1.252-.205 3.8 3.8 0 0 1-1.116-.579 3.9 3.9 0 0 1-.85-.915 3.7 3.7 0 0 1-.509-1.163q-.18.386-.49.647a2 2 0 0 1-.71.384 2.8 2.8 0 0 1-.84.121 4.1 4.1 0 0 1-1.326-.23 3.8 3.8 0 0 1-1.19-.667 3.4 3.4 0 0 1-.863-1.09 3 3 0 0 1-.33-1.45q.003-.535.183-.972.165-.436.447-.76.282-.336.651-.534l.148-.049q.06-.024.177.088.058.089.043.15a.22.22 0 0 1-.104.1 2.45 2.45 0 0 0-.816.882q-.284.498-.287 1.197-.005.661.273 1.2.276.538.745.927a3.6 3.6 0 0 0 1.029.591q.573.202 1.192.205.531.003.974-.17.429-.186.682-.572.239-.385.242-.972l.007-1.299q0-.062.06-.087.044-.024.162.001a.24.24 0 0 1 .147.076q.045.05.043.112l-.007 1.26a3.2 3.2 0 0 0 1.032 2.415q.468.45 1.086.703.618.24 1.31.243.753.003 1.284-.256.517-.273.786-.758.269-.499.272-1.148 0-.099.104-.111a.27.27 0 0 1 .192.025q.102.038.102.138"/><path fill="#1e1e1e" d="M22.323 65.188q0 .1-.104.112a.4.4 0 0 1-.191-.026q-.103-.037-.103-.138a4.05 4.05 0 0 0-.343-1.636 6 6 0 0 0-1.038-1.54 8.6 8.6 0 0 0-1.642-1.355 12.4 12.4 0 0 0-2.175-1.108q-.117-.04-.147-.1-.043-.076-.028-.138 0-.075.06-.1.059-.024.147.013 1.28.48 2.307 1.134a9 9 0 0 1 1.76 1.43 6 6 0 0 1 1.125 1.653q.378.875.372 1.8"/><path fill="#1e1e1e" d="M22.373 56.925a1.2 1.2 0 0 1-.09.449.7.7 0 0 1-.268.336 1 1 0 0 1-.502.16q-.325.024-.81-.103a6 6 0 0 1-.648-.216 64 64 0 0 0-.75-.278q-.383-.15-.764-.277a6 6 0 0 0-.721-.216q-.677-.153-.914.021a.57.57 0 0 0-.24.486q0 .238.1.562.102.326.217.725.1.4.098.874a.8.8 0 0 1-.15.486 1 1 0 0 1-.37.286q-.236.087-.458.085-.397 0-.603-.177a.52.52 0 0 1-.219-.425q.002-.312.239-.449.222-.136.561-.147t.648.065a1.7 1.7 0 0 0-.07-.512 7 7 0 0 0-.16-.487 3 3 0 0 1-.159-.476 1.7 1.7 0 0 1-.07-.5.84.84 0 0 1 .165-.523q.163-.224.532-.284.354-.074.973.066.323.077.691.203t.75.278l.735.278q.353.126.677.202.633.165.9.017.265-.15.268-.61 0-.113.104-.138a.27.27 0 0 1 .206.039q.104.05.102.2m-5.631 2.584a2.3 2.3 0 0 0-.516-.064q-.266-.002-.427.06-.163.05-.164.2 0 .124.117.2.117.075.353.076a.8.8 0 0 0 .413-.11.46.46 0 0 0 .224-.362"/><path fill="#1e1e1e" d="M22.373 56.936q0 .125-.104.15-.103.036-.206-.039-.103-.063-.102-.225.003-.45-.29-.863a3 3 0 0 0-.747-.727 3.8 3.8 0 0 0-.94-.466q-.103-.038-.103-.113t.075-.124q.074-.063.177-.024.412.15.823.39.396.227.719.528.323.3.512.676.189.388.186.837"/><path fill="#1e1e1e" d="M22.394 53.491a1.16 1.16 0 0 1-.537 1.009q-.547.36-1.461.355a6 6 0 0 1-1.384-.18q-.75-.191-1.412-.568-.675-.39-1.1-.991-.423-.615-.418-1.462.002-.362.167-.749.15-.386.431-.684l.368.114q-.34.41-.447.747-.12.336-.121.636-.005.699.375 1.212.366.514.968.853.603.327 1.28.493.676.152 1.28.155.473.002.842-.096a1.26 1.26 0 0 0 .562-.335.9.9 0 0 0 .195-.586 1.6 1.6 0 0 0-.187-.724q-.19-.375-.63-.752-.455-.376-1.218-.73l.442-.085q.839.39 1.277.842.426.438.57.839.16.4.158.687m.018-2.858a.96.96 0 0 1-.121.473.72.72 0 0 1-.326.311 1.3 1.3 0 0 1-.532.123 2.4 2.4 0 0 1-.721-.103l-4.4-1.23q-.104-.026-.132-.076-.045-.05-.043-.15 0-.124.074-.15a.3.3 0 0 1 .177.001l4.385 1.23q.647.178.943.005a.62.62 0 0 0 .284-.548q0-.088.103-.112a.27.27 0 0 1 .206.038q.104.05.102.188"/><path fill="#1e1e1e" d="M22.412 50.598q0 .124-.104.136a.3.3 0 0 1-.206-.063.2.2 0 0 1-.102-.188q.001-.387-.422-.875-.44-.489-1.203-1.017a15 15 0 0 0-1.792-1.056 21 21 0 0 0-2.16-.97q-.104-.039-.088-.113 0-.075.089-.112.074-.05.236.013 1.22.468 2.278.996a14 14 0 0 1 1.836 1.094q.778.553 1.217 1.092.424.55.42 1.063"/><path fill="#1e1e1e" d="M22.445 45.08a2.2 2.2 0 0 1-.047.425 6 6 0 0 0-.076.523q-.017.288.055.675l-.205-.25a3 3 0 0 1-.144-.675 2.3 2.3 0 0 1-.012-.437q.016-.187.017-.375 0-.124.104-.15.104-.036.206.04.104.062.102.224m.003 1.998q-.003.423-.137.773-.135.35-.343.523a.26.26 0 0 1-.147.049.3.3 0 0 1-.147-.063q-.088-.075-.088-.125 0-.063.09-.162.163-.212.268-.473.09-.262.091-.55.005-.685-.42-1.075-.426-.389-1.207-.392a2.5 2.5 0 0 0-.634.072 2.7 2.7 0 0 0-.547.198 7 7 0 0 0-.502.247q-.267.124-.562.247a4 4 0 0 1-.664.185 4.3 4.3 0 0 1-.856.07q-.383 0-.574-.076-.206-.076-.204-.301 0-.1.06-.137a.24.24 0 0 1 .132-.037q.103 0 .25.051.133.051.427.227.53-.036.929-.159.384-.135.71-.296.31-.174.606-.322.295-.16.65-.26.34-.11.782-.108.943.004 1.5.518.541.514.537 1.376"/><path fill="#1e1e1e" d="M22.445 45.1q0 .125-.104.137a.3.3 0 0 1-.206-.064.2.2 0 0 1-.102-.187 3.1 3.1 0 0 0-.229-1.137 5.2 5.2 0 0 0-.641-1.151q-.06-.088 0-.15a.23.23 0 0 1 .163-.087q.09-.012.162.088.453.627.714 1.302.246.675.243 1.249"/><path fill="#1e1e1e" d="M21.207 42.735a7 7 0 0 0-.615-.789 8 8 0 0 0-.732-.69 6.2 6.2 0 0 0-1.116-.716 2.85 2.85 0 0 0-1.28-.305q-.458-.002-.68.197-.237.187-.24.585 0 .088-.059.125a.18.18 0 0 1-.133.024.24.24 0 0 1-.147-.075.2.2 0 0 1-.058-.15q.003-.424.181-.661a.88.88 0 0 1 .459-.335 1.9 1.9 0 0 1 .65-.097q.5.002.97.166.472.153.898.416.426.252.792.553.411.34.791.752.366.414.659.852z"/><path fill="#1e1e1e" d="M22.484 41.087a1.6 1.6 0 0 1-.196.748q-.18.375-.534.647a2.8 2.8 0 0 1-.902.446 3.9 3.9 0 0 1-1.21.17 5.3 5.3 0 0 1-1.163-.143 4.7 4.7 0 0 1-1.148-.417 2.5 2.5 0 0 1-.85-.665 1.4 1.4 0 0 1-.334-.938q0-.1.06-.137a.3.3 0 0 1 .148-.012q.073.014.132.063.058.063.058.163-.003.435.305.75.307.325.792.54a4.4 4.4 0 0 0 1.015.316q.53.115.973.117a3.6 3.6 0 0 0 1.047-.133q.457-.136.769-.37.31-.237.475-.548.163-.3.166-.623.003-.687-.567-1.326-.585-.639-1.732-1.218-1.161-.593-2.883-1.074-.132-.038-.132-.125-.014-.088.075-.15.075-.062.221-.024 1.825.507 3.03 1.137 1.205.616 1.805 1.318.585.714.58 1.488"/><path fill="#1e1e1e" d="M22.505 35.246q-.001.3-.135.46a.7.7 0 0 1-.37.224q-.237.048-.531.023a4.5 4.5 0 0 1-.633-.128 12 12 0 0 1-.897-.303q-.5-.19-1.015-.38a6.6 6.6 0 0 0-.971-.303q-.515-.102-.825-.016-.325.085-.328.523-.002.324.1.637.101.312.216.675.101.362.099.836a.8.8 0 0 1-.15.486 1 1 0 0 1-.371.286q-.236.087-.457.085-.399 0-.604-.177a.52.52 0 0 1-.218-.425q.001-.312.238-.449.222-.136.561-.147a2.4 2.4 0 0 1 .649.065 4 4 0 0 0-.086-.5q-.072-.25-.144-.487a5 5 0 0 1-.145-.5 2.4 2.4 0 0 1-.055-.524q.002-.375.224-.561t.59-.21q.37-.036.826.079.324.075.691.203.353.126.736.277.382.14.75.278.352.126.677.203.5.14.839.103.34-.048.341-.373a.6.6 0 0 0-.1-.337 1.4 1.4 0 0 0-.294-.313q-.176-.15-.367-.24a.23.23 0 0 1-.117-.087q-.044-.063.015-.15.03-.075.119-.087.074-.025.162.026.25.126.485.302.22.175.35.4.147.226.145.526m-5.63 2.31a2.3 2.3 0 0 0-.515-.065q-.266-.002-.428.06-.163.05-.163.2 0 .124.116.2.118.075.354.076a.8.8 0 0 0 .413-.11.46.46 0 0 0 .223-.362m12.212 4.432v1.273h-1.765v-1.248h.235v.977h.5v-.857h.235v.857h.56v-1.002zm0-.527v.272h-1.765v-.735c0-.39.183-.6.509-.6.224 0 .387.136.432.33h.004c.077-.409.773-.258.803-.355h.017v.291c-.074.08-.691-.088-.691.344v.454zm-.926 0v-.404c0-.25-.108-.385-.31-.385-.19 0-.294.108-.294.38v.41zm.926-1.468v.286l-1.765-.657v-.293l1.765-.662v.296l-.425.146v.738zm-1.513-.514.859.286v-.58l-.86.29zm1.548-1.615c0 .446-.232.76-.63.78v-.282c.237-.02.398-.16.398-.491 0-.284-.124-.37-.284-.37-.225 0-.257.172-.339.493-.074.277-.162.58-.498.58-.306 0-.481-.237-.481-.617 0-.402.204-.664.56-.69v.28c-.212.03-.328.151-.328.408 0 .222.081.335.234.335.198 0 .24-.185.296-.412.087-.34.168-.661.54-.661.304 0 .532.205.532.646m-.035-2.169v1.274h-1.765v-1.249h.235v.977h.5v-.856h.235v.857h.56v-1.003zm0-.526v.272h-1.765v-.736c0-.39.183-.6.509-.6.224 0 .387.136.432.331h.004c.077-.41.773-.259.803-.355h.017v.291c-.074.08-.691-.089-.691.343v.454zm-.926 0v-.404c0-.25-.108-.386-.31-.386-.19 0-.294.11-.294.38v.41z"/><defs><filter id="a" width="44.789" height="70.619" x="0" y="9" color-interpolation-filters="sRGB" filterUnits="userSpaceOnUse"><feFlood flood-opacity="0" result="BackgroundImageFix"/><feBlend in="SourceGraphic" in2="BackgroundImageFix" result="shape"/><feColorMatrix in="SourceAlpha" result="hardAlpha" values="0 0 0 0 0 0 0 0 0 0 0 0 0 0 0 0 0 0 127 0"/><feOffset dx="6" dy="6"/><feGaussianBlur stdDeviation="3"/><feComposite in2="hardAlpha" k2="-1" k3="1" operator="arithmetic"/><feColorMatrix values="0 0 0 0 1 0 0 0 0 1 0 0 0 0 1 0 0 0 0.5 0"/><feBlend in2="shape" result="effect1_innerShadow_2040_275"/><feColorMatrix in="SourceAlpha" result="hardAlpha" values="0 0 0 0 0 0 0 0 0 0 0 0 0 0 0 0 0 0 127 0"/><feMorphology in="SourceAlpha" radius="4" result="effect2_innerShadow_2040_275"/><feOffset/><feGaussianBlur stdDeviation="4"/><feComposite in2="hardAlpha" k2="-1" k3="1" operator="arithmetic"/><feColorMatrix values="0 0 0 0 0.996078 0 0 0 0 0.74902 0 0 0 0 0.835294 0 0 0 1 0"/><feBlend in2="effect1_innerShadow_2040_275" result="effect2_innerShadow_2040_275"/><feColorMatrix in="SourceAlpha" result="hardAlpha" values="0 0 0 0 0 0 0 0 0 0 0 0 0 0 0 0 0 0 127 0"/><feOffset dy="-112"/><feGaussianBlur stdDeviation="5.05"/><feComposite in2="hardAlpha" k2="-1" k3="1" operator="arithmetic"/><feColorMatrix values="0 0 0 0 0.996078 0 0 0 0 0.74902 0 0 0 0 0.835294 0 0 0 1 0"/><feBlend in2="effect2_innerShadow_2040_275" result="effect3_innerShadow_2040_275"/><feColorMatrix in="SourceAlpha" result="hardAlpha" values="0 0 0 0 0 0 0 0 0 0 0 0 0 0 0 0 0 0 127 0"/><feOffset dy="40"/><feGaussianBlur stdDeviation="4"/><feComposite in2="hardAlpha" k2="-1" k3="1" operator="arithmetic"/><feColorMatrix values="0 0 0 0 1 0 0 0 0 1 0 0 0 0 1 0 0 0 0.12 0"/><feBlend in2="effect3_innerShadow_2040_275" result="effect4_innerShadow_2040_275"/><feColorMatrix in="SourceAlpha" result="hardAlpha" values="0 0 0 0 0 0 0 0 0 0 0 0 0 0 0 0 0 0 127 0"/><feOffset dy="12"/><feGaussianBlur stdDeviation="1"/><feComposite in2="hardAlpha" k2="-1" k3="1" operator="arithmetic"/><feColorMatrix values="0 0 0 0 1 0 0 0 0 0.515967 0 0 0 0 0.680857 0 0 0 0.3 0"/><feBlend in2="effect4_innerShadow_2040_275" result="effect5_innerShadow_2040_275"/><feColorMatrix in="SourceAlpha" result="hardAlpha" values="0 0 0 0 0 0 0 0 0 0 0 0 0 0 0 0 0 0 127 0"/><feMorphology in="SourceAlpha" radius="3" result="effect6_innerShadow_2040_275"/><feOffset dx="-2"/><feGaussianBlur stdDeviation="1.5"/><feComposite in2="hardAlpha" k2="-1" k3="1" operator="arithmetic"/><feColorMatrix values="0 0 0 0 1 0 0 0 0 0.515967 0 0 0 0 0.680857 0 0 0 0.15 0"/><feBlend in2="effect5_innerShadow_2040_275" result="effect6_innerShadow_2040_275"/></filter></defs></svg>