<svg xmlns="http://www.w3.org/2000/svg" width="32" height="32" fill="none" viewBox="0 0 32 32"><path fill="#000" d="M16.364 10.027c.66-.086 1.42.008 2.018.633 1.617 1.693.577 4.916-.324 6.673 1.081-.15 2.665-.666 3.196-1.65.365-.677.437-1.76 1.295-1.988.602-.16 1.168-.03 1.358.612.487 1.642-1.527 4.752-3.907 5.502-1.424.449-3.11.707-4.583.316-1.229.646-6.604 2.918-7.33.76-.246-.733.048-1.577.655-1.884.608-.307 2.407-.133 4.285-.996-.69-1.604-.512-3.427.118-5.02.655-1.655 1.73-2.764 3.22-2.958m.226 2.86c-1.477.193-2.101 2.98-1.306 4.017 1.477-1.516 1.98-4.104 1.306-4.016"/></svg>