<svg xmlns="http://www.w3.org/2000/svg" width="32" height="32" fill="none" viewBox="0 0 32 32"><path fill="#000" d="m23.934 10.845-1.25-2.5A.63.63 0 0 0 22.125 8h-11.25a.63.63 0 0 0-.56.345l-1.25 2.5a.6.6 0 0 0-.065.28V21.75A1.25 1.25 0 0 0 10.25 23h12.5A1.25 1.25 0 0 0 24 21.75V11.125a.6.6 0 0 0-.066-.28m-4.492 6.972-2.5 2.5a.627.627 0 0 1-.884 0l-2.5-2.5a.625.625 0 0 1 .884-.884l1.433 1.433v-4.741a.624.624 0 1 1 1.25 0v4.741l1.433-1.433a.625.625 0 0 1 .884.884M10.636 10.5l.625-1.25h10.478l.625 1.25z"/></svg>