<svg xmlns="http://www.w3.org/2000/svg" width="40" height="72" fill="none" viewBox="0 0 40 72"><g clip-path="url(#a)"><g filter="url(#b)"><path fill="#fdcf3b" d="M18.564 6.497c.324-.865 1.548-.865 1.872 0L27 24H12z"/></g><path stroke="#02061d" stroke-opacity=".1" d="M19.032 6.673a.5.5 0 0 1 .936 0l6.31 16.827H12.722z"/><path fill="#f3f0ed" d="M2 72.122V50.73a20 20 0 0 1 1.313-7.127l8.942-23.446a1 1 0 0 1 .934-.643h12.634a1 1 0 0 1 .928.628l9.321 23.33a20 20 0 0 1 1.428 7.42v21.23z"/><path fill="url(#c)" d="M2 72.122V50.73a20 20 0 0 1 1.313-7.127l8.942-23.446a1 1 0 0 1 .934-.643h12.634a1 1 0 0 1 .928.628l9.321 23.33a20 20 0 0 1 1.428 7.42v21.23z"/><path fill="url(#d)" fill-opacity=".3" d="M2 72.122V50.73a20 20 0 0 1 1.313-7.127l8.942-23.446a1 1 0 0 1 .934-.643h12.634a1 1 0 0 1 .928.628l9.321 23.33a20 20 0 0 1 1.428 7.42v21.23z"/><path fill="url(#e)" d="M2 72.122V50.73a20 20 0 0 1 1.313-7.127l8.942-23.446a1 1 0 0 1 .934-.643h12.634a1 1 0 0 1 .928.628l9.321 23.33a20 20 0 0 1 1.428 7.42v21.23z"/><path fill="url(#f)" fill-opacity=".2" d="M2 72.122V50.73a20 20 0 0 1 1.313-7.127l8.942-23.446a1 1 0 0 1 .934-.643h12.634a1 1 0 0 1 .928.628l9.321 23.33a20 20 0 0 1 1.428 7.42v21.23z"/><path fill="url(#g)" fill-opacity=".2" d="M2 72.122V50.73a20 20 0 0 1 1.313-7.127l8.942-23.446a1 1 0 0 1 .934-.643h12.634a1 1 0 0 1 .928.628l9.321 23.33a20 20 0 0 1 1.428 7.42v21.23z"/><path stroke="#0f1931" stroke-opacity=".1" d="M13.189 20.014h12.633a.5.5 0 0 1 .465.314l9.321 23.33A19.5 19.5 0 0 1 37 50.892v20.73H2.5V50.729a19.5 19.5 0 0 1 1.28-6.948l8.942-23.445a.5.5 0 0 1 .466-.322Z"/></g><defs><linearGradient id="c" x1="20.085" x2="20" y1="44.935" y2="69.5" gradientUnits="userSpaceOnUse"><stop stop-color="#fff" stop-opacity="0"/><stop offset="1" stop-color="#f9f1e7"/></linearGradient><linearGradient id="d" x1="38.84" x2=".66" y1="43.942" y2="43.942" gradientUnits="userSpaceOnUse"><stop stop-color="#b2753f"/><stop offset=".245" stop-color="#b2753f" stop-opacity=".75"/><stop offset=".294" stop-color="#b2753f" stop-opacity="0"/><stop offset=".375" stop-color="#b2753f" stop-opacity=".25"/><stop offset=".623" stop-color="#b2753f" stop-opacity=".1"/><stop offset=".69" stop-color="#b2753f" stop-opacity="0"/><stop offset=".749" stop-color="#b2753f" stop-opacity=".5"/><stop offset="1" stop-color="#b2753f"/></linearGradient><linearGradient id="e" x1="20.085" x2="20" y1="15.638" y2="60.5" gradientUnits="userSpaceOnUse"><stop offset=".01" stop-color="#f4eade"/><stop offset=".709" stop-color="#f9f1e7" stop-opacity=".85"/><stop offset="1" stop-color="#fff" stop-opacity="0"/></linearGradient><linearGradient id="f" x1="16.066" x2="2.647" y1="46.425" y2="41.899" gradientUnits="userSpaceOnUse"><stop stop-color="#b2753f" stop-opacity="0"/><stop offset="1" stop-color="#b2753f"/></linearGradient><linearGradient id="g" x1="28.123" x2="35.206" y1="42.204" y2="40.032" gradientUnits="userSpaceOnUse"><stop stop-color="#b2753f" stop-opacity="0"/><stop offset="1" stop-color="#b2753f"/></linearGradient><clipPath id="a"><path fill="#fff" d="M0 0h40v72H0z"/></clipPath><filter id="b" width="15" height="19.152" x="12" y="4.848" color-interpolation-filters="sRGB" filterUnits="userSpaceOnUse"><feFlood flood-opacity="0" result="BackgroundImageFix"/><feBlend in="SourceGraphic" in2="BackgroundImageFix" result="shape"/><feColorMatrix in="SourceAlpha" result="hardAlpha" values="0 0 0 0 0 0 0 0 0 0 0 0 0 0 0 0 0 0 127 0"/><feOffset dy="-1"/><feGaussianBlur stdDeviation="2"/><feComposite in2="hardAlpha" k2="-1" k3="1" operator="arithmetic"/><feColorMatrix values="0 0 0 0 0 0 0 0 0 0 0 0 0 0 0 0 0 0 0.25 0"/><feBlend in2="shape" result="effect1_innerShadow_2096_164"/></filter></defs></svg>