<svg width="32" height="32" viewBox="0 0 32 32" fill="none" xmlns="http://www.w3.org/2000/svg">
<path d="M23.9344 10.8453L22.6844 8.34531C22.6324 8.24148 22.5526 8.15417 22.4538 8.09317C22.355 8.03218 22.2411 7.99992 22.125 8H10.875C10.7589 7.99992 10.645 8.03218 10.5462 8.09317C10.4474 8.15417 10.3676 8.24148 10.3156 8.34531L9.06563 10.8453C9.02254 10.9323 9.00009 11.028 9 11.125V21.75C9 22.0815 9.1317 22.3995 9.36612 22.6339C9.60054 22.8683 9.91848 23 10.25 23H22.75C23.0815 23 23.3995 22.8683 23.6339 22.6339C23.8683 22.3995 24 22.0815 24 21.75V11.125C23.9999 11.028 23.9775 10.9323 23.9344 10.8453ZM19.4422 17.8172L16.9422 20.3172C16.8841 20.3753 16.8152 20.4214 16.7393 20.4529C16.6635 20.4843 16.5821 20.5005 16.5 20.5005C16.4179 20.5005 16.3365 20.4843 16.2607 20.4529C16.1848 20.4214 16.1159 20.3753 16.0578 20.3172L13.5578 17.8172C13.4405 17.6999 13.3747 17.5409 13.3747 17.375C13.3747 17.2091 13.4405 17.0501 13.5578 16.9328C13.6751 16.8155 13.8341 16.7497 14 16.7497C14.1659 16.7497 14.3249 16.8155 14.4422 16.9328L15.875 18.3664V13.625C15.875 13.4592 15.9408 13.3003 16.0581 13.1831C16.1753 13.0658 16.3342 13 16.5 13C16.6658 13 16.8247 13.0658 16.9419 13.1831C17.0592 13.3003 17.125 13.4592 17.125 13.625V18.3664L18.5578 16.9328C18.6751 16.8155 18.8341 16.7497 19 16.7497C19.1659 16.7497 19.3249 16.8155 19.4422 16.9328C19.5595 17.0501 19.6253 17.2091 19.6253 17.375C19.6253 17.5409 19.5595 17.6999 19.4422 17.8172ZM10.6359 10.5L11.2609 9.25H21.7391L22.3641 10.5H10.6359Z" fill="black"/>
</svg>
