<svg width="32" height="32" viewBox="0 0 32 32" fill="none" xmlns="http://www.w3.org/2000/svg">
<path d="M16.3643 10.0271C17.0239 9.94133 17.7848 10.035 18.3817 10.6599C19.999 12.3533 18.9587 15.5755 18.0583 17.3328C19.1391 17.1824 20.7226 16.6674 21.2538 15.6836C21.6195 15.0063 21.6911 13.9226 22.5488 13.6953C23.151 13.5358 23.7169 13.6659 23.9071 14.3073C24.3938 15.9491 22.3801 19.0592 20.0004 19.809C18.576 20.2577 16.8906 20.5162 15.4172 20.1245C14.1881 20.771 8.81265 23.0432 8.08705 20.8851C7.84092 20.1524 8.13466 19.3081 8.7423 19.0009C9.34993 18.6937 11.1488 18.8676 13.0268 18.0054C12.3364 16.4007 12.5153 14.5783 13.1452 12.9849C13.7996 11.3297 14.8745 10.221 16.3643 10.0271ZM16.5898 12.8879C15.1128 13.0799 14.4885 15.8662 15.2842 16.904C16.7609 15.3884 17.2632 12.8004 16.5898 12.8879Z" fill="black"/>
</svg>
