<svg xmlns="http://www.w3.org/2000/svg" width="24" height="24" fill="none" viewBox="0 0 24 24"><path stroke="#000" stroke-linecap="round" stroke-width="2" d="M12.968 17.386c-.056.139-.27.325-.672.48-.783.304-2.088-.281-3.484-1.217m0 0C7.693 15.899 6.515 14.923 5.5 14c-2.1-1.909-2.457-4.356-2.495-6.11-.038-1.71 1.671-3.034 3.443-4.102 1.95-1.175 5.115-.403 8.073.407 1.434.393 2.57 1.225 3.48 2.042.947.85 1.299 2.087 1.317 3.48M8.812 16.65l.001.017c.09 1.273.195 2.113.684 2.513.44.36.991.723 1.59.638 1.379-.198 3.42-.63 5.126-2.452 1.023-1.092 2.195-2.3 2.561-3.793.184-.749.342-1.51.439-2.251M8.812 16.649c-.061-.891.003-1.923.14-3.013m10.366-3.918c.006.517-.033 1.055-.105 1.603m.105-1.603c-.094-.797-.306-1.568-.898-2.034-.665-.523-1.483-1.032-2.474-1.216-1.227-.226-2.524-.462-3.545-.39m6.917 3.64q.018.159.031.317c.036.43-.023.86-.136 1.286m0 0c-.142.534-.37 1.061-.607 1.569-.42.902-1.45 1.437-2.53 1.868-2.078.827-5.163-.027-7.124-1.122m0 0q.05-.405.113-.816m-.113.816a9 9 0 0 1-.379-.223 1.7 1.7 0 0 1-.738-.976m1.23.383c.18-1.18.427-2.404.68-3.575.3-1.392.687-2.05 1.109-2.547.22-.26.532-.426.908-.522M9.065 12.82c.336.076.687.127 1.05.14 2.3.077 4.861.018 5.46-1.292.285-.622.503-1.336.334-2.082-.178-.788-.412-1.667-1.07-2.206-.592-.487-1.268-.906-2.017-1.067M9.065 12.82a9 9 0 0 1-1.23-.383m3.927-6.261a3.6 3.6 0 0 1 .639-.098m-.64.098c-.52-.031-1.032.012-1.476.228-.707.342-1.442.814-1.7 1.6-.431 1.319-1.132 3.179-.75 4.433m3.927-6.261a9 9 0 0 1 1.06.137m-.421-.235a5 5 0 0 0-.782-.314c-1.112-.342-2.308-.64-3.21-.204-.898.434-1.698 1.096-2.07 2.037-.375.952-.78 1.937-.54 2.805.215.78.636 1.473 1.385 1.776q.31.127.651.259m4.566-6.36q.218.11.42.236m0 0c1.511.94 2.387 2.522 2.865 3.579.221.488.128.934.005 1.258-.059.157-.207.256-.385.317-.868.295-2.112-.282-2.91-.788-.348-.221-.292-.734-.26-1.128.029-.363.273-.62.56-.785.639-.367 1.38.019 1.744.256.125.151.132.366.082.628-.05.261-.157.563-.267.874m.261 10.58a2.6 2.6 0 0 1-.952-.282c-.24-.117-.569-.34-.987-.678l-.099-.08m0 0-.088-.074m.088.073a17 17 0 0 0 1.563-.234c.774-.165 1.08-.357 1.34-.594.262-.237.474-.511.778-.989s.689-1.139.909-1.562.275-.603.319-.802c.044-.198.077-.408.098-.701.022-.294.033-.658.018-1.038a7.3 7.3 0 0 0-.135-1.17 5 5 0 0 0-.244-.858m-4.646 7.948-.184.02m.096-.093c-.373-.315-.78-.698-1.106-1.035-.383-.393-.642-.71-1.315-1.709a92 92 0 0 1-.908-1.379m3.33 4.123c.173-.185.357-.472.535-.896.166-.397.36-.935.895-3.153q.093-.381.195-.816M12.39 19.99a1 1 0 0 1-.096.093m-3.233-4.216a72 72 0 0 1-1.458-2.338c-.614-1.044-.73-1.408-.849-1.972a20 20 0 0 1-.121-.638m2.428 4.948c1.309-.18 2.632-.37 3.553-.51.64-.098 1.083-.172 1.402-.232m-4.955.742c-.43.06-.859.118-1.27.173m-1.158-5.121c-.072-.41-.136-.824-.173-1.098-.058-.42-.052-.488-.04-.559.012-.07.03-.142.327-.606.297-.465.872-1.32 1.204-1.8.095-.136.168-.24.228-.32m-1.546 4.383c-.304.718-.57 1.386-.77 1.923q-.08.218-.148.409m.918-2.332c.392-.929.847-1.94 1.301-2.856.335-.675.664-1.288.97-1.83m-.725.302c.15-.201.218-.256.329-.31a2.5 2.5 0 0 1 .5-.174m-.829.484a8 8 0 0 0-.496.267c-.357.207-.762.473-1.086.709a8 8 0 0 0-1.416 1.3 6 6 0 0 0-.562.78m3.56-3.056q.235-.114.463-.205c.083-.033.165-.065.262-.097m.104-.182c.255-.061.526-.096.79-.12.145-.012.296 0 .452.027m-1.242.093-.104.182m.104-.182c.39-.68.74-1.238 1.008-1.65.275-.422.458-.68.6-.858m-.366 2.415q.142.027.286.065c.26.07.523.181 1.248.685a58 58 0 0 1 2.68 2.019c.352.281.614.503.83.703M10.25 5.958c-.73.11-1.09.192-1.346.275m1.346-.275.054-.008c.985-.144 2.618-.333 3.645-.444m1.345 3.924c.262.243.454.455.651.703.36.452.725 1.015.973 1.515q.121.245.206.467m-1.83-2.685a115 115 0 0 0 .403-1.98m-.403 1.98a286 286 0 0 1-1.278 5.695m3.108-3.01q.043-.217.053-.415c.018-.37.016-.71-.052-1.026a5 5 0 0 0-.384-1.156 32 32 0 0 0-.714-1.48 10 10 0 0 0-.33-.588m1.427 4.665a8 8 0 0 1-.269.951 1.9 1.9 0 0 1-.366.645 4.4 4.4 0 0 1-1.559 1.166c-.175.078-.348.141-.914.248m-1.722 4.958q-.297.03-.583.053m.583-.053a1 1 0 0 1-.173.122c-.1.054-.21.028-.41-.069m0 0c-.2.017-.394.03-.574.04-.894.049-1.411.01-1.832-.045-.42-.057-.73-.13-1.298-.32a51 51 0 0 1-1.856-.677c-.57-.22-.716-.348-.812-.51-.054-.09-.09-.215-.13-.484a8.5 8.5 0 0 1-.082-1.211q0-.265.01-.555m6.574 3.762-.1-.05a10 10 0 0 1-.99-.606 4.4 4.4 0 0 1-.795-.684c-.266-.286-.579-.672-1.046-1.33-.29-.408-.637-.917-.99-1.426m-2.652.334c.015-.387.047-.798.094-1.19.062-.516.15-.985.483-1.933m-.577 3.123q.284-.032.658-.077c.55-.067 1.245-.157 1.994-.257m-2.652.334c-1.162.129-1.305.097-1.406.052-.192-.085-.289-.314-.422-.653a4.8 4.8 0 0 1-.306-1.342 2.2 2.2 0 0 1 .033-.492c.027-.194.072-.437.26-1.03.187-.59.516-1.523.765-2.152.24-.604.395-.902.557-1.166m1.096 3.66.083.112c.32.427.796 1.005 1.35 1.767.209.288.427.6.642.91m-2.075-2.79a4.8 4.8 0 0 1-.516-.852 6 6 0 0 1-.322-.858 5.5 5.5 0 0 1-.184-.873 9 9 0 0 1-.074-1.076m5.997-6.048c.116-.146.205-.24.293-.328.196-.195.384-.357.623-.512.24-.156.523-.302.759-.404a4 4 0 0 1 1.085-.29c.308-.045.673.087 1.049.307.178.104.289.26.46.512.17.252.386.61.574 1.011s.341.832.437 1.226c.088.366.122.689-.2 2.385m-5.08-3.907c-.527-.245-.752-.28-1.034-.264a3.2 3.2 0 0 0-.929.204c-.29.116-.52.269-.97.687a23 23 0 0 0-1.548 1.6c-.449.52-.69.888-.871 1.222-.18.333-.296.623-.386.929s-.154.619-.197.9a5 5 0 0 0-.062.77m5.997-6.048q.035.015.072.034c.579.276 1.496.787 2.107 1.15.61.363.886.563 1.154.78m1.748 1.943a6 6 0 0 0-.307-.456 7.5 7.5 0 0 0-.677-.796 9 9 0 0 0-.764-.692m0 0q0 0 0 0Zm0 0 .198-.021c1.003-.106 1.167-.109 1.284-.118a.8.8 0 0 0 .24-.049 1 1 0 0 0 .157-.08m1.802 2.064c.02-.02.31.073.82.3.437.196.91 1.13 1.445 2.299.273.597.356 1.263.445 2.373.11 1.35-.022 2.333-.251 3.005-.39 1.145-.944 1.958-1.207 2.27-.654.78-2.02 1.022-2.51.966-.18-.05-.425-.134-.65-.182a3.6 3.6 0 0 0-.628-.065"/><path fill="#fff" stroke="#000" stroke-linecap="round" stroke-width="1.5" d="M13.999 10.662c.776.017 1.403.62 1.464 1.378l.004.154c-.009.41-.018.893-.057 1.293l-.002.019-.002.02-.003.02-.003.02v.002a5.7 5.7 0 0 1-1.002 2.463l.001.001-.066.092-.068.094-.093.07-.09.067c-.123.093-.718.606-1.5.694-.412.046-1.035.107-1.637.063a4 4 0 0 1-1.021-.2 2.4 2.4 0 0 1-1.128-.805c-.36-.48-.552-1.026-.656-1.418h-.001a4.8 4.8 0 0 1-.165-1.048 1.5 1.5 0 0 1 2.999-.063l.002.006q.001.028.01.078a2.4 2.4 0 0 0 .117.451l.058.007h0c.263.02.588-.002.93-.037.176-.3.287-.636.337-.936.022-.258.033-.597.042-1.016a1.5 1.5 0 0 1 1.529-1.469zM8.761 8.108a1.5 1.5 0 0 1 1.942.853l.092.235.049.146a1.5 1.5 0 0 1-.902 1.798h0A1.5 1.5 0 0 1 8 10.29l-.093-.236v-.003a1.5 1.5 0 0 1 .853-1.943Zm5.623-1.16.056.002.098.008q.061.007.14.024a1.49 1.49 0 0 1 1.13 1.058c.171.314.238.696.137 1.084a1.5 1.5 0 0 1-1.828 1.077v0c-.352-.092-1.035-.392-1.24-1.207h0a1.64 1.64 0 0 1-.008-.758l.03-.109.006-.018a1.5 1.5 0 0 1 1.46-1.16zm-.208 2.984h.002l-.01-.002z"/></svg>