<svg width="24" height="24" viewBox="0 0 24 24" fill="none" xmlns="http://www.w3.org/2000/svg">
<path d="M12.9683 17.3858C12.9123 17.5248 12.6971 17.7106 12.2963 17.8662C11.5127 18.1704 10.208 17.5848 8.812 16.6488M8.812 16.6488C7.69306 15.8985 6.51545 14.9231 5.50044 14.0003C3.40057 12.0913 3.04304 9.64445 3.00472 7.88992C2.96739 6.18068 4.67627 4.85553 6.44786 3.78807C8.39813 2.61296 11.5633 3.38532 14.521 4.19526C15.9549 4.58793 17.091 5.42018 18.0007 6.23673C18.9477 7.08672 19.2997 8.32382 19.3176 9.71776M8.812 16.6488C8.81239 16.6543 8.81278 16.6599 8.81317 16.6655C8.90338 17.9387 9.00843 18.7793 9.49705 19.179C9.93769 19.5394 10.4884 19.9024 11.0865 19.8167C12.466 19.6192 14.5063 19.1877 16.2133 17.3652C17.2359 16.2733 18.4078 15.0648 18.7745 13.572C18.9584 12.823 19.1156 12.0629 19.213 11.3208M8.812 16.6488C8.75058 15.7579 8.81453 14.7264 8.95151 13.6358M19.3176 9.71776C19.3242 10.2345 19.2849 10.7727 19.213 11.3208M19.3176 9.71776C19.2238 8.92098 19.0116 8.15018 18.42 7.68426C17.7555 7.16092 16.9373 6.65155 15.9464 6.46847C14.7194 6.24174 13.4221 6.00568 12.401 6.07783M19.3176 9.71776C19.33 9.82341 19.3403 9.92951 19.3492 10.0354C19.3852 10.4641 19.3265 10.8946 19.213 11.3208M19.213 11.3208C19.0707 11.8548 18.8423 12.382 18.6059 12.8899C18.1861 13.7917 17.1566 14.3273 16.0758 14.7576C13.9979 15.5848 10.913 14.7307 8.95151 13.6358M8.95151 13.6358C8.98528 13.3669 9.0235 13.0944 9.06537 12.8196M8.95151 13.6358C8.82022 13.5626 8.69398 13.4882 8.5734 13.4132C8.18853 13.1738 7.95709 12.8359 7.83543 12.4366M9.06537 12.8196C9.24515 11.6394 9.49233 10.4156 9.74479 9.24493C10.045 7.85278 10.4322 7.19524 10.8535 6.69797C11.0736 6.43808 11.3855 6.27231 11.7619 6.17583M9.06537 12.8196C9.40137 12.8956 9.75184 12.9475 10.1153 12.9597C12.4148 13.0373 14.9761 12.9782 15.5758 11.6677C15.8602 11.0463 16.0783 10.332 15.9094 9.58617C15.7308 8.79775 15.4973 7.9193 14.8399 7.37951C14.2472 6.89292 13.571 6.47351 12.8217 6.31347M9.06537 12.8196C8.63004 12.7211 8.21898 12.5822 7.83543 12.4366M11.7619 6.17583C11.9586 6.12543 12.1729 6.09394 12.401 6.07783M11.7619 6.17583C11.2408 6.14503 10.7293 6.18785 10.2847 6.4035C9.57768 6.7464 8.84284 7.21833 8.58552 8.00438C8.15392 9.3228 7.45336 11.1826 7.83543 12.4366M11.7619 6.17583C12.0624 6.19359 12.366 6.23582 12.6619 6.28351C12.7155 6.29216 12.7688 6.30217 12.8217 6.31347M12.401 6.07783C12.1555 5.95486 11.895 5.84893 11.6187 5.76408C10.5066 5.42249 9.31133 5.12429 8.40881 5.56045C7.51096 5.99435 6.71076 6.65552 6.3396 7.59726C5.96443 8.54917 5.55866 9.53365 5.79891 10.4022C6.01437 11.1811 6.43471 11.8751 7.18414 12.1783C7.39117 12.2621 7.60849 12.3505 7.83543 12.4366M12.401 6.07783C12.5464 6.15067 12.6866 6.2295 12.8217 6.31347M12.8217 6.31347C14.3323 7.25241 15.2077 8.83472 15.6858 9.89152C15.907 10.3803 15.8139 10.8257 15.6914 11.1501C15.632 11.3073 15.4841 11.4063 15.3058 11.4669C14.4377 11.7618 13.1943 11.1855 12.3958 10.6787C12.0477 10.4577 12.1038 9.94509 12.1356 9.55145C12.165 9.18799 12.4093 8.93175 12.6969 8.76622C13.3348 8.39914 14.0758 8.78496 14.4395 9.0217C14.5654 9.17309 14.5723 9.38794 14.5222 9.64961C14.4722 9.91127 14.365 10.2133 14.2546 10.5244M14.5162 21.1042C14.1884 21.0692 13.9229 20.9971 13.5636 20.8219C13.3246 20.7053 12.9953 20.4813 12.5766 20.1437C12.5442 20.1176 12.5114 20.0908 12.4782 20.0634M12.4782 20.0634C12.4492 20.0394 12.4199 20.0149 12.3904 19.9899M12.4782 20.0634C13.0494 20.0009 13.6146 19.9201 14.0406 19.8293C14.815 19.6643 15.1202 19.472 15.3819 19.2348C15.6435 18.9976 15.8554 18.7237 16.1593 18.2461C16.4633 17.7684 16.8477 17.1071 17.0679 16.6838C17.2882 16.2605 17.3427 16.0807 17.3868 15.8825C17.4309 15.6842 17.4637 15.4738 17.4855 15.1806C17.5072 14.8874 17.5176 14.5225 17.5028 14.1427C17.488 13.763 17.4492 13.3799 17.3678 12.9729C17.3131 12.6992 17.2407 12.4203 17.1236 12.115M12.4782 20.0634C12.417 20.0701 12.3556 20.0766 12.2944 20.0829M12.3904 19.9899C12.0175 19.6749 11.6107 19.2918 11.2836 18.9552C10.901 18.5616 10.6424 18.2454 9.96935 17.246C9.71037 16.8614 9.39118 16.3771 9.06148 15.8672M12.3904 19.9899C12.5644 19.8047 12.7479 19.5176 12.9257 19.0941C13.0923 18.6968 13.2864 18.1588 13.8214 15.9412C13.8825 15.6879 13.9477 15.4142 14.0159 15.125M12.3904 19.9899C12.358 20.0243 12.326 20.0553 12.2944 20.0829M9.06148 15.8672C8.53435 15.052 7.98037 14.1716 7.60264 13.5293C6.98865 12.4852 6.87308 12.1208 6.75448 11.5573C6.71296 11.3601 6.6715 11.1397 6.63266 10.9186M9.06148 15.8672C10.3697 15.687 11.6934 15.4973 12.6138 15.3566C13.2532 15.2589 13.697 15.1851 14.0159 15.125M9.06148 15.8672C8.63109 15.9265 8.20238 15.9847 7.79026 16.0398M6.63266 10.9186C6.56056 10.5081 6.49748 10.0949 6.45983 9.8214C6.4019 9.40051 6.40774 9.3331 6.41979 9.2625C6.43184 9.1919 6.44993 9.12016 6.74695 8.65562C7.04397 8.19109 7.61939 7.33594 7.95112 6.85676C8.04578 6.72003 8.11918 6.61602 8.17933 6.53544M6.63266 10.9186C6.32892 11.6368 6.06255 12.3054 5.86298 12.8425C5.80894 12.9879 5.75984 13.1235 5.71516 13.2505M6.63266 10.9186C7.02532 9.99024 7.48043 8.97913 7.93444 8.06252C8.26852 7.38802 8.59779 6.77471 8.90438 6.23322M8.17933 6.53544C8.32995 6.33365 8.39743 6.27886 8.50752 6.22518C8.6614 6.15015 8.83094 6.09405 9.00811 6.05122M8.17933 6.53544C8.02313 6.61172 7.86052 6.69844 7.68299 6.80167C7.32609 7.00922 6.92118 7.27545 6.59687 7.51084C6.27256 7.74623 6.03602 7.94477 5.81023 8.15473C5.58445 8.36468 5.37576 8.57953 5.18082 8.81104C4.98587 9.04256 4.81 9.28343 4.64017 9.55695C4.63324 9.56811 4.62633 9.57931 4.61943 9.59057M8.17933 6.53544C8.33715 6.45838 8.48843 6.39198 8.64193 6.32999C8.72451 6.29664 8.80707 6.26487 8.90438 6.23322M9.00811 6.05122C9.26335 5.98952 9.53444 5.95537 9.79738 5.93186C9.9428 5.91886 10.094 5.93068 10.2503 5.95837M9.00811 6.05122C8.97384 6.11095 8.93926 6.17162 8.90438 6.23322M9.00811 6.05122C9.39859 5.37059 9.74754 4.81268 10.0161 4.40061C10.2908 3.97908 10.4742 3.72182 10.6163 3.54307M10.2503 5.95837C10.3438 5.97493 10.4391 5.99717 10.5361 6.02318C10.7951 6.09269 11.0591 6.2043 11.7839 6.70759C12.5087 7.21089 13.6865 8.10248 14.4647 8.72671C14.8158 9.00841 15.0784 9.23016 15.2938 9.43022M10.2503 5.95837C9.51946 6.0672 9.16076 6.14982 8.90438 6.23322M10.2503 5.95837C10.268 5.95574 10.2859 5.95309 10.304 5.95043C11.2893 5.80555 12.922 5.61688 13.949 5.50614M15.2938 9.43022C15.5557 9.67348 15.748 9.88469 15.9451 10.1326C16.3044 10.5845 16.6696 11.1484 16.9178 11.648C16.9991 11.8116 17.0667 11.9664 17.1236 12.115M15.2938 9.43022C15.4165 8.85243 15.5261 8.32194 15.6149 7.87238C15.6444 7.72272 15.6717 7.58208 15.6967 7.44979M15.2938 9.43022C14.9164 11.2075 14.415 13.4323 14.0159 15.125M17.1236 12.115C17.1518 11.9714 17.1707 11.8324 17.1771 11.6999C17.1949 11.3293 17.1931 10.9899 17.1248 10.6737C17.0533 10.3429 16.9745 10.0341 16.7414 9.51809C16.5658 9.12938 16.2706 8.50355 16.0273 8.03827C15.9062 7.80654 15.7993 7.61687 15.6967 7.44979M17.1236 12.115C17.0646 12.4165 16.9649 12.7388 16.8553 13.066C16.7779 13.297 16.6745 13.4858 16.4891 13.7115C16.3038 13.9372 16.0306 14.1907 15.7536 14.3972C15.4767 14.6038 15.2043 14.7558 14.93 14.8774C14.7545 14.9551 14.5816 15.0185 14.0159 15.125M12.2944 20.0829C12.097 20.1031 11.9006 20.121 11.7108 20.1363M12.2944 20.0829C12.2349 20.1348 12.177 20.1751 12.1212 20.2052C12.0219 20.2588 11.9115 20.2328 11.7108 20.1363M11.7108 20.1363C11.5102 20.1525 11.3169 20.1657 11.1373 20.1755C10.2428 20.2247 9.72583 20.1869 9.30509 20.1306C8.88435 20.0743 8.57553 20.0006 8.0074 19.8104C7.43927 19.6203 6.62119 19.3158 6.15119 19.1344C5.58023 18.914 5.43477 18.7862 5.33895 18.6248C5.28531 18.5344 5.24984 18.4093 5.20859 18.1401C5.16735 17.8709 5.12864 17.457 5.12684 16.9289C5.12624 16.7534 5.12985 16.5666 5.13752 16.374M11.7108 20.1363C11.6797 20.1214 11.6465 20.1048 11.6108 20.0865C11.3445 19.9502 10.9365 19.6987 10.6202 19.4795C10.3038 19.2603 10.0916 19.0811 9.82577 18.7958C9.55997 18.5104 9.24706 18.1243 8.77981 17.4666C8.48958 17.0581 8.14345 16.5493 7.79026 16.0398M5.13752 16.374C5.15292 15.987 5.1847 15.5762 5.23168 15.1847C5.29373 14.6675 5.38144 14.1987 5.71516 13.2505M5.13752 16.374C5.32825 16.3529 5.54645 16.3274 5.79645 16.2969C6.34652 16.2299 7.04099 16.14 7.79026 16.0398M5.13752 16.374C3.97611 16.5026 3.8333 16.4705 3.73223 16.4258C3.54048 16.341 3.44322 16.1121 3.30973 15.7725C3.11046 15.2655 3.02884 14.7644 3.00385 14.4311C2.99194 14.2723 3.009 14.1322 3.03666 13.9386C3.06433 13.745 3.10908 13.5015 3.29667 12.9098C3.48426 12.3181 3.81333 11.3856 4.06234 10.7566C4.30119 10.1533 4.45721 9.85528 4.61943 9.59057M5.71516 13.2505C5.74155 13.2867 5.76925 13.3241 5.79836 13.363C6.11815 13.7898 6.59398 14.3678 7.14722 15.1296C7.35681 15.4182 7.57485 15.7291 7.79026 16.0398M5.71516 13.2505C5.45153 12.889 5.31734 12.6527 5.19875 12.3982C5.06829 12.1182 4.96123 11.8239 4.87726 11.5398C4.79328 11.2558 4.73564 10.9908 4.69258 10.6672C4.64951 10.3436 4.62276 9.96948 4.61971 9.65611C4.61949 9.63391 4.6194 9.61208 4.61943 9.59057M10.6163 3.54307C10.7324 3.39696 10.821 3.3033 10.9091 3.21527C11.1051 3.01952 11.2934 2.85831 11.5323 2.70253C11.7712 2.54675 12.055 2.40128 12.2909 2.29907C12.6995 2.12211 13.0543 2.05491 13.3761 2.00855C13.684 1.96421 14.0492 2.09609 14.4249 2.31585C14.6027 2.41986 14.7139 2.57672 14.8844 2.82832C15.0549 3.07992 15.2711 3.43893 15.4591 3.83944C15.6472 4.23995 15.8005 4.67108 15.8957 5.0653C15.984 5.431 16.0182 5.75369 15.6967 7.44979M10.6163 3.54307C10.0893 3.29767 9.86379 3.26218 9.58238 3.27888C9.28857 3.29632 8.94423 3.36846 8.65343 3.48349C8.36263 3.59853 8.13235 3.75183 7.68292 4.16964C7.23349 4.58746 6.58458 5.24973 6.13541 5.77027C5.68624 6.29082 5.44415 6.65849 5.26371 6.99167C5.08328 7.32486 4.96799 7.61476 4.87762 7.9209C4.78724 8.22705 4.72371 8.53995 4.6809 8.82069C4.64112 9.08156 4.61979 9.30836 4.61943 9.59057M10.6163 3.54307C10.6395 3.55389 10.6634 3.56512 10.6878 3.57676C11.2666 3.85262 12.1842 4.36369 12.7948 4.72699C13.4049 5.08998 13.6808 5.28998 13.949 5.50614M15.6967 7.44979C15.5934 7.2814 15.4944 7.13597 15.3896 6.99361C15.1808 6.71001 14.9558 6.44658 14.7132 6.19812C14.4706 5.94966 14.2174 5.72249 13.949 5.50614M13.949 5.50614C13.9492 5.50632 13.9488 5.50595 13.949 5.50614ZM13.949 5.50614C14.0178 5.49872 14.0838 5.49165 14.1468 5.48497C15.1501 5.37853 15.3141 5.3763 15.4311 5.36689C15.5481 5.35747 15.613 5.34095 15.6709 5.31824C15.7287 5.29554 15.7775 5.26716 15.8278 5.23792M17.6302 7.30168C17.6491 7.28195 17.9393 7.37537 18.4492 7.60294C18.8867 7.79825 19.3598 8.73233 19.8945 9.90055C20.168 10.4981 20.2506 11.164 20.3403 12.2741C20.4492 13.6232 20.318 14.6071 20.0888 15.279C19.6985 16.4235 19.1452 17.2368 18.8821 17.5499C18.2276 18.3289 16.8627 18.5712 16.3711 18.5146C16.1925 18.4655 15.9474 18.3807 15.722 18.3329C15.4966 18.2851 15.2981 18.2767 15.0937 18.2681" stroke="black" stroke-width="2" stroke-linecap="round"/>
<path d="M13.999 10.6622C14.7754 10.6786 15.4018 11.2826 15.4629 12.0402L15.4668 12.1935C15.4582 12.6046 15.4494 13.0867 15.4102 13.4874L15.4082 13.506L15.4062 13.5255L15.4033 13.546L15.4004 13.5656V13.5675C15.2839 14.3294 14.9794 15.2312 14.3984 16.0314L14.3994 16.0323L14.333 16.1241L14.2646 16.2179L14.1719 16.2872L14.0811 16.3546C13.9591 16.4476 13.3644 16.9613 12.5811 17.049C12.1705 17.0948 11.5471 17.1555 10.9453 17.1124C10.6414 17.0906 10.2796 17.0383 9.92383 16.9113C9.57011 16.7848 9.12926 16.551 8.7959 16.1066C8.43617 15.6266 8.24424 15.0809 8.13965 14.6886H8.13867C8.03353 14.2941 7.97914 13.9058 7.97363 13.6407C7.95661 12.8129 8.61401 12.1267 9.44238 12.1095C10.2705 12.0925 10.9552 12.7505 10.9727 13.5782L10.9746 13.5841C10.9764 13.602 10.9793 13.6288 10.9844 13.6622C10.9946 13.7295 11.012 13.8181 11.0381 13.9161C11.0584 13.9924 11.0804 14.0581 11.1016 14.1134C11.1196 14.1152 11.1393 14.1187 11.1602 14.1202H11.1592C11.4231 14.1391 11.7479 14.1179 12.0898 14.0831C12.2662 13.7833 12.3768 13.447 12.4268 13.1466C12.4492 12.8888 12.46 12.55 12.4688 12.131C12.4862 11.3043 13.1693 10.6455 13.998 10.6622H13.999ZM8.76074 8.10754C9.53267 7.80692 10.4024 8.18962 10.7031 8.96106L10.7949 9.19641L10.8438 9.34192C11.047 10.0747 10.6657 10.8577 9.94238 11.1398H9.94141C9.16999 11.44 8.30253 11.0581 8.00098 10.2892L7.9082 10.0538L7.90723 10.0509C7.60627 9.27882 7.98915 8.40834 8.76074 8.10754ZM14.3838 6.94836L14.4404 6.95032L14.5381 6.95813C14.5785 6.96283 14.6257 6.97052 14.6777 6.98157C14.909 7.03078 15.2497 7.16344 15.5225 7.49231C15.6806 7.68309 15.7634 7.87954 15.8086 8.03918C15.979 8.3535 16.0456 8.73606 15.9453 9.12415C15.7377 9.92624 14.9189 10.4087 14.1172 10.2013V10.2003C13.7651 10.1091 13.0818 9.80927 12.8779 8.99426H12.877C12.7959 8.6697 12.8335 8.39519 12.8691 8.23645L12.8994 8.12708C12.9015 8.12057 12.9036 8.11363 12.9053 8.10852C13.0597 7.44382 13.6535 6.94836 14.3652 6.94836H14.3838ZM14.1758 9.93176H14.1777C14.1746 9.93113 14.1717 9.93039 14.1689 9.92981C14.1711 9.93026 14.1733 9.93128 14.1758 9.93176Z" fill="white" stroke="black" stroke-width="1.5" stroke-linecap="round"/>
</svg>
