<svg width="24" height="24" viewBox="0 0 24 24" fill="none" xmlns="http://www.w3.org/2000/svg">
<path d="M8.26371 12.4083C8.51151 12.0764 8.44333 11.6064 8.11142 11.3586C7.77951 11.1108 7.30956 11.179 7.06175 11.5109L7.66273 11.9596L8.26371 12.4083ZM7.6029 12.0397L6.97064 12.4432L7.55449 13.3582L8.20388 12.4884L7.6029 12.0397ZM7.39808 11.7187L7.19115 10.9978L6.22535 11.275L6.76581 12.1221L7.39808 11.7187ZM7.61352 11.6569L8.14729 11.13L7.83453 10.8131L7.4066 10.936L7.61352 11.6569ZM7.88892 11.9359L8.48385 12.3926L8.88181 11.8742L8.4227 11.409L7.88892 11.9359ZM7.61471 12.2931L7.4698 13.029L7.92632 13.1189L8.20964 12.7498L7.61471 12.2931ZM7.20984 12.2134L6.46037 12.1851L6.43623 12.8254L7.06493 12.9493L7.20984 12.2134ZM7.22191 11.893L6.88607 11.2224L6.48916 11.4212L6.47244 11.8648L7.22191 11.893ZM7.60478 11.7013L8.15799 11.1949L7.77547 10.777L7.26894 11.0307L7.60478 11.7013ZM7.91533 12.0405L8.27937 12.6963L9.11017 12.235L8.46854 11.5341L7.91533 12.0405ZM7.65174 12.1869L7.66936 12.9367L7.85416 12.9323L8.01578 12.8426L7.65174 12.1869ZM7.33011 12.1944L7.31249 11.4446L7.08406 12.9029L7.33011 12.1944ZM7.20898 12.9463C7.60027 13.0822 8.02763 12.8751 8.16352 12.4839C8.29941 12.0926 8.09237 11.6652 7.70108 11.5293L7.45503 12.2378L7.20898 12.9463ZM7.66273 11.9596L7.06175 11.5109L7.00193 11.5911L7.6029 12.0397L8.20388 12.4884L8.26371 12.4083L7.66273 11.9596ZM7.6029 12.0397L8.23517 11.6363L8.03034 11.3153L7.39808 11.7187L6.76581 12.1221L6.97064 12.4432L7.6029 12.0397ZM7.39808 11.7187L7.605 12.4396L7.82045 12.3778L7.61352 11.6569L7.4066 10.936L7.19115 10.9978L7.39808 11.7187ZM7.61352 11.6569L7.07975 12.1837L7.35515 12.4628L7.88892 11.9359L8.4227 11.409L8.14729 11.13L7.61352 11.6569ZM7.88892 11.9359L7.294 11.4792L7.01978 11.8364L7.61471 12.2931L8.20964 12.7498L8.48385 12.3926L7.88892 11.9359ZM7.61471 12.2931L7.75962 11.5572L7.35474 11.4775L7.20984 12.2134L7.06493 12.9493L7.4698 13.029L7.61471 12.2931ZM7.20984 12.2134L7.9593 12.2416L7.97138 11.9213L7.22191 11.893L6.47244 11.8648L6.46037 12.1851L7.20984 12.2134ZM7.22191 11.893L7.55775 12.5636L7.94062 12.3719L7.60478 11.7013L7.26894 11.0307L6.88607 11.2224L7.22191 11.893ZM7.60478 11.7013L7.05157 12.2077L7.36212 12.5469L7.91533 12.0405L8.46854 11.5341L8.15799 11.1949L7.60478 11.7013ZM7.91533 12.0405L7.55129 11.3848L7.2877 11.5311L7.65174 12.1869L8.01578 12.8426L8.27937 12.6963L7.91533 12.0405ZM7.65174 12.1869L7.63412 11.4371L7.31249 11.4446L7.33011 12.1944L7.34773 12.9442L7.66936 12.9367L7.65174 12.1869ZM7.33011 12.1944L7.08406 12.9029L7.20898 12.9463L7.45503 12.2378L7.70108 11.5293L7.57616 11.4859L7.33011 12.1944Z" fill="black"/>
<path d="M15.6237 9.79399C15.8448 10.1443 16.3079 10.2491 16.6582 10.0281C17.0086 9.80705 17.1134 9.34388 16.8923 8.99357L16.258 9.39378L15.6237 9.79399ZM16.2047 9.3092L15.4944 9.06847L15.3796 9.40706L15.5704 9.70941L16.2047 9.3092ZM16.3188 8.97239L16.7241 8.34135L15.9166 7.82266L15.6085 8.73166L16.3188 8.97239ZM16.6142 9.1621L17.289 8.83478L17.1969 8.64503L17.0195 8.53106L16.6142 9.1621ZM16.78 9.50401L17.4336 9.8719L17.6261 9.52985L17.4548 9.17669L16.78 9.50401ZM16.5577 9.89905L16.4764 10.6446L16.9684 10.6983L17.2112 10.2669L16.5577 9.89905ZM16.1349 9.85296L15.4315 10.1132L15.5925 10.5483L16.0536 10.5985L16.1349 9.85296ZM16.0128 9.52279L15.303 9.28048L15.2168 9.53289L15.3094 9.78304L16.0128 9.52279ZM16.1496 9.12198L16.408 8.4179L15.6877 8.15355L15.4398 8.87967L16.1496 9.12198ZM16.5718 9.27691L17.3078 9.42077L17.4305 8.79316L16.8302 8.57283L16.5718 9.27691ZM16.5225 9.52903L16.6163 10.2731L17.1545 10.2053L17.2586 9.67289L16.5225 9.52903ZM16.1219 9.57954L15.3739 9.52461L15.3068 10.4382L16.2157 10.3236L16.1219 9.57954ZM16.1436 9.28366L16.8916 9.33859L16.9021 9.19568L16.8592 9.05896L16.1436 9.28366ZM16.8147 8.91723C16.6906 8.52204 16.2696 8.30228 15.8744 8.42638C15.4792 8.55047 15.2595 8.97143 15.3836 9.36662L16.0991 9.14193L16.8147 8.91723ZM16.258 9.39378L16.8923 8.99357L16.839 8.909L16.2047 9.3092L15.5704 9.70941L15.6237 9.79399L16.258 9.39378ZM16.2047 9.3092L16.915 9.54994L17.0291 9.21313L16.3188 8.97239L15.6085 8.73166L15.4944 9.06847L16.2047 9.3092ZM16.3188 8.97239L15.9135 9.60344L16.2089 9.79315L16.6142 9.1621L17.0195 8.53106L16.7241 8.34135L16.3188 8.97239ZM16.6142 9.1621L15.9394 9.48943L16.1052 9.83134L16.78 9.50401L17.4548 9.17669L17.289 8.83478L16.6142 9.1621ZM16.78 9.50401L16.1265 9.13612L15.9041 9.53116L16.5577 9.89905L17.2112 10.2669L17.4336 9.8719L16.78 9.50401ZM16.5577 9.89905L16.6389 9.15347L16.2162 9.10738L16.1349 9.85296L16.0536 10.5985L16.4764 10.6446L16.5577 9.89905ZM16.1349 9.85296L16.8383 9.59272L16.7162 9.26255L16.0128 9.52279L15.3094 9.78304L15.4315 10.1132L16.1349 9.85296ZM16.0128 9.52279L16.7225 9.7651L16.8594 9.36429L16.1496 9.12198L15.4398 8.87967L15.303 9.28048L16.0128 9.52279ZM16.1496 9.12198L15.8912 9.82606L16.3134 9.98099L16.5718 9.27691L16.8302 8.57283L16.408 8.4179L16.1496 9.12198ZM16.5718 9.27691L15.8357 9.13305L15.7864 9.38517L16.5225 9.52903L17.2586 9.67289L17.3078 9.42077L16.5718 9.27691ZM16.5225 9.52903L16.4287 8.78492L16.0281 8.83543L16.1219 9.57954L16.2157 10.3236L16.6163 10.2731L16.5225 9.52903ZM16.1219 9.57954L16.8699 9.63446L16.8916 9.33859L16.1436 9.28366L15.3956 9.22873L15.3739 9.52461L16.1219 9.57954ZM16.1436 9.28366L16.8592 9.05896L16.8147 8.91723L16.0991 9.14193L15.3836 9.36662L15.4281 9.50836L16.1436 9.28366Z" fill="black"/>
<path d="M10.6233 1.58696C10.9475 1.32912 11.0012 0.857296 10.7434 0.533125C10.4855 0.208953 10.0137 0.155187 9.68956 0.413035L10.1564 1L10.6233 1.58696ZM10.0782 1.06225L10.2149 1.79968L10.3987 1.76559L10.545 1.64921L10.0782 1.06225ZM9.78374 1.11684L9.66578 1.85751L9.7934 1.87784L9.92047 1.85427L9.78374 1.11684ZM9.36247 1.04975L9.48043 0.309087L9.13307 0.253765L8.86843 0.485459L9.36247 1.04975ZM9.04486 1.32782L9.45879 1.95325L9.5009 1.92538L9.5389 1.89211L9.04486 1.32782ZM8.72062 1.54241L8.85044 2.28109L9.00429 2.25405L9.13455 2.16784L8.72062 1.54241ZM8.32084 1.61266L8.19102 0.873983L8.05245 0.898336L7.93212 0.971259L8.32084 1.61266ZM7.98634 1.81538L7.59762 1.17398L7.45053 1.26312L7.35698 1.40745L7.98634 1.81538ZM7.76825 2.15184L8.24513 2.73071L8.33457 2.65703L8.39761 2.55978L7.76825 2.15184ZM7.4696 2.39788L7.76051 3.08916L7.86172 3.04656L7.94648 2.97674L7.4696 2.39788ZM7.06902 2.56645L6.7781 1.87517L6.36709 2.04814L6.32274 2.49187L7.06902 2.56645ZM7.02207 3.03616L7.48787 3.62398L7.73677 3.42674L7.76835 3.11075L7.02207 3.03616ZM6.70997 3.28347L6.24417 2.69565L6.09655 2.81263L6.02172 2.98547L6.70997 3.28347ZM6.54987 3.65324L6.86831 4.33228L7.12533 4.21175L7.23812 3.95124L6.54987 3.65324ZM6.15467 3.83858L5.83623 3.15954L5.62251 3.25977L5.50472 3.46434L6.15467 3.83858ZM5.95819 4.17983L5.30822 3.80559L5.30686 3.80798L5.95819 4.17983ZM5.76317 4.52143L5.11184 4.14958L5.08864 4.19021L5.07067 4.23341L5.76317 4.52143ZM5.60872 4.89278L5.82911 5.60967L6.1659 5.50613L6.30121 5.1808L5.60872 4.89278ZM5.14687 5.03477L4.92648 4.31788L4.40104 4.47942L4.39689 5.02912L5.14687 5.03477ZM5.14324 5.51666L5.54686 6.14878L5.89014 5.92959L5.89321 5.52231L5.14324 5.51666ZM4.79075 5.74173L4.38712 5.1096L4.19213 5.23411L4.10116 5.44682L4.79075 5.74173ZM4.63376 6.10882L4.93968 6.79359L5.20785 6.67378L5.32334 6.40373L4.63376 6.10882ZM4.21946 6.2939L3.91354 5.60913L3.44368 5.81904L3.47048 6.33296L4.21946 6.2939ZM4.24503 6.78426L4.76949 7.32039L5.01165 7.0835L4.99401 6.7452L4.24503 6.78426ZM3.96145 7.06166L3.43699 6.52553L3.39699 6.56466L3.36323 6.60929L3.96145 7.06166ZM3.7262 7.37276L3.12798 6.92039L3.08616 6.9757L3.05519 7.03774L3.7262 7.37276ZM3.5523 7.72107L3.97174 8.34282L4.13523 8.23253L4.22332 8.05609L3.5523 7.72107ZM3.18819 7.9667L2.76875 7.34496L2.4819 7.53847L2.44296 7.88229L3.18819 7.9667ZM3.14108 8.3826L3.82895 8.68149L3.87369 8.57854L3.88632 8.46701L3.14108 8.3826ZM2.98594 8.73965L3.48192 9.30224L3.60723 9.19176L3.6738 9.03854L2.98594 8.73965ZM2.66175 9.02546L2.16577 8.46287L1.85224 8.73928L1.92239 9.15132L2.66175 9.02546ZM2.73894 9.47892L3.37159 9.88172L3.5268 9.63795L3.47831 9.35306L2.73894 9.47892ZM2.52586 9.81358L1.89321 9.41078L1.88809 9.41882L1.88317 9.427L2.52586 9.81358ZM2.31822 10.1588L1.67552 9.77221L1.55357 9.97496L1.57003 10.211L2.31822 10.1588ZM2.3469 10.5699L3.08544 10.7005L3.1015 10.6097L3.09508 10.5177L2.3469 10.5699ZM2.27939 10.9517L2.8661 11.4189L2.98477 11.2699L3.01794 11.0823L2.27939 10.9517ZM1.99993 11.3027L1.41323 10.8355L1.09939 11.2296L1.34557 11.6692L1.99993 11.3027ZM2.23817 11.728L2.8094 12.214L3.14744 11.8167L2.89253 11.3616L2.23817 11.728ZM1.93246 12.0874L1.36123 11.6014L1.17796 11.8168L1.18256 12.0996L1.93246 12.0874ZM1.93887 12.4811L1.18897 12.4933L1.19199 12.6793L1.28158 12.8424L1.93887 12.4811ZM2.16024 12.884L2.90989 12.9069L2.91615 12.7022L2.81753 12.5228L2.16024 12.884ZM2.14853 13.2668L2.80098 13.6367L2.8925 13.4752L2.89818 13.2897L2.14853 13.2668ZM1.92438 13.6622L1.27193 13.2923L1.11211 13.5742L1.20787 13.8838L1.92438 13.6622ZM2.0432 14.0464L2.78646 13.946L2.77812 13.8842L2.75971 13.8247L2.0432 14.0464ZM2.09537 14.4326L2.84485 14.4047L2.8435 14.3683L2.83862 14.3323L2.09537 14.4326ZM2.10997 14.8251L1.36049 14.853L1.36133 14.8755L1.36352 14.898L2.10997 14.8251ZM2.14814 15.2163L2.89503 15.1479L2.8946 15.1435L2.14814 15.2163ZM2.18466 15.6148L1.43779 15.6833L1.46341 15.9628L1.66631 16.1569L2.18466 15.6148ZM2.5072 15.9233L3.24637 15.7963L3.20447 15.5523L3.02555 15.3812L2.5072 15.9233ZM2.57398 16.3121L1.8348 16.4391L1.87273 16.6599L2.02557 16.8237L2.57398 16.3121ZM2.85219 16.6103L3.60205 16.5959L3.59652 16.3087L3.4006 16.0987L2.85219 16.6103ZM2.86047 17.0401L2.11061 17.0546L2.115 17.2823L2.24529 17.4691L2.86047 17.0401ZM3.08532 17.3626L3.73783 16.9928L3.72055 16.9623L3.7005 16.9336L3.08532 17.3626ZM3.27756 17.7018L2.62505 18.0716L2.66386 18.1401L2.71604 18.199L3.27756 17.7018ZM3.53999 17.9982L4.20205 17.6458L4.16035 17.5674L4.10151 17.501L3.53999 17.9982ZM3.72214 18.3404L3.06007 18.6928L3.06727 18.7063L3.075 18.7195L3.72214 18.3404ZM3.9191 18.6766L3.27196 19.0557L3.28618 19.08L3.30218 19.1031L3.9191 18.6766ZM4.14083 18.9974L3.52391 19.4239L3.57206 19.4935L3.63452 19.5507L4.14083 18.9974ZM4.43078 19.2627L3.92446 19.816L3.92992 19.821L3.93547 19.8258L4.43078 19.2627ZM4.72469 19.5212L5.29417 19.0331L5.25974 18.9929L5.22 18.958L4.72469 19.5212ZM4.97717 19.8158L5.5617 19.3458L5.55432 19.3367L5.54665 19.3277L4.97717 19.8158ZM5.22142 20.1196L5.9307 19.8758L5.88809 19.7518L5.80595 19.6497L5.22142 20.1196ZM5.36255 20.5302L4.65326 20.774L4.73019 20.9978L4.92168 21.137L5.36255 20.5302ZM5.68568 20.765L5.24482 21.3718L5.36401 21.4584L5.50709 21.4935L5.68568 20.765ZM6.09673 20.8658L6.49506 20.2303L6.39268 20.1662L6.27532 20.1374L6.09673 20.8658ZM6.42124 21.0692L6.95148 20.5388L6.89146 20.4788L6.81956 20.4337L6.42124 21.0692ZM6.70686 21.3547L6.17662 21.8852L6.23491 21.9434L6.30448 21.9877L6.70686 21.3547ZM7.04018 21.5667L6.63779 22.1996L6.67018 22.2202L6.7045 22.2373L7.04018 21.5667ZM7.39554 21.7445L7.05986 22.4152L7.09717 22.4339L7.13632 22.4483L7.39554 21.7445ZM7.77404 21.8839L7.51482 22.5877L7.62304 22.6276L7.73823 22.6331L7.77404 21.8839ZM8.17436 21.9031L8.31315 21.166L8.26208 21.1564L8.21017 21.1539L8.17436 21.9031ZM8.56176 21.976L8.76145 21.2531L8.73129 21.2447L8.70054 21.239L8.56176 21.976ZM8.94735 22.0825L8.74766 22.8054L8.99234 22.873L9.22777 22.7781L8.94735 22.0825ZM9.35096 21.9198L9.20757 21.1836L9.13712 21.1974L9.07055 21.2242L9.35096 21.9198ZM9.74392 21.8433L9.90944 21.1118L9.75548 21.0769L9.60053 21.1071L9.74392 21.8433ZM10.1301 21.9306L9.96456 22.6622L10.0191 22.6745L10.0748 22.6786L10.1301 21.9306ZM10.5192 21.9594L10.464 22.7074L10.508 22.7106L10.5522 22.7087L10.5192 21.9594ZM10.9088 21.9422L10.8759 21.193L10.8758 21.193L10.9088 21.9422ZM11.2942 21.9253L11.5151 21.2086L11.391 21.1704L11.2613 21.1761L11.2942 21.9253ZM11.7006 22.0507L11.4797 22.7674L11.7934 22.8641L12.0773 22.6992L11.7006 22.0507ZM12.0614 21.8412L11.954 21.0989L11.8103 21.1197L11.6847 21.1926L12.0614 21.8412ZM12.4477 21.7853L12.5551 22.5276L12.6059 22.5202L12.6552 22.506L12.4477 21.7853ZM12.8224 21.6774L12.6649 20.9441L12.6397 20.9496L12.6149 20.9567L12.8224 21.6774ZM13.2044 21.5954L13.2023 20.8454L13.1237 20.8456L13.0469 20.8621L13.2044 21.5954ZM13.6106 21.5942L13.6127 22.3442L13.9773 22.3432L14.2017 22.0558L13.6106 21.5942ZM13.9047 21.2176L14.1682 20.5154L13.6526 20.3219L13.3136 20.7559L13.9047 21.2176ZM14.3666 21.3909L14.1031 22.0931L14.361 22.1898L14.6202 22.0967L14.3666 21.3909ZM14.7351 21.2584L14.9887 21.9642L15.0976 21.9251L15.1895 21.8551L14.7351 21.2584ZM15.0637 21.0081L14.6353 20.3925L14.6221 20.4017L14.6092 20.4115L15.0637 21.0081ZM15.3948 20.7778L15.1225 20.0789L15.0395 20.1112L14.9664 20.1621L15.3948 20.7778ZM15.7524 20.6385L16.0246 21.3373L16.0597 21.3237L16.0933 21.3065L15.7524 20.6385ZM16.0946 20.4638L16.1808 19.7188L15.9556 19.6927L15.7536 19.7958L16.0946 20.4638ZM16.5593 20.5176L16.4731 21.2626L16.8203 21.3028L17.0744 21.0628L16.5593 20.5176ZM16.8537 20.2395L16.5672 19.5464L16.4393 19.5993L16.3387 19.6943L16.8537 20.2395ZM17.2203 20.088L17.5067 20.7811L17.6487 20.7225L17.7562 20.6127L17.2203 20.088ZM17.5006 19.8017L17.1404 19.1438L17.0426 19.1974L16.9647 19.277L17.5006 19.8017ZM17.8447 19.6133L18.2049 20.2711L18.3884 20.1706L18.4934 19.9897L17.8447 19.6133ZM18.0594 19.2432L18.055 18.4933L17.626 18.4958L17.4107 18.8668L18.0594 19.2432ZM18.54 19.2404L18.5445 19.9904L19.0231 19.9876L19.2221 19.5523L18.54 19.2404ZM18.7241 18.8379L18.347 18.1896L18.1411 18.3093L18.0421 18.526L18.7241 18.8379ZM19.0657 18.6391L19.4429 19.2874L19.5038 19.2519L19.5571 19.2057L19.0657 18.6391ZM19.362 18.3822L19.8534 18.9488L20.011 18.8121L20.0754 18.6137L19.362 18.3822ZM19.4929 17.9789L19.1087 17.3348L18.8665 17.4792L18.7795 17.7474L19.4929 17.9789ZM19.8466 17.7679L20.2308 18.4121L20.3365 18.349L20.4165 18.2555L19.8466 17.7679ZM20.1007 17.4709L19.6476 16.8732L19.5833 16.922L19.5308 16.9833L20.1007 17.4709ZM20.4359 17.2168L20.8889 17.8145L21.1874 17.5883L21.1859 17.2138L20.4359 17.2168ZM20.4341 16.7648L19.7759 16.4052L19.6834 16.5746L19.6841 16.7677L20.4341 16.7648ZM20.6202 16.4242L20.0345 15.9557L19.9935 16.007L19.962 16.0646L20.6202 16.4242ZM20.8725 16.1089L21.4581 16.5774L21.4917 16.5354L21.5189 16.4891L20.8725 16.1089ZM21.0732 15.7677L21.7196 16.148L21.7687 16.0644L21.795 15.9711L21.0732 15.7677ZM21.1799 15.3891L21.9017 15.5925L21.9217 15.5218L21.9275 15.4485L21.1799 15.3891ZM21.212 14.9843L20.4823 14.8109L20.469 14.8672L20.4644 14.9249L21.212 14.9843ZM21.3027 14.6025L22.0324 14.7759L22.0328 14.7743L21.3027 14.6025ZM21.3925 14.2209L20.9247 13.6348L20.7219 13.7966L20.6625 14.0491L21.3925 14.2209ZM21.7564 13.9305L22.2243 14.5167L22.6275 14.1948L22.4711 13.7031L21.7564 13.9305ZM21.6149 13.4857L20.9248 13.1919L20.8158 13.448L20.9002 13.7131L21.6149 13.4857ZM21.7682 13.1255L22.4583 13.4193L22.4957 13.3316L22.5099 13.2373L21.7682 13.1255ZM21.826 12.7429L21.1201 12.4893L21.0953 12.5584L21.0843 12.6311L21.826 12.7429ZM21.9606 12.3682L22.6664 12.6217L22.7209 12.47L22.7083 12.3092L21.9606 12.3682ZM21.9295 11.9739L21.2235 11.7209L21.1692 11.8724L21.1818 12.0329L21.9295 11.9739ZM22.0671 11.5898L22.7732 11.8429L22.847 11.6369L22.7985 11.4235L22.0671 11.5898ZM21.9783 11.1991L21.272 10.9467L21.1985 11.1524L21.2469 11.3654L21.9783 11.1991ZM22.1224 10.7957L22.8287 11.0481L22.9763 10.6349L22.6885 10.3038L22.1224 10.7957ZM21.8115 10.438L21.1353 10.1137L20.9222 10.558L21.2454 10.93L21.8115 10.438ZM22.0176 10.0083L22.6939 10.3326L22.8169 10.0762L22.7389 9.80267L22.0176 10.0083ZM21.9089 9.62682L22.6302 9.42122L22.5671 9.20005L22.391 9.05224L21.9089 9.62682ZM21.5396 9.31701L20.7992 9.43661L20.8437 9.71218L21.0576 9.89159L21.5396 9.31701ZM21.4778 8.93445L20.7283 8.96173L20.73 9.00817L20.7374 9.05405L21.4778 8.93445ZM21.4631 8.5304L20.7132 8.5398L20.7133 8.54874L20.7136 8.55768L21.4631 8.5304ZM21.4579 8.11239L22.2078 8.10299L22.2043 7.82487L22.0204 7.61627L21.4579 8.11239ZM21.1836 7.8014L20.4854 8.07538L20.5337 8.1984L20.6211 8.29752L21.1836 7.8014ZM21.0402 7.43602L21.7384 7.16205L21.7089 7.08699L21.6642 7.01992L21.0402 7.43602ZM20.8214 7.10795L21.4454 6.69185L21.3998 6.62349L21.3405 6.56662L20.8214 7.10795ZM20.5385 6.83662L19.8967 7.22466L19.9479 7.30941L20.0194 7.37796L20.5385 6.83662ZM20.3314 6.4941L20.9732 6.10605L20.9293 6.03341L20.8702 5.97242L20.3314 6.4941ZM20.0585 6.21221L19.444 6.64222L19.4782 6.69106L19.5196 6.73389L20.0585 6.21221ZM19.8292 5.88452L20.4437 5.45451L20.3011 5.25073L20.065 5.17254L19.8292 5.88452ZM19.4224 5.7498L18.7481 6.07825L18.8866 6.36241L19.1866 6.46178L19.4224 5.7498ZM19.2381 5.37149L19.9124 5.04304L19.8309 4.87575L19.6806 4.76596L19.2381 5.37149ZM18.9211 5.1398L18.3886 5.66799L18.4305 5.71022L18.4786 5.74533L18.9211 5.1398ZM18.6456 4.8621L19.1781 4.33392L19.0838 4.23882L18.9623 4.18225L18.6456 4.8621ZM18.2772 4.69049L18.594 4.01064L18.5641 3.99673L18.5331 3.9855L18.2772 4.69049ZM17.8907 4.55019L17.458 5.1628L17.5402 5.22085L17.6348 5.25518L17.8907 4.55019ZM17.5821 4.33223L17.0053 4.81153L17.0685 4.8877L17.1494 4.94484L17.5821 4.33223ZM17.3196 4.01622L17.8964 3.53691L17.7112 3.31397L17.4241 3.27354L17.3196 4.01622ZM16.9214 3.96015L16.4595 4.55099L16.6178 4.67479L16.8168 4.70282L16.9214 3.96015ZM16.5993 3.70833L17.0613 3.11748L16.9067 2.99662L16.7128 2.96695L16.5993 3.70833ZM16.2085 3.64853L15.9954 4.36763L16.0445 4.38217L16.0951 4.38991L16.2085 3.64853ZM15.835 3.53785L16.048 2.81875L16.0062 2.80636L15.9632 2.7989L15.835 3.53785ZM15.4496 3.47095L15.5778 2.732L15.5104 2.72028L15.4419 2.72099L15.4496 3.47095ZM15.0476 3.47506L14.7554 4.16579L14.8992 4.22662L15.0553 4.22502L15.0476 3.47506ZM14.6854 3.32182L14.2802 3.95292L14.3341 3.98756L14.3932 4.01254L14.6854 3.32182ZM14.3363 3.09764L14.7415 2.46654L14.6124 2.38364L14.4611 2.3581L14.3363 3.09764ZM13.9507 3.03256L13.7753 3.76176L13.8004 3.7678L13.8259 3.7721L13.9507 3.03256ZM13.57 2.94098L13.7454 2.21178L13.5307 2.16011L13.3222 2.2331L13.57 2.94098ZM13.1573 3.08547L12.748 3.71395L13.057 3.91521L13.4051 3.79335L13.1573 3.08547ZM12.7891 2.84572L13.1984 2.21724L12.8383 1.98271L12.4539 2.17482L12.7891 2.84572ZM12.4068 3.03676L12.5543 3.77213L12.6525 3.75243L12.7421 3.70765L12.4068 3.03676ZM12.0325 3.1118L12.0178 3.86166L12.0997 3.86326L12.1799 3.84717L12.0325 3.1118ZM11.6287 3.10389L11.154 3.68453L11.3547 3.84866L11.614 3.85374L11.6287 3.10389ZM11.2735 2.81345L11.7482 2.23281L11.6089 2.11891L11.433 2.08062L11.2735 2.81345ZM10.8842 2.7287L11.0438 1.99587L10.7764 1.93765L10.5343 2.06534L10.8842 2.7287ZM10.4839 2.93986L10.421 3.68722L10.6397 3.70564L10.8338 3.60323L10.4839 2.93986ZM10.0817 2.90599L10.1447 2.15864L10.0053 2.1469L9.87101 2.18621L10.0817 2.90599ZM9.68414 3.0224L9.47341 2.30261L8.94057 2.45861L8.93419 3.01377L9.68414 3.0224ZM8.93234 3.17435C8.92758 3.58854 9.25948 3.92816 9.67367 3.93293C10.0879 3.93769 10.4275 3.60579 10.4322 3.1916L9.68229 3.18298L8.93234 3.17435ZM10.1564 1L9.68956 0.413035L9.61129 0.475285L10.0782 1.06225L10.545 1.64921L10.6233 1.58696L10.1564 1ZM10.0782 1.06225L9.94143 0.32482L9.647 0.379415L9.78374 1.11684L9.92047 1.85427L10.2149 1.79968L10.0782 1.06225ZM9.78374 1.11684L9.9017 0.376179L9.48043 0.309087L9.36247 1.04975L9.24451 1.79042L9.66578 1.85751L9.78374 1.11684ZM9.36247 1.04975L8.86843 0.485459L8.55082 0.763523L9.04486 1.32782L9.5389 1.89211L9.8565 1.61404L9.36247 1.04975ZM9.04486 1.32782L8.63093 0.702384L8.30669 0.916974L8.72062 1.54241L9.13455 2.16784L9.45879 1.95325L9.04486 1.32782ZM8.72062 1.54241L8.59081 0.803726L8.19102 0.873983L8.32084 1.61266L8.45065 2.35134L8.85044 2.28109L8.72062 1.54241ZM8.32084 1.61266L7.93212 0.971259L7.59762 1.17398L7.98634 1.81538L8.37506 2.45679L8.70955 2.25407L8.32084 1.61266ZM7.98634 1.81538L7.35698 1.40745L7.1389 1.74391L7.76825 2.15184L8.39761 2.55978L8.61569 2.22332L7.98634 1.81538ZM7.76825 2.15184L7.29137 1.57298L6.99272 1.81901L7.4696 2.39788L7.94648 2.97674L8.24513 2.73071L7.76825 2.15184ZM7.4696 2.39788L7.17869 1.7066L6.7781 1.87517L7.06902 2.56645L7.35993 3.25774L7.76051 3.08916L7.4696 2.39788ZM7.06902 2.56645L6.32274 2.49187L6.27579 2.96157L7.02207 3.03616L7.76835 3.11075L7.8153 2.64104L7.06902 2.56645ZM7.02207 3.03616L6.55627 2.44834L6.24417 2.69565L6.70997 3.28347L7.17577 3.87129L7.48787 3.62398L7.02207 3.03616ZM6.70997 3.28347L6.02172 2.98547L5.86161 3.35524L6.54987 3.65324L7.23812 3.95124L7.39823 3.58147L6.70997 3.28347ZM6.54987 3.65324L6.23142 2.9742L5.83623 3.15954L6.15467 3.83858L6.47312 4.51761L6.86831 4.33228L6.54987 3.65324ZM6.15467 3.83858L5.50472 3.46434L5.30823 3.80559L5.95819 4.17983L6.60814 4.55406L6.80463 4.21281L6.15467 3.83858ZM5.95819 4.17983L5.30686 3.80798L5.11184 4.14958L5.76317 4.52143L6.4145 4.89327L6.60952 4.55167L5.95819 4.17983ZM5.76317 4.52143L5.07067 4.23341L4.91622 4.60477L5.60872 4.89278L6.30121 5.1808L6.45566 4.80944L5.76317 4.52143ZM5.60872 4.89278L5.38832 4.1759L4.92648 4.31788L5.14687 5.03477L5.36726 5.75166L5.82911 5.60967L5.60872 4.89278ZM5.14687 5.03477L4.39689 5.02912L4.39326 5.511L5.14324 5.51666L5.89321 5.52231L5.89685 5.04043L5.14687 5.03477ZM5.14324 5.51666L4.73961 4.88453L4.38712 5.1096L4.79075 5.74173L5.19437 6.37386L5.54686 6.14878L5.14324 5.51666ZM4.79075 5.74173L4.10116 5.44682L3.94417 5.81391L4.63376 6.10882L5.32334 6.40373L5.48033 6.03664L4.79075 5.74173ZM4.63376 6.10882L4.32783 5.42405L3.91354 5.60913L4.21946 6.2939L4.52538 6.97868L4.93968 6.79359L4.63376 6.10882ZM4.21946 6.2939L3.47048 6.33296L3.49605 6.82331L4.24503 6.78426L4.99401 6.7452L4.96844 6.25485L4.21946 6.2939ZM4.24503 6.78426L3.72057 6.24812L3.43699 6.52553L3.96145 7.06166L4.48591 7.5978L4.76949 7.32039L4.24503 6.78426ZM3.96145 7.06166L3.36323 6.60929L3.12798 6.92039L3.7262 7.37276L4.32442 7.82512L4.55967 7.51403L3.96145 7.06166ZM3.7262 7.37276L3.05519 7.03774L2.88129 7.38605L3.5523 7.72107L4.22332 8.05609L4.39722 7.70778L3.7262 7.37276ZM3.5523 7.72107L3.13286 7.09932L2.76875 7.34496L3.18819 7.9667L3.60763 8.58845L3.97174 8.34282L3.5523 7.72107ZM3.18819 7.9667L2.44296 7.88229L2.39585 8.29818L3.14108 8.3826L3.88632 8.46701L3.93343 8.05112L3.18819 7.9667ZM3.14108 8.3826L2.45322 8.0837L2.29807 8.44076L2.98594 8.73965L3.6738 9.03854L3.82895 8.68149L3.14108 8.3826ZM2.98594 8.73965L2.48996 8.17706L2.16577 8.46287L2.66175 9.02546L3.15773 9.58804L3.48192 9.30224L2.98594 8.73965ZM2.66175 9.02546L1.92239 9.15132L1.99958 9.60478L2.73894 9.47892L3.47831 9.35306L3.40111 8.8996L2.66175 9.02546ZM2.73894 9.47892L2.10629 9.07611L1.89321 9.41078L2.52586 9.81358L3.15851 10.2164L3.37159 9.88172L2.73894 9.47892ZM2.52586 9.81358L1.88317 9.427L1.67552 9.77221L2.31822 10.1588L2.96091 10.5454L3.16855 10.2002L2.52586 9.81358ZM2.31822 10.1588L1.57003 10.211L1.59872 10.6221L2.3469 10.5699L3.09508 10.5177L3.0664 10.1066L2.31822 10.1588ZM2.3469 10.5699L1.60835 10.4393L1.54085 10.8212L2.27939 10.9517L3.01794 11.0823L3.08544 10.7005L2.3469 10.5699ZM2.27939 10.9517L1.69268 10.4845L1.41323 10.8355L1.99993 11.3027L2.58664 11.7699L2.8661 11.4189L2.27939 10.9517ZM1.99993 11.3027L1.34557 11.6692L1.58381 12.0945L2.23817 11.728L2.89253 11.3616L2.6543 10.9362L1.99993 11.3027ZM2.23817 11.728L1.66694 11.2421L1.36123 11.6014L1.93246 12.0874L2.5037 12.5734L2.8094 12.214L2.23817 11.728ZM1.93246 12.0874L1.18256 12.0996L1.18897 12.4933L1.93887 12.4811L2.68877 12.469L2.68237 12.0752L1.93246 12.0874ZM1.93887 12.4811L1.28158 12.8424L1.50295 13.2452L2.16024 12.884L2.81753 12.5228L2.59616 12.1199L1.93887 12.4811ZM2.16024 12.884L1.41059 12.861L1.39888 13.2439L2.14853 13.2668L2.89818 13.2897L2.90989 12.9069L2.16024 12.884ZM2.14853 13.2668L1.49608 12.8969L1.27193 13.2923L1.92438 13.6622L2.57683 14.0321L2.80098 13.6367L2.14853 13.2668ZM1.92438 13.6622L1.20787 13.8838L1.3267 14.268L2.0432 14.0464L2.75971 13.8247L2.64089 13.4406L1.92438 13.6622ZM2.0432 14.0464L1.29995 14.1467L1.35211 14.533L2.09537 14.4326L2.83862 14.3323L2.78646 13.946L2.0432 14.0464ZM2.09537 14.4326L1.34589 14.4605L1.36049 14.853L2.10997 14.8251L2.85945 14.7972L2.84485 14.4047L2.09537 14.4326ZM2.10997 14.8251L1.36352 14.898L1.40169 15.2892L2.14814 15.2163L2.8946 15.1435L2.85643 14.7523L2.10997 14.8251ZM2.14814 15.2163L1.40127 15.2847L1.43779 15.6833L2.18466 15.6148L2.93153 15.5464L2.89501 15.1479L2.14814 15.2163ZM2.18466 15.6148L1.66631 16.1569L1.98885 16.4653L2.5072 15.9233L3.02555 15.3812L2.70301 15.0728L2.18466 15.6148ZM2.5072 15.9233L1.76802 16.0502L1.8348 16.4391L2.57398 16.3121L3.31316 16.1851L3.24637 15.7963L2.5072 15.9233ZM2.57398 16.3121L2.02557 16.8237L2.30378 17.1219L2.85219 16.6103L3.4006 16.0987L3.12239 15.8005L2.57398 16.3121ZM2.85219 16.6103L2.10233 16.6248L2.11061 17.0546L2.86047 17.0401L3.61033 17.0257L3.60205 16.5959L2.85219 16.6103ZM2.86047 17.0401L2.24529 17.4691L2.47013 17.7916L3.08532 17.3626L3.7005 16.9336L3.47566 16.6111L2.86047 17.0401ZM3.08532 17.3626L2.43281 17.7323L2.62505 18.0716L3.27756 17.7018L3.93007 17.332L3.73783 16.9928L3.08532 17.3626ZM3.27756 17.7018L2.71604 18.199L2.97847 18.4954L3.53999 17.9982L4.10151 17.501L3.83908 17.2046L3.27756 17.7018ZM3.53999 17.9982L2.87792 18.3506L3.06007 18.6928L3.72214 18.3404L4.3842 17.988L4.20205 17.6458L3.53999 17.9982ZM3.72214 18.3404L3.075 18.7195L3.27196 19.0557L3.9191 18.6766L4.56623 18.2975L4.36927 17.9613L3.72214 18.3404ZM3.9191 18.6766L3.30218 19.1031L3.52391 19.4239L4.14083 18.9974L4.75775 18.5708L4.53602 18.2501L3.9191 18.6766ZM4.14083 18.9974L3.63452 19.5507L3.92446 19.816L4.43078 19.2627L4.93709 18.7094L4.64714 18.444L4.14083 18.9974ZM4.43078 19.2627L3.93547 19.8258L4.22938 20.0843L4.72469 19.5212L5.22 18.958L4.92609 18.6995L4.43078 19.2627ZM4.72469 19.5212L4.15521 20.0092L4.40769 20.3038L4.97717 19.8158L5.54665 19.3277L5.29417 19.0331L4.72469 19.5212ZM4.97717 19.8158L4.39265 20.2857L4.63689 20.5895L5.22142 20.1196L5.80595 19.6497L5.5617 19.3458L4.97717 19.8158ZM5.22142 20.1196L4.51214 20.3633L4.65326 20.774L5.36255 20.5302L6.07183 20.2865L5.9307 19.8758L5.22142 20.1196ZM5.36255 20.5302L4.92168 21.137L5.24482 21.3718L5.68568 20.765L6.12655 20.1583L5.80341 19.9235L5.36255 20.5302ZM5.68568 20.765L5.50709 21.4935L5.91814 21.5942L6.09673 20.8658L6.27532 20.1374L5.86427 20.0366L5.68568 20.765ZM6.09673 20.8658L5.69841 21.5013L6.02291 21.7047L6.42124 21.0692L6.81956 20.4337L6.49506 20.2303L6.09673 20.8658ZM6.42124 21.0692L5.89099 21.5996L6.17662 21.8852L6.70686 21.3547L7.23711 20.8243L6.95148 20.5388L6.42124 21.0692ZM6.70686 21.3547L6.30448 21.9877L6.63779 22.1996L7.04018 21.5667L7.44256 20.9337L7.10925 20.7218L6.70686 21.3547ZM7.04018 21.5667L6.7045 22.2373L7.05986 22.4152L7.39554 21.7445L7.73122 21.0738L7.37586 20.896L7.04018 21.5667ZM7.39554 21.7445L7.13632 22.4483L7.51482 22.5877L7.77404 21.8839L8.03326 21.1801L7.65476 21.0407L7.39554 21.7445ZM7.77404 21.8839L7.73823 22.6331L8.13856 22.6522L8.17436 21.9031L8.21017 21.1539L7.80984 21.1348L7.77404 21.8839ZM8.17436 21.9031L8.03558 22.6401L8.42297 22.7131L8.56176 21.976L8.70054 21.239L8.31315 21.166L8.17436 21.9031ZM8.56176 21.976L8.36206 22.6989L8.74766 22.8054L8.94735 22.0825L9.14704 21.3596L8.76145 21.2531L8.56176 21.976ZM8.94735 22.0825L9.22777 22.7781L9.63138 22.6154L9.35096 21.9198L9.07055 21.2242L8.66694 21.3869L8.94735 22.0825ZM9.35096 21.9198L9.49436 22.656L9.88732 22.5794L9.74392 21.8433L9.60053 21.1071L9.20757 21.1836L9.35096 21.9198ZM9.74392 21.8433L9.5784 22.5748L9.96456 22.6622L10.1301 21.9306L10.2956 21.1991L9.90944 21.1118L9.74392 21.8433ZM10.1301 21.9306L10.0748 22.6786L10.464 22.7074L10.5192 21.9594L10.5745 21.2114L10.1853 21.1827L10.1301 21.9306ZM10.5192 21.9594L10.5522 22.7087L10.9418 22.6915L10.9088 21.9422L10.8758 21.193L10.4862 21.2101L10.5192 21.9594ZM10.9088 21.9422L10.9417 22.6915L11.327 22.6746L11.2942 21.9253L11.2613 21.1761L10.8759 21.193L10.9088 21.9422ZM11.2942 21.9253L11.0732 22.642L11.4797 22.7674L11.7006 22.0507L11.9216 21.334L11.5151 21.2086L11.2942 21.9253ZM11.7006 22.0507L12.0773 22.6992L12.4381 22.4897L12.0614 21.8412L11.6847 21.1926L11.324 21.4021L11.7006 22.0507ZM12.0614 21.8412L12.1687 22.5834L12.5551 22.5276L12.4477 21.7853L12.3404 21.043L11.954 21.0989L12.0614 21.8412ZM12.4477 21.7853L12.6552 22.506L13.0299 22.3981L12.8224 21.6774L12.6149 20.9567L12.2402 21.0646L12.4477 21.7853ZM12.8224 21.6774L12.9799 22.4107L13.3619 22.3286L13.2044 21.5954L13.0469 20.8621L12.6649 20.9441L12.8224 21.6774ZM13.2044 21.5954L13.2066 22.3454L13.6127 22.3442L13.6106 21.5942L13.6084 20.8442L13.2023 20.8454L13.2044 21.5954ZM13.6106 21.5942L14.2017 22.0558L14.4958 21.6792L13.9047 21.2176L13.3136 20.7559L13.0195 21.1326L13.6106 21.5942ZM13.9047 21.2176L13.6412 21.9198L14.1031 22.0931L14.3666 21.3909L14.6301 20.6887L14.1682 20.5154L13.9047 21.2176ZM14.3666 21.3909L14.6202 22.0967L14.9887 21.9642L14.7351 21.2584L14.4814 20.5526L14.1129 20.6851L14.3666 21.3909ZM14.7351 21.2584L15.1895 21.8551L15.5181 21.6048L15.0637 21.0081L14.6092 20.4115L14.2806 20.6618L14.7351 21.2584ZM15.0637 21.0081L15.492 21.6238L15.8231 21.3934L15.3948 20.7778L14.9664 20.1621L14.6353 20.3925L15.0637 21.0081ZM15.3948 20.7778L15.667 21.4766L16.0246 21.3373L15.7524 20.6385L15.4802 19.9396L15.1225 20.0789L15.3948 20.7778ZM15.7524 20.6385L16.0933 21.3065L16.4356 21.1318L16.0946 20.4638L15.7536 19.7958L15.4114 19.9705L15.7524 20.6385ZM16.0946 20.4638L16.0084 21.2088L16.4731 21.2626L16.5593 20.5176L16.6455 19.7725L16.1808 19.7188L16.0946 20.4638ZM16.5593 20.5176L17.0744 21.0628L17.3687 20.7847L16.8537 20.2395L16.3387 19.6943L16.0443 19.9724L16.5593 20.5176ZM16.8537 20.2395L17.1402 20.9326L17.5067 20.7811L17.2203 20.088L16.9338 19.3949L16.5672 19.5464L16.8537 20.2395ZM17.2203 20.088L17.7562 20.6127L18.0365 20.3264L17.5006 19.8017L16.9647 19.277L16.6843 19.5633L17.2203 20.088ZM17.5006 19.8017L17.8608 20.4595L18.2049 20.2711L17.8447 19.6133L17.4845 18.9554L17.1404 19.1438L17.5006 19.8017ZM17.8447 19.6133L18.4934 19.9897L18.7081 19.6196L18.0594 19.2432L17.4107 18.8668L17.196 19.2368L17.8447 19.6133ZM18.0594 19.2432L18.0638 19.9932L18.5445 19.9904L18.54 19.2404L18.5356 18.4904L18.055 18.4933L18.0594 19.2432ZM18.54 19.2404L19.2221 19.5523L19.4062 19.1497L18.7241 18.8379L18.0421 18.526L17.858 18.9285L18.54 19.2404ZM18.7241 18.8379L19.1013 19.4861L19.4429 19.2874L19.0657 18.6391L18.6886 17.9908L18.347 18.1896L18.7241 18.8379ZM19.0657 18.6391L19.5571 19.2057L19.8534 18.9488L19.362 18.3822L18.8706 17.8156L18.5743 18.0725L19.0657 18.6391ZM19.362 18.3822L20.0754 18.6137L20.2062 18.2104L19.4929 17.9789L18.7795 17.7474L18.6486 18.1507L19.362 18.3822ZM19.4929 17.9789L19.8771 18.623L20.2308 18.4121L19.8466 17.7679L19.4624 17.1238L19.1087 17.3348L19.4929 17.9789ZM19.8466 17.7679L20.4165 18.2555L20.6706 17.9584L20.1007 17.4709L19.5308 16.9833L19.2766 17.2804L19.8466 17.7679ZM20.1007 17.4709L20.5538 18.0685L20.8889 17.8145L20.4359 17.2168L19.9828 16.6191L19.6476 16.8732L20.1007 17.4709ZM20.4359 17.2168L21.1859 17.2138L21.1841 16.7618L20.4341 16.7648L19.6841 16.7677L19.6859 17.2197L20.4359 17.2168ZM20.4341 16.7648L21.0923 17.1244L21.2783 16.7838L20.6202 16.4242L19.962 16.0646L19.7759 16.4052L20.4341 16.7648ZM20.6202 16.4242L21.2058 16.8927L21.4581 16.5774L20.8725 16.1089L20.2868 15.6403L20.0345 15.9557L20.6202 16.4242ZM20.8725 16.1089L21.5189 16.4891L21.7196 16.148L21.0732 15.7677L20.4267 15.3874L20.226 15.7286L20.8725 16.1089ZM21.0732 15.7677L21.795 15.9711L21.9017 15.5925L21.1799 15.3891L20.458 15.1856L20.3513 15.5642L21.0732 15.7677ZM21.1799 15.3891L21.9275 15.4485L21.9597 15.0437L21.212 14.9843L20.4644 14.9249L20.4322 15.3296L21.1799 15.3891ZM21.212 14.9843L21.9417 15.1577L22.0324 14.7759L21.3027 14.6025L20.5731 14.4292L20.4823 14.8109L21.212 14.9843ZM21.3027 14.6025L22.0328 14.7743L22.1226 14.3927L21.3925 14.2209L20.6625 14.0491L20.5727 14.4307L21.3027 14.6025ZM21.3925 14.2209L21.8604 14.8071L22.2243 14.5167L21.7564 13.9305L21.2885 13.3443L20.9247 13.6348L21.3925 14.2209ZM21.7564 13.9305L22.4711 13.7031L22.3296 13.2583L21.6149 13.4857L20.9002 13.7131L21.0417 14.1579L21.7564 13.9305ZM21.6149 13.4857L22.3049 13.7795L22.4583 13.4193L21.7682 13.1255L21.0782 12.8317L20.9248 13.1919L21.6149 13.4857ZM21.7682 13.1255L22.5099 13.2373L22.5676 12.8547L21.826 12.7429L21.0843 12.6311L21.0266 13.0137L21.7682 13.1255ZM21.826 12.7429L22.5318 12.9965L22.6664 12.6217L21.9606 12.3682L21.2548 12.1146L21.1201 12.4893L21.826 12.7429ZM21.9606 12.3682L22.7083 12.3092L22.6772 11.915L21.9295 11.9739L21.1818 12.0329L21.2129 12.4271L21.9606 12.3682ZM21.9295 11.9739L22.6355 12.2269L22.7732 11.8429L22.0671 11.5898L21.3611 11.3368L21.2235 11.7209L21.9295 11.9739ZM22.0671 11.5898L22.7985 11.4235L22.7096 11.0328L21.9783 11.1991L21.2469 11.3654L21.3358 11.7562L22.0671 11.5898ZM21.9783 11.1991L22.6845 11.4514L22.8287 11.0481L22.1224 10.7957L21.4161 10.5434L21.272 10.9467L21.9783 11.1991ZM22.1224 10.7957L22.6885 10.3038L22.3777 9.94607L21.8115 10.438L21.2454 10.93L21.5563 11.2877L22.1224 10.7957ZM21.8115 10.438L22.4878 10.7623L22.6939 10.3326L22.0176 10.0083L21.3414 9.68395L21.1353 10.1137L21.8115 10.438ZM22.0176 10.0083L22.7389 9.80267L22.6302 9.42122L21.9089 9.62682L21.1876 9.83242L21.2964 10.2139L22.0176 10.0083ZM21.9089 9.62682L22.391 9.05224L22.0217 8.74243L21.5396 9.31701L21.0576 9.89159L21.4269 10.2014L21.9089 9.62682ZM21.5396 9.31701L22.28 9.19742L22.2182 8.81486L21.4778 8.93445L20.7374 9.05405L20.7992 9.43661L21.5396 9.31701ZM21.4778 8.93445L22.2273 8.90717L22.2126 8.50312L21.4631 8.5304L20.7136 8.55768L20.7283 8.96173L21.4778 8.93445ZM21.4631 8.5304L22.2131 8.521L22.2078 8.10299L21.4579 8.11239L20.708 8.12179L20.7132 8.5398L21.4631 8.5304ZM21.4579 8.11239L22.0204 7.61627L21.7461 7.30529L21.1836 7.8014L20.6211 8.29752L20.8954 8.6085L21.4579 8.11239ZM21.1836 7.8014L21.8818 7.52743L21.7384 7.16205L21.0402 7.43602L20.342 7.70999L20.4854 8.07538L21.1836 7.8014ZM21.0402 7.43602L21.6642 7.01992L21.4454 6.69185L20.8214 7.10795L20.1975 7.52406L20.4162 7.85213L21.0402 7.43602ZM20.8214 7.10795L21.3405 6.56662L21.0576 6.29528L20.5385 6.83662L20.0194 7.37796L20.3023 7.64929L20.8214 7.10795ZM20.5385 6.83662L21.1803 6.44858L20.9732 6.10605L20.3314 6.4941L19.6896 6.88214L19.8967 7.22466L20.5385 6.83662ZM20.3314 6.4941L20.8702 5.97242L20.5973 5.69054L20.0585 6.21221L19.5196 6.73389L19.7925 7.01577L20.3314 6.4941ZM20.0585 6.21221L20.673 5.78221L20.4437 5.45451L19.8292 5.88452L19.2147 6.31452L19.444 6.64222L20.0585 6.21221ZM19.8292 5.88452L20.065 5.17254L19.6582 5.03783L19.4224 5.7498L19.1866 6.46178L19.5934 6.59649L19.8292 5.88452ZM19.4224 5.7498L20.0967 5.42136L19.9124 5.04304L19.2381 5.37149L18.5639 5.69993L18.7481 6.07825L19.4224 5.7498ZM19.2381 5.37149L19.6806 4.76596L19.3636 4.53428L18.9211 5.1398L18.4786 5.74533L18.7956 5.97701L19.2381 5.37149ZM18.9211 5.1398L19.4536 4.61162L19.1781 4.33392L18.6456 4.8621L18.1132 5.39029L18.3886 5.66799L18.9211 5.1398ZM18.6456 4.8621L18.9623 4.18225L18.594 4.01064L18.2772 4.69049L17.9605 5.37034L18.3289 5.54195L18.6456 4.8621ZM18.2772 4.69049L18.5331 3.9855L18.1466 3.84519L17.8907 4.55019L17.6348 5.25518L18.0213 5.39548L18.2772 4.69049ZM17.8907 4.55019L18.3234 3.93758L18.0148 3.71962L17.5821 4.33223L17.1494 4.94484L17.458 5.1628L17.8907 4.55019ZM17.5821 4.33223L18.159 3.85293L17.8964 3.53691L17.3196 4.01622L16.7427 4.49552L17.0053 4.81153L17.5821 4.33223ZM17.3196 4.01622L17.4241 3.27354L17.026 3.21748L16.9214 3.96015L16.8168 4.70282L17.215 4.75889L17.3196 4.01622ZM16.9214 3.96015L17.3834 3.3693L17.0613 3.11748L16.5993 3.70833L16.1374 4.29917L16.4595 4.55099L16.9214 3.96015ZM16.5993 3.70833L16.7128 2.96695L16.3219 2.90716L16.2085 3.64853L16.0951 4.38991L16.4859 4.4497L16.5993 3.70833ZM16.2085 3.64853L16.4216 2.92944L16.048 2.81875L15.835 3.53785L15.6219 4.25694L15.9954 4.36763L16.2085 3.64853ZM15.835 3.53785L15.9632 2.7989L15.5778 2.732L15.4496 3.47095L15.3213 4.2099L15.7067 4.2768L15.835 3.53785ZM15.4496 3.47095L15.4419 2.72099L15.0399 2.7251L15.0476 3.47506L15.0553 4.22502L15.4572 4.22091L15.4496 3.47095ZM15.0476 3.47506L15.3398 2.78434L14.9776 2.6311L14.6854 3.32182L14.3932 4.01254L14.7554 4.16579L15.0476 3.47506ZM14.6854 3.32182L15.0906 2.69072L14.7415 2.46654L14.3363 3.09764L13.931 3.72874L14.2802 3.95292L14.6854 3.32182ZM14.3363 3.09764L14.4611 2.3581L14.0756 2.29303L13.9507 3.03256L13.8259 3.7721L14.2115 3.83718L14.3363 3.09764ZM13.9507 3.03256L14.1262 2.30337L13.7454 2.21178L13.57 2.94098L13.3946 3.67017L13.7753 3.76176L13.9507 3.03256ZM13.57 2.94098L13.3222 2.2331L12.9095 2.3776L13.1573 3.08547L13.4051 3.79335L13.8179 3.64885L13.57 2.94098ZM13.1573 3.08547L13.5666 2.457L13.1984 2.21724L12.7891 2.84572L12.3798 3.47419L12.748 3.71395L13.1573 3.08547ZM12.7891 2.84572L12.4539 2.17482L12.0716 2.36587L12.4068 3.03676L12.7421 3.70765L13.1244 3.51661L12.7891 2.84572ZM12.4068 3.03676L12.2594 2.30139L11.8851 2.37643L12.0325 3.1118L12.1799 3.84717L12.5543 3.77213L12.4068 3.03676ZM12.0325 3.1118L12.0472 2.36195L11.6434 2.35403L11.6287 3.10389L11.614 3.85374L12.0178 3.86166L12.0325 3.1118ZM11.6287 3.10389L12.1034 2.52325L11.7482 2.23281L11.2735 2.81345L10.7987 3.39409L11.154 3.68453L11.6287 3.10389ZM11.2735 2.81345L11.433 2.08062L11.0438 1.99587L10.8842 2.7287L10.7247 3.46153L11.1139 3.54628L11.2735 2.81345ZM10.8842 2.7287L10.5343 2.06534L10.134 2.2765L10.4839 2.93986L10.8338 3.60323L11.2341 3.39207L10.8842 2.7287ZM10.4839 2.93986L10.5469 2.19251L10.1447 2.15864L10.0817 2.90599L10.0188 3.65335L10.421 3.68722L10.4839 2.93986ZM10.0817 2.90599L9.87101 2.18621L9.47341 2.30261L9.68414 3.0224L9.89487 3.74218L10.2925 3.62578L10.0817 2.90599ZM9.68414 3.0224L8.93419 3.01377L8.93234 3.17435L9.68229 3.18298L10.4322 3.1916L10.4341 3.03103L9.68414 3.0224Z" fill="black"/>
<path d="M9.19625 15.0232C8.79408 14.9241 8.38767 15.1697 8.28852 15.5719C8.18936 15.974 8.435 16.3804 8.83717 16.4796L9.01671 15.7514L9.19625 15.0232ZM9.1138 15.7753L9.82434 15.5353L9.69267 15.1456L9.29334 15.0471L9.1138 15.7753ZM9.21756 16.0824L9.95568 15.9494L9.94585 15.8949L9.9281 15.8423L9.21756 16.0824ZM9.29474 16.5108L8.55662 16.6438L8.63787 17.0948L9.07628 17.2283L9.29474 16.5108ZM9.70024 16.6343L9.92314 15.9181L9.91869 15.9168L9.70024 16.6343ZM10.0705 16.7495L10.5704 16.1904L10.449 16.0818L10.2934 16.0334L10.0705 16.7495ZM10.3746 17.0214L9.87464 17.5805L9.97856 17.6734L10.1089 17.7228L10.3746 17.0214ZM10.74 17.1598L10.4743 17.8612L10.6019 17.9095L10.7382 17.9098L10.74 17.1598ZM11.1455 17.1607L11.4037 16.4566L11.2795 16.411L11.1472 16.4107L11.1455 17.1607ZM11.505 17.2925L11.8753 16.6403L11.8214 16.6097L11.7632 16.5884L11.505 17.2925ZM11.8839 17.5077L11.5137 18.1599L11.9257 18.3938L12.3139 18.1222L11.8839 17.5077ZM12.2706 17.2371L12.3934 16.4973L12.0914 16.4472L11.8406 16.6226L12.2706 17.2371ZM12.6614 17.302L12.5386 18.0419L12.7361 18.0746L12.9236 18.0047L12.6614 17.302ZM13.0362 17.1621L13.2833 16.454L13.0277 16.3648L12.7741 16.4594L13.0362 17.1621ZM13.4466 17.3053L13.1996 18.0134L13.4382 18.0967L13.6786 18.0185L13.4466 17.3053ZM13.8216 17.1832L14.0537 17.8964L14.0691 17.8914L14.0843 17.8857L13.8216 17.1832ZM14.1885 17.046L14.4513 17.7484L14.5141 17.7249L14.5718 17.6907L14.1885 17.046ZM14.5277 16.8443L14.7093 16.1166L14.4098 16.0419L14.1445 16.1996L14.5277 16.8443ZM14.9955 16.961L14.8139 17.6887L15.455 17.8486L15.6945 17.2328L14.9955 16.961ZM15.1683 16.5165L14.8993 15.8164L14.5895 15.9355L14.4692 16.2448L15.1683 16.5165ZM15.5481 16.3706L15.8171 17.0707L16.0679 16.9743L16.2005 16.7406L15.5481 16.3706ZM15.7437 16.0256L15.4808 15.3232L15.2257 15.4186L15.0913 15.6556L15.7437 16.0256ZM16.1694 15.8662L16.4323 16.5687L16.97 16.3674L16.9161 15.7958L16.1694 15.8662ZM16.1244 15.3892L15.5189 14.9466L15.351 15.1763L15.3777 15.4596L16.1244 15.3892ZM16.3549 15.0738L15.8978 14.4792L15.8127 14.5446L15.7493 14.6313L16.3549 15.0738ZM16.908 15.5946C17.2364 15.3422 17.298 14.8713 17.0455 14.5429C16.7931 14.2145 16.3222 14.1529 15.9938 14.4054L16.4509 15L16.908 15.5946ZM9.01671 15.7514L8.83717 16.4796L8.93426 16.5035L9.1138 15.7753L9.29334 15.0471L9.19625 15.0232L9.01671 15.7514ZM9.1138 15.7753L8.40327 16.0154L8.50703 16.3225L9.21756 16.0824L9.9281 15.8423L9.82434 15.5353L9.1138 15.7753ZM9.21756 16.0824L8.47945 16.2154L8.55662 16.6438L9.29474 16.5108L10.0329 16.3778L9.95568 15.9494L9.21756 16.0824ZM9.29474 16.5108L9.07628 17.2283L9.48178 17.3518L9.70024 16.6343L9.91869 15.9168L9.51319 15.7933L9.29474 16.5108ZM9.70024 16.6343L9.47733 17.3504L9.8476 17.4656L10.0705 16.7495L10.2934 16.0334L9.92314 15.9182L9.70024 16.6343ZM10.0705 16.7495L9.57058 17.3086L9.87464 17.5805L10.3746 17.0214L10.8745 16.4623L10.5704 16.1904L10.0705 16.7495ZM10.3746 17.0214L10.1089 17.7228L10.4743 17.8612L10.74 17.1598L11.0056 16.4584L10.6402 16.32L10.3746 17.0214ZM10.74 17.1598L10.7382 17.9098L11.1438 17.9107L11.1455 17.1607L11.1472 16.4107L10.7417 16.4098L10.74 17.1598ZM11.1455 17.1607L10.8873 17.8649L11.2468 17.9967L11.505 17.2925L11.7632 16.5884L11.4037 16.4566L11.1455 17.1607ZM11.505 17.2925L11.1347 17.9447L11.5137 18.1599L11.8839 17.5077L12.2542 16.8555L11.8753 16.6403L11.505 17.2925ZM11.8839 17.5077L12.3139 18.1222L12.7006 17.8516L12.2706 17.2371L11.8406 16.6226L11.454 16.8932L11.8839 17.5077ZM12.2706 17.2371L12.1478 17.977L12.5386 18.0419L12.6614 17.302L12.7842 16.5621L12.3934 16.4973L12.2706 17.2371ZM12.6614 17.302L12.9236 18.0047L13.2984 17.8648L13.0362 17.1621L12.7741 16.4594L12.3992 16.5993L12.6614 17.302ZM13.0362 17.1621L12.7892 17.8703L13.1996 18.0134L13.4466 17.3053L13.6936 16.5971L13.2833 16.454L13.0362 17.1621ZM13.4466 17.3053L13.6786 18.0185L14.0537 17.8964L13.8216 17.1832L13.5895 16.47L13.2145 16.5921L13.4466 17.3053ZM13.8216 17.1832L14.0843 17.8857L14.4513 17.7484L14.1885 17.046L13.9258 16.3435L13.5588 16.4808L13.8216 17.1832ZM14.1885 17.046L14.5718 17.6907L14.911 17.489L14.5277 16.8443L14.1445 16.1996L13.8053 16.4013L14.1885 17.046ZM14.5277 16.8443L14.3462 17.572L14.8139 17.6887L14.9955 16.961L15.177 16.2333L14.7093 16.1166L14.5277 16.8443ZM14.9955 16.961L15.6945 17.2328L15.8673 16.7883L15.1683 16.5165L14.4692 16.2448L14.2964 16.6892L14.9955 16.961ZM15.1683 16.5165L15.4372 17.2166L15.8171 17.0707L15.5481 16.3706L15.2791 15.6705L14.8993 15.8164L15.1683 16.5165ZM15.5481 16.3706L16.2005 16.7406L16.3961 16.3955L15.7437 16.0256L15.0913 15.6556L14.8956 16.0007L15.5481 16.3706ZM15.7437 16.0256L16.0066 16.728L16.4323 16.5687L16.1694 15.8662L15.9065 15.1638L15.4808 15.3232L15.7437 16.0256ZM16.1694 15.8662L16.9161 15.7958L16.8711 15.3187L16.1244 15.3892L15.3777 15.4596L15.4227 15.9367L16.1694 15.8662ZM16.1244 15.3892L16.7299 15.8317L16.9604 15.5163L16.3549 15.0738L15.7493 14.6313L15.5189 14.9466L16.1244 15.3892ZM16.3549 15.0738L16.8119 15.6684L16.908 15.5946L16.4509 15L15.9938 14.4054L15.8978 14.4792L16.3549 15.0738Z" fill="black"/>
</svg>
