<svg width="32" height="32" viewBox="0 0 32 32" fill="none" xmlns="http://www.w3.org/2000/svg">
<path d="M14.3089 6.39812C12.4098 6.73297 10.6527 7.62345 9.25973 8.95694C7.86674 10.2904 6.90047 12.007 6.48309 13.8897C6.06572 15.7724 6.21599 17.7365 6.9149 19.5338C7.61382 21.331 8.82998 22.8807 10.4096 23.9867C11.9892 25.0928 13.8614 25.7056 15.7893 25.7477C17.7172 25.7897 19.6143 25.2592 21.2407 24.2231C22.867 23.1869 24.1496 21.6918 24.9263 19.9268C25.7029 18.1617 25.9387 16.206 25.6039 14.3069C25.1523 11.7616 23.7094 9.49946 21.5919 8.01675C19.4744 6.53404 16.8551 5.95192 14.3089 6.39812ZM17.4346 24.1247C15.8277 24.408 14.1728 24.2085 12.6793 23.5513C11.1858 22.8942 9.92071 21.8089 9.044 20.4327C8.16729 19.0566 7.71835 17.4513 7.75394 15.82C7.78954 14.1887 8.30807 12.6046 9.24398 11.268C10.1799 9.93138 11.4911 8.90232 13.0119 8.31093C14.5326 7.71954 16.1946 7.59239 17.7876 7.94555C19.3806 8.29871 20.8331 9.11633 21.9615 10.295C23.0898 11.4737 23.8433 12.9605 24.1266 14.5674C24.504 16.7219 24.0114 18.9381 22.7568 20.7298C21.5022 22.5215 19.5882 23.7424 17.4346 24.1247ZM11.2448 14.9349C11.2061 14.7158 11.2333 14.4901 11.3229 14.2865C11.4126 14.0828 11.5605 13.9103 11.7482 13.7907C11.9359 13.6712 12.1548 13.61 12.3772 13.6148C12.5997 13.6197 12.8157 13.6904 12.9979 13.818C13.1802 13.9456 13.3205 14.1244 13.4012 14.3318C13.4818 14.5392 13.4992 14.7658 13.451 14.983C13.4028 15.2003 13.2913 15.3983 13.1306 15.5522C12.9699 15.7061 12.7671 15.8088 12.548 15.8474C12.2542 15.8993 11.9518 15.8322 11.7074 15.6611C11.463 15.4899 11.2966 15.2287 11.2448 14.9349ZM20.8466 13.2418C20.8812 13.4377 20.8365 13.6393 20.7224 13.8022C20.6083 13.9652 20.4342 14.0761 20.2383 14.1107L18.0224 14.5014C17.8266 14.5359 17.625 14.4912 17.462 14.3771C17.2991 14.263 17.1881 14.0889 17.1536 13.893C17.1191 13.6971 17.1638 13.4955 17.2778 13.3326C17.3919 13.1696 17.5661 13.0587 17.762 13.0242L19.9778 12.6335C20.1737 12.5989 20.3753 12.6436 20.5382 12.7577C20.7011 12.8718 20.8121 13.0459 20.8466 13.2418ZM20.7897 17.8213C20.1293 19.6313 18.7168 20.8523 16.9136 21.1702C15.1105 21.4882 13.3657 20.8248 12.125 19.3491C12.0616 19.2736 12.0138 19.1864 11.9842 19.0925C11.9546 18.9985 11.9438 18.8997 11.9524 18.8015C11.961 18.7034 11.9888 18.6079 12.0343 18.5205C12.0798 18.4332 12.1421 18.3556 12.2175 18.2923C12.293 18.229 12.3802 18.1812 12.4742 18.1515C12.5681 18.1219 12.667 18.1111 12.7651 18.1197C12.8633 18.1283 12.9587 18.1561 13.0461 18.2016C13.1335 18.2471 13.211 18.3094 13.2744 18.3849C14.1733 19.4554 15.3726 19.9188 16.6532 19.693C17.9337 19.4672 18.902 18.6206 19.3817 17.308C19.4123 17.2116 19.4621 17.1223 19.5281 17.0457C19.5941 16.969 19.6749 16.9065 19.7657 16.8619C19.8564 16.8172 19.9553 16.7914 20.0563 16.786C20.1573 16.7806 20.2584 16.7957 20.3534 16.8303C20.4485 16.8649 20.5355 16.9185 20.6093 16.9876C20.6831 17.0568 20.7422 17.1401 20.783 17.2327C20.8237 17.3253 20.8453 17.4252 20.8465 17.5263C20.8477 17.6275 20.8283 17.7278 20.7897 17.8213Z" fill="black"/>
</svg>
