<svg xmlns="http://www.w3.org/2000/svg" width="32" height="32" fill="none" viewBox="0 0 32 32"><path fill="#000" d="M14.309 6.398a9.75 9.75 0 1 0 11.295 7.909 9.76 9.76 0 0 0-11.295-7.909m3.126 17.727a8.25 8.25 0 1 1 6.692-9.558 8.26 8.26 0 0 1-6.692 9.558m-6.19-9.19a1.124 1.124 0 1 1 2.214-.391 1.124 1.124 0 0 1-2.214.39m9.602-1.693a.75.75 0 0 1-.609.869l-2.216.39a.75.75 0 0 1-.26-1.477l2.216-.39a.75.75 0 0 1 .869.608m-.057 4.58c-.66 1.81-2.073 3.03-3.876 3.348-1.804.318-3.548-.345-4.789-1.82a.75.75 0 1 1 1.15-.965c.898 1.07 2.098 1.534 3.378 1.308s2.249-1.072 2.729-2.385a.75.75 0 1 1 1.408.513"/></svg>